<ttFont>
    <TTGlyph name=".notdef" xMin="0" yMin="0" xMax="500" yMax="700">
      <contour>
        <pt x="0" y="700" on="1"/>
        <pt x="500" y="700" on="1"/>
        <pt x="500" y="0" on="1"/>
        <pt x="0" y="0" on="1"/>
      </contour>
      <contour>
        <pt x="50" y="650" on="1"/>
        <pt x="50" y="50" on="1"/>
        <pt x="450" y="50" on="1"/>
        <pt x="450" y="650" on="1"/>
      </contour>
      <contour>
        <pt x="229" y="278" on="1"/>
        <pt x="229" y="307" on="0"/>
        <pt x="256" y="345" on="0"/>
        <pt x="283" y="367" on="1"/>
        <pt x="311" y="390" on="0"/>
        <pt x="339" y="431" on="0"/>
        <pt x="339" y="465" on="1"/>
        <pt x="339" y="496" on="0"/>
        <pt x="301" y="552" on="0"/>
        <pt x="250" y="552" on="1"/>
        <pt x="192" y="552" on="0"/>
        <pt x="152" y="485" on="0"/>
        <pt x="152" y="452" on="1"/>
        <pt x="152" y="424" on="1"/>
        <pt x="103" y="424" on="1"/>
        <pt x="99" y="438" on="0"/>
        <pt x="99" y="455" on="1"/>
        <pt x="99" y="478" on="0"/>
        <pt x="120" y="544" on="0"/>
        <pt x="187" y="602" on="0"/>
        <pt x="250" y="602" on="1"/>
        <pt x="313" y="602" on="0"/>
        <pt x="376" y="546" on="0"/>
        <pt x="393" y="486" on="0"/>
        <pt x="393" y="467" on="1"/>
        <pt x="393" y="422" on="0"/>
        <pt x="356" y="364" on="0"/>
        <pt x="326" y="338" on="1"/>
        <pt x="304" y="320" on="0"/>
        <pt x="282" y="290" on="0"/>
        <pt x="282" y="268" on="1"/>
        <pt x="282" y="215" on="1"/>
        <pt x="229" y="215" on="1"/>
      </contour>
      <contour>
        <pt x="225" y="169" on="1"/>
        <pt x="285" y="169" on="1"/>
        <pt x="285" y="99" on="1"/>
        <pt x="225" y="99" on="1"/>
      </contour>
    </TTGlyph>
    <TTGlyph name=".ttfautohint" xMin="0" yMin="0" xMax="0" yMax="0">
      <contour>
        <pt x="0" y="0" on="1"/>
      </contour>
    </TTGlyph>
    <TTGlyph name="A" xMin="33" yMin="0" xMax="557" yMax="688">
      <contour>
        <pt x="441" y="220" on="1"/>
        <pt x="148" y="220" on="1"/>
        <pt x="71" y="0" on="1"/>
        <pt x="33" y="0" on="1"/>
        <pt x="277" y="688" on="1"/>
        <pt x="314" y="688" on="1"/>
        <pt x="557" y="0" on="1"/>
        <pt x="519" y="0" on="1"/>
      </contour>
      <contour>
        <pt x="292" y="630" on="1"/>
        <pt x="160" y="254" on="1"/>
        <pt x="429" y="254" on="1"/>
        <pt x="297" y="630" on="1"/>
      </contour>
    </TTGlyph>
    <TTGlyph name="A.ss01" xMin="90" yMin="0" xMax="531" yMax="696">
      <contour>
        <pt x="495" y="274" on="1"/>
        <pt x="126" y="274" on="1"/>
        <pt x="126" y="0" on="1"/>
        <pt x="90" y="0" on="1"/>
        <pt x="90" y="394" on="1"/>
        <pt x="90" y="526" on="0"/>
        <pt x="117" y="646" on="0"/>
        <pt x="208" y="696" on="0"/>
        <pt x="310" y="696" on="1"/>
        <pt x="413" y="696" on="0"/>
        <pt x="504" y="646" on="0"/>
        <pt x="531" y="526" on="0"/>
        <pt x="531" y="394" on="1"/>
        <pt x="531" y="0" on="1"/>
        <pt x="495" y="0" on="1"/>
      </contour>
      <contour>
        <pt x="495" y="530" on="0"/>
        <pt x="473" y="623" on="0"/>
        <pt x="397" y="662" on="0"/>
        <pt x="310" y="662" on="1"/>
        <pt x="223" y="662" on="0"/>
        <pt x="147" y="623" on="0"/>
        <pt x="126" y="530" on="0"/>
        <pt x="126" y="424" on="1"/>
        <pt x="126" y="308" on="1"/>
        <pt x="495" y="308" on="1"/>
        <pt x="495" y="424" on="1"/>
      </contour>
    </TTGlyph>
    <TTGlyph name="AE" xMin="0" yMin="0" xMax="767" yMax="688">
      <contour>
        <pt x="429" y="220" on="1"/>
        <pt x="135" y="220" on="1"/>
        <pt x="37" y="0" on="1"/>
        <pt x="0" y="0" on="1"/>
        <pt x="308" y="688" on="1"/>
        <pt x="767" y="688" on="1"/>
        <pt x="767" y="654" on="1"/>
        <pt x="354" y="654" on="1"/>
        <pt x="429" y="365" on="1"/>
        <pt x="726" y="365" on="1"/>
        <pt x="726" y="331" on="1"/>
        <pt x="438" y="331" on="1"/>
        <pt x="515" y="34" on="1"/>
        <pt x="767" y="34" on="1"/>
        <pt x="767" y="0" on="1"/>
        <pt x="485" y="0" on="1"/>
      </contour>
      <contour>
        <pt x="319" y="630" on="1"/>
        <pt x="151" y="254" on="1"/>
        <pt x="420" y="254" on="1"/>
        <pt x="324" y="630" on="1"/>
      </contour>
    </TTGlyph>
    <TTGlyph name="AEacute" xMin="0" yMin="0" xMax="767" yMax="888">
      <component glyphName=".ttfautohint" x="0" y="0" flags="0x0"/>
      <component glyphName="AE" x="0" y="0" flags="0x0"/>
      <component glyphName="acutecomb.case" x="527" y="0" flags="0x0"/>
    </TTGlyph>
    <TTGlyph name="Aacute" xMin="33" yMin="0" xMax="557" yMax="888">
      <component glyphName=".ttfautohint" x="33" y="0" flags="0x0"/>
      <component glyphName="A" x="0" y="0" flags="0x0"/>
      <component glyphName="acute" x="260" y="145" flags="0x4"/>
    </TTGlyph>
    <TTGlyph name="Aacute.ss01" xMin="90" yMin="0" xMax="531" yMax="888">
      <component glyphName=".ttfautohint" x="90" y="0" flags="0x0"/>
      <component glyphName="A.ss01" x="0" y="0" flags="0x0"/>
      <component glyphName="acute" x="270" y="145" flags="0x4"/>
    </TTGlyph>
    <TTGlyph name="Abreve" xMin="33" yMin="0" xMax="557" yMax="888">
      <component glyphName=".ttfautohint" x="33" y="0" flags="0x0"/>
      <component glyphName="A" x="0" y="0" flags="0x0"/>
      <component glyphName="uni0306.case" x="425" y="0" flags="0x0"/>
    </TTGlyph>
    <TTGlyph name="Abreve.ss01" xMin="90" yMin="0" xMax="531" yMax="888">
      <component glyphName=".ttfautohint" x="90" y="0" flags="0x0"/>
      <component glyphName="A.ss01" x="0" y="0" flags="0x0"/>
      <component glyphName="uni0306.case" x="441" y="0" flags="0x0"/>
    </TTGlyph>
    <TTGlyph name="Acircumflex" xMin="33" yMin="0" xMax="557" yMax="888">
      <component glyphName=".ttfautohint" x="33" y="0" flags="0x0"/>
      <component glyphName="A" x="0" y="0" flags="0x0"/>
      <component glyphName="circumflex" x="164" y="145" flags="0x4"/>
    </TTGlyph>
    <TTGlyph name="Acircumflex.ss01" xMin="90" yMin="0" xMax="531" yMax="888">
      <component glyphName=".ttfautohint" x="90" y="0" flags="0x0"/>
      <component glyphName="A.ss01" x="0" y="0" flags="0x0"/>
      <component glyphName="circumflex" x="182" y="145" flags="0x4"/>
    </TTGlyph>
    <TTGlyph name="Adieresis" xMin="33" yMin="0" xMax="557" yMax="831">
      <component glyphName=".ttfautohint" x="33" y="0" flags="0x0"/>
      <component glyphName="A" x="0" y="0" flags="0x0"/>
      <component glyphName="dieresis" x="164" y="100" flags="0x4"/>
    </TTGlyph>
    <TTGlyph name="Adieresis.ss01" xMin="90" yMin="0" xMax="531" yMax="831">
      <component glyphName=".ttfautohint" x="90" y="0" flags="0x0"/>
      <component glyphName="A.ss01" x="0" y="0" flags="0x0"/>
      <component glyphName="dieresis" x="181" y="100" flags="0x4"/>
    </TTGlyph>
    <TTGlyph name="Agrave" xMin="33" yMin="0" xMax="557" yMax="888">
      <component glyphName=".ttfautohint" x="33" y="0" flags="0x0"/>
      <component glyphName="A" x="0" y="0" flags="0x0"/>
      <component glyphName="grave" x="176" y="145" flags="0x4"/>
    </TTGlyph>
    <TTGlyph name="Agrave.ss01" xMin="90" yMin="0" xMax="531" yMax="888">
      <component glyphName=".ttfautohint" x="90" y="0" flags="0x0"/>
      <component glyphName="A.ss01" x="0" y="0" flags="0x0"/>
      <component glyphName="grave" x="198" y="145" flags="0x4"/>
    </TTGlyph>
    <TTGlyph name="Amacron" xMin="33" yMin="0" xMax="557" yMax="887">
      <component glyphName=".ttfautohint" x="33" y="0" flags="0x0"/>
      <component glyphName="A" x="0" y="0" flags="0x0"/>
      <component glyphName="uni0304.case" x="461" y="0" flags="0x0"/>
    </TTGlyph>
    <TTGlyph name="Amacron.ss01" xMin="90" yMin="0" xMax="531" yMax="887">
      <component glyphName=".ttfautohint" x="90" y="0" flags="0x0"/>
      <component glyphName="A.ss01" x="0" y="0" flags="0x0"/>
      <component glyphName="uni0304.case" x="477" y="0" flags="0x0"/>
    </TTGlyph>
    <TTGlyph name="Aogonek" xMin="33" yMin="-196" xMax="557" yMax="688">
      <contour>
        <pt x="492" y="-164" on="0"/>
        <pt x="539" y="-164" on="1"/>
        <pt x="556" y="-163" on="1"/>
        <pt x="556" y="-195" on="1"/>
        <pt x="547" y="-196" on="0"/>
        <pt x="534" y="-196" on="1"/>
        <pt x="495" y="-196" on="0"/>
        <pt x="458" y="-157" on="0"/>
        <pt x="458" y="-124" on="1"/>
        <pt x="458" y="-94" on="0"/>
        <pt x="491" y="-25" on="0"/>
        <pt x="518" y="2" on="1"/>
        <pt x="441" y="220" on="1"/>
        <pt x="148" y="220" on="1"/>
        <pt x="71" y="0" on="1"/>
        <pt x="33" y="0" on="1"/>
        <pt x="277" y="688" on="1"/>
        <pt x="314" y="688" on="1"/>
        <pt x="557" y="0" on="1"/>
        <pt x="551" y="0" on="1"/>
        <pt x="529" y="-21" on="0"/>
        <pt x="492" y="-91" on="0"/>
        <pt x="492" y="-118" on="1"/>
      </contour>
      <contour>
        <pt x="429" y="254" on="1"/>
        <pt x="297" y="630" on="1"/>
        <pt x="292" y="630" on="1"/>
        <pt x="160" y="254" on="1"/>
      </contour>
    </TTGlyph>
    <TTGlyph name="Aogonek.ss01" xMin="90" yMin="-196" xMax="533" yMax="696">
      <contour>
        <pt x="533" y="-163" on="1"/>
        <pt x="533" y="-195" on="1"/>
        <pt x="524" y="-196" on="0"/>
        <pt x="511" y="-196" on="1"/>
        <pt x="472" y="-196" on="0"/>
        <pt x="435" y="-157" on="0"/>
        <pt x="435" y="-124" on="1"/>
        <pt x="435" y="-94" on="0"/>
        <pt x="468" y="-25" on="0"/>
        <pt x="495" y="2" on="1"/>
        <pt x="495" y="274" on="1"/>
        <pt x="126" y="274" on="1"/>
        <pt x="126" y="0" on="1"/>
        <pt x="90" y="0" on="1"/>
        <pt x="90" y="394" on="1"/>
        <pt x="90" y="526" on="0"/>
        <pt x="117" y="646" on="0"/>
        <pt x="208" y="696" on="0"/>
        <pt x="310" y="696" on="1"/>
        <pt x="413" y="696" on="0"/>
        <pt x="504" y="646" on="0"/>
        <pt x="531" y="526" on="0"/>
        <pt x="531" y="394" on="1"/>
        <pt x="531" y="4" on="1"/>
        <pt x="532" y="4" on="1"/>
        <pt x="531" y="3" on="1"/>
        <pt x="531" y="0" on="1"/>
        <pt x="528" y="0" on="1"/>
        <pt x="506" y="-21" on="0"/>
        <pt x="469" y="-91" on="0"/>
        <pt x="469" y="-118" on="1"/>
        <pt x="469" y="-164" on="0"/>
        <pt x="516" y="-164" on="1"/>
      </contour>
      <contour>
        <pt x="495" y="308" on="1"/>
        <pt x="495" y="424" on="1"/>
        <pt x="495" y="530" on="0"/>
        <pt x="473" y="623" on="0"/>
        <pt x="397" y="662" on="0"/>
        <pt x="310" y="662" on="1"/>
        <pt x="223" y="662" on="0"/>
        <pt x="147" y="623" on="0"/>
        <pt x="126" y="530" on="0"/>
        <pt x="126" y="424" on="1"/>
        <pt x="126" y="308" on="1"/>
      </contour>
    </TTGlyph>
    <TTGlyph name="Aring" xMin="33" yMin="0" xMax="557" yMax="851">
      <contour>
        <pt x="557" y="0" on="1"/>
        <pt x="519" y="0" on="1"/>
        <pt x="441" y="220" on="1"/>
        <pt x="148" y="220" on="1"/>
        <pt x="71" y="0" on="1"/>
        <pt x="33" y="0" on="1"/>
        <pt x="268" y="669" on="1"/>
        <pt x="234" y="671" on="0"/>
        <pt x="202" y="690" on="0"/>
        <pt x="193" y="724" on="0"/>
        <pt x="193" y="759" on="1"/>
        <pt x="193" y="797" on="0"/>
        <pt x="205" y="834" on="0"/>
        <pt x="248" y="851" on="0"/>
        <pt x="295" y="851" on="1"/>
        <pt x="342" y="851" on="0"/>
        <pt x="385" y="834" on="0"/>
        <pt x="397" y="797" on="0"/>
        <pt x="397" y="759" on="1"/>
        <pt x="397" y="725" on="0"/>
        <pt x="388" y="690" on="0"/>
        <pt x="356" y="671" on="0"/>
        <pt x="322" y="669" on="1"/>
      </contour>
      <contour>
        <pt x="226" y="731" on="0"/>
        <pt x="233" y="707" on="0"/>
        <pt x="262" y="697" on="0"/>
        <pt x="295" y="697" on="1"/>
        <pt x="328" y="697" on="0"/>
        <pt x="357" y="707" on="0"/>
        <pt x="364" y="731" on="0"/>
        <pt x="364" y="759" on="1"/>
        <pt x="364" y="787" on="0"/>
        <pt x="357" y="812" on="0"/>
        <pt x="328" y="823" on="0"/>
        <pt x="295" y="823" on="1"/>
        <pt x="262" y="823" on="0"/>
        <pt x="233" y="812" on="0"/>
        <pt x="226" y="787" on="0"/>
        <pt x="226" y="759" on="1"/>
      </contour>
      <contour>
        <pt x="429" y="254" on="1"/>
        <pt x="297" y="630" on="1"/>
        <pt x="292" y="630" on="1"/>
        <pt x="160" y="254" on="1"/>
      </contour>
    </TTGlyph>
    <TTGlyph name="Aring.ss01" xMin="90" yMin="0" xMax="531" yMax="929">
      <component glyphName=".ttfautohint" x="90" y="0" flags="0x0"/>
      <component glyphName="A.ss01" x="0" y="0" flags="0x0"/>
      <component glyphName="ring" x="188" y="133" flags="0x4"/>
    </TTGlyph>
    <TTGlyph name="Aringacute" xMin="33" yMin="0" xMax="557" yMax="1051">
      <component glyphName=".ttfautohint" x="33" y="0" flags="0x0"/>
      <component glyphName="Aring" x="0" y="0" flags="0x0"/>
      <component glyphName="acutecomb.case" x="417" y="163" flags="0x4"/>
    </TTGlyph>
    <TTGlyph name="Aringacute.ss01" xMin="90" yMin="0" xMax="531" yMax="1081">
      <component glyphName=".ttfautohint" x="90" y="0" flags="0x0"/>
      <component glyphName="A.ss01" x="0" y="0" flags="0x0"/>
      <component glyphName="uni030A.case" x="432" y="0" flags="0x0"/>
      <component glyphName="acutecomb.case" x="436" y="193" flags="0x4"/>
    </TTGlyph>
    <TTGlyph name="Atilde" xMin="33" yMin="0" xMax="557" yMax="856">
      <component glyphName=".ttfautohint" x="33" y="0" flags="0x0"/>
      <component glyphName="A" x="0" y="0" flags="0x0"/>
      <component glyphName="tilde" x="129" y="113" flags="0x4"/>
    </TTGlyph>
    <TTGlyph name="Atilde.ss01" xMin="90" yMin="0" xMax="531" yMax="856">
      <component glyphName=".ttfautohint" x="90" y="0" flags="0x0"/>
      <component glyphName="A.ss01" x="0" y="0" flags="0x0"/>
      <component glyphName="tilde" x="144" y="113" flags="0x4"/>
    </TTGlyph>
    <TTGlyph name="B" xMin="99" yMin="0" xMax="522" yMax="688">
      <contour>
        <pt x="99" y="688" on="1"/>
        <pt x="352" y="688" on="1"/>
        <pt x="443" y="688" on="0"/>
        <pt x="515" y="598" on="0"/>
        <pt x="515" y="516" on="1"/>
        <pt x="515" y="376" on="0"/>
        <pt x="405" y="354" on="1"/>
        <pt x="405" y="350" on="1"/>
        <pt x="475" y="338" on="0"/>
        <pt x="522" y="247" on="0"/>
        <pt x="522" y="180" on="1"/>
        <pt x="522" y="100" on="0"/>
        <pt x="449" y="0" on="0"/>
        <pt x="344" y="0" on="1"/>
        <pt x="99" y="0" on="1"/>
      </contour>
      <contour>
        <pt x="409" y="366" on="0"/>
        <pt x="479" y="441" on="0"/>
        <pt x="479" y="510" on="1"/>
        <pt x="479" y="586" on="0"/>
        <pt x="420" y="654" on="0"/>
        <pt x="345" y="654" on="1"/>
        <pt x="135" y="654" on="1"/>
        <pt x="135" y="366" on="1"/>
        <pt x="345" y="366" on="1"/>
      </contour>
      <contour>
        <pt x="424" y="34" on="0"/>
        <pt x="486" y="105" on="0"/>
        <pt x="486" y="183" on="1"/>
        <pt x="486" y="260" on="0"/>
        <pt x="420" y="332" on="0"/>
        <pt x="348" y="332" on="1"/>
        <pt x="135" y="332" on="1"/>
        <pt x="135" y="34" on="1"/>
        <pt x="348" y="34" on="1"/>
      </contour>
    </TTGlyph>
    <TTGlyph name="C" xMin="77" yMin="-8" xMax="441" yMax="696">
      <contour>
        <pt x="383" y="-8" on="0"/>
        <pt x="309" y="-8" on="1"/>
        <pt x="203" y="-8" on="0"/>
        <pt x="111" y="38" on="0"/>
        <pt x="77" y="181" on="0"/>
        <pt x="77" y="344" on="1"/>
        <pt x="77" y="505" on="0"/>
        <pt x="111" y="648" on="0"/>
        <pt x="204" y="696" on="0"/>
        <pt x="309" y="696" on="1"/>
        <pt x="341" y="696" on="0"/>
        <pt x="414" y="689" on="0"/>
        <pt x="437" y="684" on="1"/>
        <pt x="437" y="652" on="1"/>
        <pt x="382" y="662" on="0"/>
        <pt x="317" y="662" on="1"/>
        <pt x="218" y="662" on="0"/>
        <pt x="139" y="623" on="0"/>
        <pt x="113" y="498" on="0"/>
        <pt x="113" y="344" on="1"/>
        <pt x="113" y="190" on="0"/>
        <pt x="139" y="65" on="0"/>
        <pt x="218" y="26" on="0"/>
        <pt x="317" y="26" on="1"/>
        <pt x="384" y="26" on="0"/>
        <pt x="441" y="36" on="1"/>
        <pt x="441" y="2" on="1"/>
      </contour>
    </TTGlyph>
    <TTGlyph name="Cacute" xMin="77" yMin="-8" xMax="441" yMax="888">
      <component glyphName=".ttfautohint" x="77" y="0" flags="0x0"/>
      <component glyphName="C" x="0" y="0" flags="0x0"/>
      <component glyphName="acutecomb.case" x="369" y="0" flags="0x0"/>
    </TTGlyph>
    <TTGlyph name="Cacute.loclPLK" xMin="77" yMin="-8" xMax="441" yMax="888">
      <component glyphName=".ttfautohint" x="77" y="0" flags="0x0"/>
      <component glyphName="C" x="0" y="0" flags="0x0"/>
      <component glyphName="acute.case.loclPLK" x="215" y="0" flags="0x0"/>
    </TTGlyph>
    <TTGlyph name="Ccaron" xMin="77" yMin="-8" xMax="441" yMax="888">
      <component glyphName=".ttfautohint" x="77" y="0" flags="0x0"/>
      <component glyphName="C" x="0" y="0" flags="0x0"/>
      <component glyphName="uni030C.case" x="377" y="0" flags="0x0"/>
    </TTGlyph>
    <TTGlyph name="Ccedilla" xMin="77" yMin="-190" xMax="441" yMax="696">
      <contour>
        <pt x="384" y="26" on="0"/>
        <pt x="441" y="36" on="1"/>
        <pt x="441" y="2" on="1"/>
        <pt x="383" y="-8" on="0"/>
        <pt x="309" y="-8" on="1"/>
        <pt x="274" y="-8" on="0"/>
        <pt x="259" y="-7" on="1"/>
        <pt x="217" y="-190" on="1"/>
        <pt x="177" y="-190" on="1"/>
        <pt x="177" y="-185" on="1"/>
        <pt x="231" y="-5" on="1"/>
        <pt x="164" y="2" on="0"/>
        <pt x="100" y="64" on="0"/>
        <pt x="77" y="204" on="0"/>
        <pt x="77" y="344" on="1"/>
        <pt x="77" y="505" on="0"/>
        <pt x="111" y="648" on="0"/>
        <pt x="204" y="696" on="0"/>
        <pt x="309" y="696" on="1"/>
        <pt x="341" y="696" on="0"/>
        <pt x="414" y="689" on="0"/>
        <pt x="437" y="684" on="1"/>
        <pt x="437" y="652" on="1"/>
        <pt x="382" y="662" on="0"/>
        <pt x="317" y="662" on="1"/>
        <pt x="218" y="662" on="0"/>
        <pt x="139" y="623" on="0"/>
        <pt x="113" y="498" on="0"/>
        <pt x="113" y="344" on="1"/>
        <pt x="113" y="190" on="0"/>
        <pt x="139" y="65" on="0"/>
        <pt x="218" y="26" on="0"/>
        <pt x="317" y="26" on="1"/>
      </contour>
    </TTGlyph>
    <TTGlyph name="Ccircumflex" xMin="77" yMin="-8" xMax="441" yMax="888">
      <component glyphName=".ttfautohint" x="77" y="0" flags="0x0"/>
      <component glyphName="C" x="0" y="0" flags="0x0"/>
      <component glyphName="uni0302.case" x="377" y="0" flags="0x0"/>
    </TTGlyph>
    <TTGlyph name="Cdotaccent" xMin="77" yMin="-8" xMax="441" yMax="876">
      <component glyphName=".ttfautohint" x="77" y="0" flags="0x0"/>
      <component glyphName="C" x="0" y="0" flags="0x0"/>
      <component glyphName="uni0307.case" x="287" y="0" flags="0x0"/>
    </TTGlyph>
    <TTGlyph name="D" xMin="99" yMin="0" xMax="522" yMax="688">
      <contour>
        <pt x="99" y="688" on="1"/>
        <pt x="278" y="688" on="1"/>
        <pt x="396" y="688" on="0"/>
        <pt x="493" y="642" on="0"/>
        <pt x="522" y="508" on="0"/>
        <pt x="522" y="344" on="1"/>
        <pt x="522" y="180" on="0"/>
        <pt x="493" y="46" on="0"/>
        <pt x="396" y="0" on="0"/>
        <pt x="278" y="0" on="1"/>
        <pt x="99" y="0" on="1"/>
      </contour>
      <contour>
        <pt x="265" y="34" on="1"/>
        <pt x="378" y="34" on="0"/>
        <pt x="461" y="65" on="0"/>
        <pt x="486" y="184" on="0"/>
        <pt x="486" y="344" on="1"/>
        <pt x="486" y="503" on="0"/>
        <pt x="460" y="623" on="0"/>
        <pt x="377" y="654" on="0"/>
        <pt x="265" y="654" on="1"/>
        <pt x="135" y="654" on="1"/>
        <pt x="135" y="34" on="1"/>
      </contour>
    </TTGlyph>
    <TTGlyph name="Dcaron" xMin="99" yMin="0" xMax="522" yMax="888">
      <component glyphName=".ttfautohint" x="99" y="0" flags="0x0"/>
      <component glyphName="D" x="0" y="0" flags="0x0"/>
      <component glyphName="uni030C.case" x="431" y="0" flags="0x0"/>
    </TTGlyph>
    <TTGlyph name="Dcroat" xMin="34" yMin="0" xMax="522" yMax="688">
      <component glyphName=".ttfautohint" x="34" y="0" flags="0x0"/>
      <component glyphName="Eth" x="0" y="0" flags="0x0"/>
    </TTGlyph>
    <TTGlyph name="E" xMin="99" yMin="0" xMax="469" yMax="688">
      <contour>
        <pt x="99" y="688" on="1"/>
        <pt x="469" y="688" on="1"/>
        <pt x="469" y="654" on="1"/>
        <pt x="135" y="654" on="1"/>
        <pt x="135" y="365" on="1"/>
        <pt x="428" y="365" on="1"/>
        <pt x="428" y="331" on="1"/>
        <pt x="135" y="331" on="1"/>
        <pt x="135" y="34" on="1"/>
        <pt x="469" y="34" on="1"/>
        <pt x="469" y="0" on="1"/>
        <pt x="99" y="0" on="1"/>
      </contour>
    </TTGlyph>
    <TTGlyph name="Eacute" xMin="99" yMin="0" xMax="469" yMax="888">
      <component glyphName=".ttfautohint" x="99" y="0" flags="0x0"/>
      <component glyphName="E" x="0" y="0" flags="0x0"/>
      <component glyphName="acute" x="249" y="145" flags="0x4"/>
    </TTGlyph>
    <TTGlyph name="Ebreve" xMin="99" yMin="0" xMax="469" yMax="888">
      <component glyphName=".ttfautohint" x="99" y="0" flags="0x0"/>
      <component glyphName="E" x="0" y="0" flags="0x0"/>
      <component glyphName="uni0306.case" x="413" y="0" flags="0x0"/>
    </TTGlyph>
    <TTGlyph name="Ecaron" xMin="99" yMin="0" xMax="469" yMax="888">
      <component glyphName=".ttfautohint" x="99" y="0" flags="0x0"/>
      <component glyphName="E" x="0" y="0" flags="0x0"/>
      <component glyphName="uni030C.case" x="414" y="0" flags="0x0"/>
    </TTGlyph>
    <TTGlyph name="Ecircumflex" xMin="99" yMin="0" xMax="469" yMax="888">
      <component glyphName=".ttfautohint" x="99" y="0" flags="0x0"/>
      <component glyphName="E" x="0" y="0" flags="0x0"/>
      <component glyphName="circumflex" x="157" y="145" flags="0x4"/>
    </TTGlyph>
    <TTGlyph name="Edieresis" xMin="99" yMin="0" xMax="469" yMax="831">
      <component glyphName=".ttfautohint" x="99" y="0" flags="0x0"/>
      <component glyphName="E" x="0" y="0" flags="0x0"/>
      <component glyphName="dieresis" x="158" y="100" flags="0x4"/>
    </TTGlyph>
    <TTGlyph name="Edotaccent" xMin="99" yMin="0" xMax="469" yMax="876">
      <component glyphName=".ttfautohint" x="99" y="0" flags="0x0"/>
      <component glyphName="E" x="0" y="0" flags="0x0"/>
      <component glyphName="uni0307.case" x="325" y="0" flags="0x0"/>
    </TTGlyph>
    <TTGlyph name="Egrave" xMin="99" yMin="0" xMax="469" yMax="888">
      <component glyphName=".ttfautohint" x="99" y="0" flags="0x0"/>
      <component glyphName="E" x="0" y="0" flags="0x0"/>
      <component glyphName="grave" x="171" y="145" flags="0x4"/>
    </TTGlyph>
    <TTGlyph name="Emacron" xMin="99" yMin="0" xMax="469" yMax="887">
      <component glyphName=".ttfautohint" x="99" y="0" flags="0x0"/>
      <component glyphName="E" x="0" y="0" flags="0x0"/>
      <component glyphName="uni0304.case" x="449" y="0" flags="0x0"/>
    </TTGlyph>
    <TTGlyph name="Eng" xMin="99" yMin="-197" xMax="540" yMax="688">
      <contour>
        <pt x="540" y="688" on="1"/>
        <pt x="540" y="-100" on="1"/>
        <pt x="540" y="-145" on="0"/>
        <pt x="514" y="-186" on="0"/>
        <pt x="465" y="-197" on="0"/>
        <pt x="416" y="-197" on="1"/>
        <pt x="416" y="-167" on="1"/>
        <pt x="457" y="-167" on="0"/>
        <pt x="494" y="-157" on="0"/>
        <pt x="505" y="-135" on="0"/>
        <pt x="505" y="-110" on="1"/>
        <pt x="505" y="0" on="1"/>
        <pt x="138" y="613" on="1"/>
        <pt x="134" y="613" on="1"/>
        <pt x="134" y="0" on="1"/>
        <pt x="99" y="0" on="1"/>
        <pt x="99" y="688" on="1"/>
        <pt x="136" y="688" on="1"/>
        <pt x="501" y="77" on="1"/>
        <pt x="505" y="77" on="1"/>
        <pt x="505" y="688" on="1"/>
      </contour>
    </TTGlyph>
    <TTGlyph name="Eogonek" xMin="99" yMin="-196" xMax="469" yMax="688">
      <contour>
        <pt x="404" y="-196" on="0"/>
        <pt x="367" y="-157" on="0"/>
        <pt x="367" y="-126" on="1"/>
        <pt x="367" y="-95" on="0"/>
        <pt x="404" y="-27" on="0"/>
        <pt x="434" y="0" on="1"/>
        <pt x="99" y="0" on="1"/>
        <pt x="99" y="688" on="1"/>
        <pt x="469" y="688" on="1"/>
        <pt x="469" y="654" on="1"/>
        <pt x="135" y="654" on="1"/>
        <pt x="135" y="365" on="1"/>
        <pt x="428" y="365" on="1"/>
        <pt x="428" y="331" on="1"/>
        <pt x="135" y="331" on="1"/>
        <pt x="135" y="34" on="1"/>
        <pt x="469" y="34" on="1"/>
        <pt x="469" y="0" on="1"/>
        <pt x="444" y="-19" on="0"/>
        <pt x="401" y="-90" on="0"/>
        <pt x="401" y="-119" on="1"/>
        <pt x="401" y="-139" on="0"/>
        <pt x="423" y="-164" on="0"/>
        <pt x="448" y="-164" on="1"/>
        <pt x="465" y="-163" on="1"/>
        <pt x="465" y="-195" on="1"/>
        <pt x="456" y="-196" on="0"/>
        <pt x="443" y="-196" on="1"/>
      </contour>
    </TTGlyph>
    <TTGlyph name="Eth" xMin="34" yMin="0" xMax="522" yMax="688">
      <contour>
        <pt x="99" y="331" on="1"/>
        <pt x="34" y="331" on="1"/>
        <pt x="34" y="367" on="1"/>
        <pt x="99" y="367" on="1"/>
        <pt x="99" y="688" on="1"/>
        <pt x="278" y="688" on="1"/>
        <pt x="396" y="688" on="0"/>
        <pt x="493" y="642" on="0"/>
        <pt x="522" y="508" on="0"/>
        <pt x="522" y="344" on="1"/>
        <pt x="522" y="180" on="0"/>
        <pt x="493" y="46" on="0"/>
        <pt x="396" y="0" on="0"/>
        <pt x="278" y="0" on="1"/>
        <pt x="99" y="0" on="1"/>
      </contour>
      <contour>
        <pt x="378" y="34" on="0"/>
        <pt x="461" y="65" on="0"/>
        <pt x="486" y="184" on="0"/>
        <pt x="486" y="344" on="1"/>
        <pt x="486" y="503" on="0"/>
        <pt x="460" y="623" on="0"/>
        <pt x="377" y="654" on="0"/>
        <pt x="265" y="654" on="1"/>
        <pt x="135" y="654" on="1"/>
        <pt x="135" y="367" on="1"/>
        <pt x="259" y="367" on="1"/>
        <pt x="259" y="331" on="1"/>
        <pt x="135" y="331" on="1"/>
        <pt x="135" y="34" on="1"/>
        <pt x="265" y="34" on="1"/>
      </contour>
    </TTGlyph>
    <TTGlyph name="Euro" xMin="41" yMin="-8" xMax="483" yMax="696">
      <contour>
        <pt x="256" y="-8" on="0"/>
        <pt x="165" y="27" on="0"/>
        <pt x="124" y="135" on="0"/>
        <pt x="120" y="252" on="1"/>
        <pt x="41" y="252" on="1"/>
        <pt x="41" y="286" on="1"/>
        <pt x="119" y="286" on="1"/>
        <pt x="119" y="405" on="1"/>
        <pt x="41" y="405" on="1"/>
        <pt x="41" y="439" on="1"/>
        <pt x="120" y="439" on="1"/>
        <pt x="125" y="553" on="0"/>
        <pt x="166" y="660" on="0"/>
        <pt x="257" y="696" on="0"/>
        <pt x="351" y="696" on="1"/>
        <pt x="383" y="696" on="0"/>
        <pt x="456" y="689" on="0"/>
        <pt x="479" y="684" on="1"/>
        <pt x="479" y="652" on="1"/>
        <pt x="424" y="662" on="0"/>
        <pt x="359" y="662" on="1"/>
        <pt x="271" y="662" on="0"/>
        <pt x="192" y="633" on="0"/>
        <pt x="159" y="542" on="0"/>
        <pt x="156" y="439" on="1"/>
        <pt x="435" y="439" on="1"/>
        <pt x="435" y="405" on="1"/>
        <pt x="155" y="405" on="1"/>
        <pt x="155" y="286" on="1"/>
        <pt x="435" y="286" on="1"/>
        <pt x="435" y="252" on="1"/>
        <pt x="156" y="252" on="1"/>
        <pt x="159" y="148" on="0"/>
        <pt x="192" y="55" on="0"/>
        <pt x="271" y="26" on="0"/>
        <pt x="359" y="26" on="1"/>
        <pt x="426" y="26" on="0"/>
        <pt x="483" y="36" on="1"/>
        <pt x="483" y="2" on="1"/>
        <pt x="425" y="-8" on="0"/>
        <pt x="351" y="-8" on="1"/>
      </contour>
    </TTGlyph>
    <TTGlyph name="F" xMin="99" yMin="0" xMax="451" yMax="688">
      <contour>
        <pt x="99" y="688" on="1"/>
        <pt x="451" y="688" on="1"/>
        <pt x="451" y="654" on="1"/>
        <pt x="135" y="654" on="1"/>
        <pt x="135" y="351" on="1"/>
        <pt x="419" y="351" on="1"/>
        <pt x="419" y="317" on="1"/>
        <pt x="135" y="317" on="1"/>
        <pt x="135" y="0" on="1"/>
        <pt x="99" y="0" on="1"/>
      </contour>
    </TTGlyph>
    <TTGlyph name="G" xMin="77" yMin="-8" xMax="505" yMax="696">
      <contour>
        <pt x="305" y="315" on="1"/>
        <pt x="305" y="349" on="1"/>
        <pt x="505" y="349" on="1"/>
        <pt x="505" y="9" on="1"/>
        <pt x="463" y="1" on="0"/>
        <pt x="361" y="-8" on="0"/>
        <pt x="322" y="-8" on="1"/>
        <pt x="214" y="-8" on="0"/>
        <pt x="115" y="40" on="0"/>
        <pt x="77" y="185" on="0"/>
        <pt x="77" y="344" on="1"/>
        <pt x="77" y="502" on="0"/>
        <pt x="115" y="647" on="0"/>
        <pt x="214" y="696" on="0"/>
        <pt x="322" y="696" on="1"/>
        <pt x="365" y="696" on="0"/>
        <pt x="468" y="686" on="0"/>
        <pt x="503" y="678" on="1"/>
        <pt x="503" y="646" on="1"/>
        <pt x="464" y="653" on="0"/>
        <pt x="376" y="662" on="0"/>
        <pt x="348" y="662" on="1"/>
        <pt x="238" y="662" on="0"/>
        <pt x="150" y="630" on="0"/>
        <pt x="113" y="501" on="0"/>
        <pt x="113" y="344" on="1"/>
        <pt x="113" y="198" on="0"/>
        <pt x="140" y="71" on="0"/>
        <pt x="224" y="26" on="0"/>
        <pt x="321" y="26" on="1"/>
        <pt x="352" y="26" on="0"/>
        <pt x="440" y="33" on="0"/>
        <pt x="469" y="38" on="1"/>
        <pt x="469" y="315" on="1"/>
      </contour>
    </TTGlyph>
    <TTGlyph name="G.ss01" xMin="77" yMin="-8" xMax="531" yMax="696">
      <contour>
        <pt x="212" y="-8" on="0"/>
        <pt x="114" y="40" on="0"/>
        <pt x="77" y="184" on="0"/>
        <pt x="77" y="344" on="1"/>
        <pt x="77" y="504" on="0"/>
        <pt x="116" y="648" on="0"/>
        <pt x="218" y="696" on="0"/>
        <pt x="329" y="696" on="1"/>
        <pt x="373" y="696" on="0"/>
        <pt x="476" y="686" on="0"/>
        <pt x="511" y="678" on="1"/>
        <pt x="511" y="646" on="1"/>
        <pt x="472" y="653" on="0"/>
        <pt x="383" y="662" on="0"/>
        <pt x="354" y="662" on="1"/>
        <pt x="241" y="662" on="0"/>
        <pt x="150" y="630" on="0"/>
        <pt x="113" y="501" on="0"/>
        <pt x="113" y="344" on="1"/>
        <pt x="113" y="196" on="0"/>
        <pt x="140" y="70" on="0"/>
        <pt x="224" y="26" on="0"/>
        <pt x="321" y="26" on="1"/>
        <pt x="408" y="26" on="0"/>
        <pt x="476" y="60" on="0"/>
        <pt x="495" y="165" on="0"/>
        <pt x="495" y="301" on="1"/>
        <pt x="495" y="324" on="1"/>
        <pt x="333" y="324" on="1"/>
        <pt x="333" y="358" on="1"/>
        <pt x="531" y="358" on="1"/>
        <pt x="531" y="299" on="1"/>
        <pt x="531" y="156" on="0"/>
        <pt x="508" y="39" on="0"/>
        <pt x="423" y="-8" on="0"/>
        <pt x="321" y="-8" on="1"/>
      </contour>
    </TTGlyph>
    <TTGlyph name="G_tilde.loclGUA" xMin="77" yMin="-8" xMax="505" yMax="888">
      <component glyphName=".ttfautohint" x="77" y="0" flags="0x0"/>
      <component glyphName="G" x="0" y="0" flags="0x0"/>
      <component glyphName="tildecomb.case" x="460" y="0" flags="0x0"/>
    </TTGlyph>
    <TTGlyph name="Gbreve" xMin="77" yMin="-8" xMax="505" yMax="888">
      <component glyphName=".ttfautohint" x="77" y="0" flags="0x0"/>
      <component glyphName="G" x="0" y="0" flags="0x0"/>
      <component glyphName="uni0306.case" x="424" y="0" flags="0x0"/>
    </TTGlyph>
    <TTGlyph name="Gbreve.ss01" xMin="77" yMin="-8" xMax="531" yMax="888">
      <component glyphName=".ttfautohint" x="77" y="0" flags="0x0"/>
      <component glyphName="G.ss01" x="0" y="0" flags="0x0"/>
      <component glyphName="uni0306.case" x="431" y="0" flags="0x0"/>
    </TTGlyph>
    <TTGlyph name="Gcaron" xMin="77" yMin="-8" xMax="505" yMax="888">
      <component glyphName=".ttfautohint" x="77" y="0" flags="0x0"/>
      <component glyphName="G" x="0" y="0" flags="0x0"/>
      <component glyphName="uni030C.case" x="425" y="0" flags="0x0"/>
    </TTGlyph>
    <TTGlyph name="Gcaron.ss01" xMin="77" yMin="-8" xMax="531" yMax="888">
      <component glyphName=".ttfautohint" x="77" y="0" flags="0x0"/>
      <component glyphName="G.ss01" x="0" y="0" flags="0x0"/>
      <component glyphName="uni030C.case" x="432" y="0" flags="0x0"/>
    </TTGlyph>
    <TTGlyph name="Gcircumflex" xMin="77" yMin="-8" xMax="505" yMax="888">
      <component glyphName=".ttfautohint" x="77" y="0" flags="0x0"/>
      <component glyphName="G" x="0" y="0" flags="0x0"/>
      <component glyphName="uni0302.case" x="425" y="0" flags="0x0"/>
    </TTGlyph>
    <TTGlyph name="Gcircumflex.ss01" xMin="77" yMin="-8" xMax="531" yMax="888">
      <component glyphName=".ttfautohint" x="77" y="0" flags="0x0"/>
      <component glyphName="G.ss01" x="0" y="0" flags="0x0"/>
      <component glyphName="uni0302.case" x="432" y="0" flags="0x0"/>
    </TTGlyph>
    <TTGlyph name="Gcommaaccent" xMin="77" yMin="-228" xMax="505" yMax="696">
      <component glyphName=".ttfautohint" x="77" y="0" flags="0x0"/>
      <component glyphName="G" x="0" y="0" flags="0x0"/>
      <component glyphName="uni0326" x="386" y="0" flags="0x0"/>
    </TTGlyph>
    <TTGlyph name="Gcommaaccent.ss01" xMin="77" yMin="-228" xMax="531" yMax="696">
      <component glyphName=".ttfautohint" x="77" y="0" flags="0x0"/>
      <component glyphName="G.ss01" x="0" y="0" flags="0x0"/>
      <component glyphName="uni0326" x="394" y="0" flags="0x0"/>
    </TTGlyph>
    <TTGlyph name="Gdotaccent" xMin="77" yMin="-8" xMax="505" yMax="876">
      <component glyphName=".ttfautohint" x="77" y="0" flags="0x0"/>
      <component glyphName="G" x="0" y="0" flags="0x0"/>
      <component glyphName="uni0307.case" x="335" y="0" flags="0x0"/>
    </TTGlyph>
    <TTGlyph name="Gdotaccent.ss01" xMin="77" yMin="-8" xMax="531" yMax="876">
      <component glyphName=".ttfautohint" x="77" y="0" flags="0x0"/>
      <component glyphName="G.ss01" x="0" y="0" flags="0x0"/>
      <component glyphName="uni0307.case" x="343" y="0" flags="0x0"/>
    </TTGlyph>
    <TTGlyph name="Gtilde.loclGUA.ss01" xMin="77" yMin="-8" xMax="531" yMax="888">
      <component glyphName=".ttfautohint" x="77" y="0" flags="0x0"/>
      <component glyphName="G.ss01" x="0" y="0" flags="0x0"/>
      <component glyphName="tildecomb.case" x="467" y="0" flags="0x0"/>
    </TTGlyph>
    <TTGlyph name="H" xMin="99" yMin="0" xMax="540" yMax="688">
      <contour>
        <pt x="504" y="331" on="1"/>
        <pt x="135" y="331" on="1"/>
        <pt x="135" y="0" on="1"/>
        <pt x="99" y="0" on="1"/>
        <pt x="99" y="688" on="1"/>
        <pt x="135" y="688" on="1"/>
        <pt x="135" y="365" on="1"/>
        <pt x="504" y="365" on="1"/>
        <pt x="504" y="688" on="1"/>
        <pt x="540" y="688" on="1"/>
        <pt x="540" y="0" on="1"/>
        <pt x="504" y="0" on="1"/>
      </contour>
    </TTGlyph>
    <TTGlyph name="Hbar" xMin="99" yMin="0" xMax="540" yMax="688">
      <contour>
        <pt x="540" y="688" on="1"/>
        <pt x="540" y="0" on="1"/>
        <pt x="504" y="0" on="1"/>
        <pt x="504" y="311" on="1"/>
        <pt x="135" y="311" on="1"/>
        <pt x="135" y="0" on="1"/>
        <pt x="99" y="0" on="1"/>
        <pt x="99" y="688" on="1"/>
        <pt x="135" y="688" on="1"/>
        <pt x="135" y="530" on="1"/>
        <pt x="504" y="530" on="1"/>
        <pt x="504" y="688" on="1"/>
      </contour>
      <contour>
        <pt x="504" y="345" on="1"/>
        <pt x="504" y="494" on="1"/>
        <pt x="135" y="494" on="1"/>
        <pt x="135" y="345" on="1"/>
      </contour>
    </TTGlyph>
    <TTGlyph name="Hcircumflex" xMin="99" yMin="0" xMax="540" yMax="888">
      <component glyphName=".ttfautohint" x="99" y="0" flags="0x0"/>
      <component glyphName="H" x="0" y="0" flags="0x0"/>
      <component glyphName="uni0302.case" x="450" y="0" flags="0x0"/>
    </TTGlyph>
    <TTGlyph name="I" xMin="100" yMin="0" xMax="136" yMax="688">
      <contour>
        <pt x="100" y="688" on="1"/>
        <pt x="136" y="688" on="1"/>
        <pt x="136" y="0" on="1"/>
        <pt x="100" y="0" on="1"/>
      </contour>
    </TTGlyph>
    <TTGlyph name="IJ" xMin="100" yMin="0" xMax="422" yMax="688">
      <component glyphName=".ttfautohint" x="100" y="0" flags="0x0"/>
      <component glyphName="I" x="0" y="0" flags="0x0"/>
      <component glyphName="J" x="236" y="0" flags="0x0"/>
    </TTGlyph>
    <TTGlyph name="Iacute" xMin="94" yMin="0" xMax="221" yMax="888">
      <component glyphName=".ttfautohint" x="94" y="0" flags="0x0"/>
      <component glyphName="I" x="0" y="0" flags="0x0"/>
      <component glyphName="acute" x="81" y="145" flags="0x4"/>
    </TTGlyph>
    <TTGlyph name="Iacute_J.loclNLD" xMin="100" yMin="0" xMax="512" yMax="888">
      <component glyphName=".ttfautohint" x="100" y="0" flags="0x0"/>
      <component glyphName="I" x="0" y="0" flags="0x0"/>
      <component glyphName="acutecomb.case" x="241" y="0" flags="0x0"/>
      <component glyphName="J" x="236" y="0" flags="0x0"/>
      <component glyphName="acutecomb.case" x="526" y="0" flags="0x0"/>
    </TTGlyph>
    <TTGlyph name="Ibreve" xMin="1" yMin="0" xMax="234" yMax="888">
      <component glyphName=".ttfautohint" x="1" y="0" flags="0x0"/>
      <component glyphName="I" x="0" y="0" flags="0x0"/>
      <component glyphName="uni0306.case" x="248" y="0" flags="0x0"/>
    </TTGlyph>
    <TTGlyph name="Icircumflex" xMin="1" yMin="0" xMax="235" yMax="888">
      <component glyphName=".ttfautohint" x="1" y="0" flags="0x0"/>
      <component glyphName="I" x="0" y="0" flags="0x0"/>
      <component glyphName="circumflex" x="-12" y="145" flags="0x4"/>
    </TTGlyph>
    <TTGlyph name="Idieresis" xMin="9" yMin="0" xMax="228" yMax="831">
      <component glyphName=".ttfautohint" x="9" y="0" flags="0x0"/>
      <component glyphName="I" x="0" y="0" flags="0x0"/>
      <component glyphName="dieresis" x="-13" y="100" flags="0x4"/>
    </TTGlyph>
    <TTGlyph name="Idotaccent" xMin="96" yMin="0" xMax="139" yMax="876">
      <component glyphName=".ttfautohint" x="96" y="0" flags="0x0"/>
      <component glyphName="I" x="0" y="0" flags="0x0"/>
      <component glyphName="uni0307.case" x="159" y="0" flags="0x0"/>
    </TTGlyph>
    <TTGlyph name="Igrave" xMin="16" yMin="0" xMax="143" yMax="888">
      <component glyphName=".ttfautohint" x="16" y="0" flags="0x0"/>
      <component glyphName="I" x="0" y="0" flags="0x0"/>
      <component glyphName="grave" x="3" y="145" flags="0x4"/>
    </TTGlyph>
    <TTGlyph name="Imacron" xMin="15" yMin="0" xMax="221" yMax="887">
      <component glyphName=".ttfautohint" x="15" y="0" flags="0x0"/>
      <component glyphName="I" x="0" y="0" flags="0x0"/>
      <component glyphName="uni0304.case" x="284" y="0" flags="0x0"/>
    </TTGlyph>
    <TTGlyph name="Iogonek" xMin="39" yMin="-196" xMax="137" yMax="688">
      <contour>
        <pt x="76" y="-196" on="0"/>
        <pt x="39" y="-157" on="0"/>
        <pt x="39" y="-124" on="1"/>
        <pt x="39" y="-95" on="0"/>
        <pt x="73" y="-27" on="0"/>
        <pt x="101" y="0" on="1"/>
        <pt x="100" y="0" on="1"/>
        <pt x="100" y="688" on="1"/>
        <pt x="136" y="688" on="1"/>
        <pt x="136" y="0" on="1"/>
        <pt x="114" y="-19" on="0"/>
        <pt x="73" y="-90" on="0"/>
        <pt x="73" y="-118" on="1"/>
        <pt x="73" y="-164" on="0"/>
        <pt x="120" y="-164" on="1"/>
        <pt x="137" y="-163" on="1"/>
        <pt x="137" y="-195" on="1"/>
        <pt x="128" y="-196" on="0"/>
        <pt x="115" y="-196" on="1"/>
      </contour>
    </TTGlyph>
    <TTGlyph name="Itilde" xMin="-35" yMin="0" xMax="270" yMax="888">
      <component glyphName=".ttfautohint" x="0" y="0" flags="0x0"/>
      <component glyphName="I" x="0" y="0" flags="0x0"/>
      <component glyphName="tildecomb.case" x="284" y="0" flags="0x0"/>
    </TTGlyph>
    <TTGlyph name="J" xMin="30" yMin="0" xMax="186" yMax="688">
      <contour>
        <pt x="94" y="36" on="0"/>
        <pt x="138" y="57" on="0"/>
        <pt x="150" y="131" on="0"/>
        <pt x="150" y="239" on="1"/>
        <pt x="150" y="688" on="1"/>
        <pt x="186" y="688" on="1"/>
        <pt x="186" y="251" on="1"/>
        <pt x="186" y="122" on="0"/>
        <pt x="169" y="29" on="0"/>
        <pt x="111" y="2" on="0"/>
        <pt x="30" y="0" on="1"/>
        <pt x="30" y="34" on="1"/>
      </contour>
    </TTGlyph>
    <TTGlyph name="Jcircumflex" xMin="30" yMin="0" xMax="284" yMax="888">
      <component glyphName=".ttfautohint" x="30" y="0" flags="0x0"/>
      <component glyphName="J" x="0" y="0" flags="0x0"/>
      <component glyphName="uni0302.case" x="298" y="0" flags="0x0"/>
    </TTGlyph>
    <TTGlyph name="K" xMin="99" yMin="0" xMax="542" yMax="688">
      <contour>
        <pt x="278" y="332" on="1"/>
        <pt x="135" y="332" on="1"/>
        <pt x="135" y="0" on="1"/>
        <pt x="99" y="0" on="1"/>
        <pt x="99" y="688" on="1"/>
        <pt x="135" y="688" on="1"/>
        <pt x="135" y="366" on="1"/>
        <pt x="278" y="366" on="1"/>
        <pt x="498" y="688" on="1"/>
        <pt x="539" y="688" on="1"/>
        <pt x="309" y="349" on="1"/>
        <pt x="542" y="0" on="1"/>
        <pt x="500" y="0" on="1"/>
      </contour>
    </TTGlyph>
    <TTGlyph name="Kcommaaccent" xMin="99" yMin="-228" xMax="542" yMax="688">
      <component glyphName=".ttfautohint" x="99" y="0" flags="0x0"/>
      <component glyphName="K" x="0" y="0" flags="0x0"/>
      <component glyphName="uni0326" x="379" y="0" flags="0x0"/>
    </TTGlyph>
    <TTGlyph name="L" xMin="99" yMin="0" xMax="434" yMax="688">
      <contour>
        <pt x="99" y="688" on="1"/>
        <pt x="135" y="688" on="1"/>
        <pt x="135" y="34" on="1"/>
        <pt x="434" y="34" on="1"/>
        <pt x="434" y="0" on="1"/>
        <pt x="99" y="0" on="1"/>
      </contour>
    </TTGlyph>
    <TTGlyph name="Lacute" xMin="98" yMin="0" xMax="434" yMax="888">
      <component glyphName=".ttfautohint" x="98" y="0" flags="0x0"/>
      <component glyphName="L" x="0" y="0" flags="0x0"/>
      <component glyphName="acutecomb.case" x="239" y="0" flags="0x0"/>
    </TTGlyph>
    <TTGlyph name="Lcaron" xMin="99" yMin="0" xMax="434" yMax="688">
      <component glyphName=".ttfautohint" x="99" y="0" flags="0x0"/>
      <component glyphName="L" x="0" y="0" flags="0x0"/>
      <component glyphName="caron.loclCSY" x="230" y="0" flags="0x0"/>
    </TTGlyph>
    <TTGlyph name="Lcommaaccent" xMin="99" yMin="-228" xMax="434" yMax="688">
      <component glyphName=".ttfautohint" x="99" y="0" flags="0x0"/>
      <component glyphName="L" x="0" y="0" flags="0x0"/>
      <component glyphName="uni0326" x="338" y="0" flags="0x0"/>
    </TTGlyph>
    <TTGlyph name="Ldot" xMin="99" yMin="0" xMax="434" yMax="688">
      <component glyphName=".ttfautohint" x="99" y="0" flags="0x0"/>
      <component glyphName="L" x="0" y="0" flags="0x0"/>
      <component glyphName="periodcentered" x="270" y="60" flags="0x4"/>
    </TTGlyph>
    <TTGlyph name="Lslash" xMin="37" yMin="0" xMax="434" yMax="688">
      <contour>
        <pt x="434" y="34" on="1"/>
        <pt x="434" y="0" on="1"/>
        <pt x="99" y="0" on="1"/>
        <pt x="99" y="304" on="1"/>
        <pt x="37" y="281" on="1"/>
        <pt x="37" y="315" on="1"/>
        <pt x="99" y="338" on="1"/>
        <pt x="99" y="688" on="1"/>
        <pt x="135" y="688" on="1"/>
        <pt x="135" y="351" on="1"/>
        <pt x="321" y="419" on="1"/>
        <pt x="321" y="385" on="1"/>
        <pt x="135" y="317" on="1"/>
        <pt x="135" y="34" on="1"/>
      </contour>
    </TTGlyph>
    <TTGlyph name="M" xMin="99" yMin="0" xMax="694" yMax="688">
      <contour>
        <pt x="658" y="610" on="1"/>
        <pt x="654" y="610" on="1"/>
        <pt x="413" y="0" on="1"/>
        <pt x="378" y="0" on="1"/>
        <pt x="138" y="610" on="1"/>
        <pt x="134" y="610" on="1"/>
        <pt x="134" y="0" on="1"/>
        <pt x="99" y="0" on="1"/>
        <pt x="99" y="688" on="1"/>
        <pt x="147" y="688" on="1"/>
        <pt x="394" y="60" on="1"/>
        <pt x="399" y="60" on="1"/>
        <pt x="647" y="688" on="1"/>
        <pt x="694" y="688" on="1"/>
        <pt x="694" y="0" on="1"/>
        <pt x="658" y="0" on="1"/>
      </contour>
    </TTGlyph>
    <TTGlyph name="N" xMin="99" yMin="0" xMax="540" yMax="688">
      <contour>
        <pt x="138" y="613" on="1"/>
        <pt x="134" y="613" on="1"/>
        <pt x="134" y="0" on="1"/>
        <pt x="99" y="0" on="1"/>
        <pt x="99" y="688" on="1"/>
        <pt x="136" y="688" on="1"/>
        <pt x="501" y="75" on="1"/>
        <pt x="505" y="75" on="1"/>
        <pt x="505" y="688" on="1"/>
        <pt x="540" y="688" on="1"/>
        <pt x="540" y="0" on="1"/>
        <pt x="502" y="0" on="1"/>
      </contour>
    </TTGlyph>
    <TTGlyph name="Nacute" xMin="99" yMin="0" xMax="540" yMax="888">
      <component glyphName=".ttfautohint" x="99" y="0" flags="0x0"/>
      <component glyphName="N" x="0" y="0" flags="0x0"/>
      <component glyphName="acutecomb.case" x="442" y="0" flags="0x0"/>
    </TTGlyph>
    <TTGlyph name="Nacute.loclPLK" xMin="99" yMin="0" xMax="540" yMax="888">
      <component glyphName=".ttfautohint" x="99" y="0" flags="0x0"/>
      <component glyphName="N" x="0" y="0" flags="0x0"/>
      <component glyphName="acute.case.loclPLK" x="288" y="0" flags="0x0"/>
    </TTGlyph>
    <TTGlyph name="Ncaron" xMin="99" yMin="0" xMax="540" yMax="888">
      <component glyphName=".ttfautohint" x="99" y="0" flags="0x0"/>
      <component glyphName="N" x="0" y="0" flags="0x0"/>
      <component glyphName="uni030C.case" x="450" y="0" flags="0x0"/>
    </TTGlyph>
    <TTGlyph name="Ncommaaccent" xMin="99" yMin="-228" xMax="540" yMax="688">
      <component glyphName=".ttfautohint" x="99" y="0" flags="0x0"/>
      <component glyphName="N" x="0" y="0" flags="0x0"/>
      <component glyphName="uni0326" x="411" y="0" flags="0x0"/>
    </TTGlyph>
    <TTGlyph name="Ntilde" xMin="99" yMin="0" xMax="540" yMax="856">
      <component glyphName=".ttfautohint" x="99" y="0" flags="0x0"/>
      <component glyphName="N" x="0" y="0" flags="0x0"/>
      <component glyphName="tilde" x="156" y="113" flags="0x4"/>
    </TTGlyph>
    <TTGlyph name="O" xMin="77" yMin="-8" xMax="551" yMax="696">
      <contour>
        <pt x="199" y="-8" on="0"/>
        <pt x="105" y="39" on="0"/>
        <pt x="77" y="176" on="0"/>
        <pt x="77" y="344" on="1"/>
        <pt x="77" y="512" on="0"/>
        <pt x="105" y="649" on="0"/>
        <pt x="199" y="696" on="0"/>
        <pt x="314" y="696" on="1"/>
        <pt x="429" y="696" on="0"/>
        <pt x="523" y="649" on="0"/>
        <pt x="551" y="512" on="0"/>
        <pt x="551" y="344" on="1"/>
        <pt x="551" y="176" on="0"/>
        <pt x="523" y="39" on="0"/>
        <pt x="429" y="-8" on="0"/>
        <pt x="314" y="-8" on="1"/>
      </contour>
      <contour>
        <pt x="415" y="26" on="0"/>
        <pt x="490" y="58" on="0"/>
        <pt x="515" y="182" on="0"/>
        <pt x="515" y="344" on="1"/>
        <pt x="515" y="506" on="0"/>
        <pt x="490" y="630" on="0"/>
        <pt x="415" y="662" on="0"/>
        <pt x="314" y="662" on="1"/>
        <pt x="214" y="662" on="0"/>
        <pt x="138" y="630" on="0"/>
        <pt x="113" y="506" on="0"/>
        <pt x="113" y="344" on="1"/>
        <pt x="113" y="182" on="0"/>
        <pt x="138" y="58" on="0"/>
        <pt x="214" y="26" on="0"/>
        <pt x="314" y="26" on="1"/>
      </contour>
    </TTGlyph>
    <TTGlyph name="OE" xMin="77" yMin="0" xMax="872" yMax="688">
      <contour>
        <pt x="199" y="0" on="0"/>
        <pt x="105" y="46" on="0"/>
        <pt x="77" y="180" on="0"/>
        <pt x="77" y="344" on="1"/>
        <pt x="77" y="508" on="0"/>
        <pt x="105" y="642" on="0"/>
        <pt x="199" y="688" on="0"/>
        <pt x="314" y="688" on="1"/>
        <pt x="872" y="688" on="1"/>
        <pt x="872" y="654" on="1"/>
        <pt x="551" y="654" on="1"/>
        <pt x="511" y="654" on="0"/>
        <pt x="485" y="658" on="1"/>
        <pt x="513" y="639" on="0"/>
        <pt x="541" y="568" on="0"/>
        <pt x="550" y="458" on="0"/>
        <pt x="551" y="365" on="1"/>
        <pt x="831" y="365" on="1"/>
        <pt x="831" y="331" on="1"/>
        <pt x="551" y="331" on="1"/>
        <pt x="550" y="233" on="0"/>
        <pt x="541" y="122" on="0"/>
        <pt x="513" y="49" on="0"/>
        <pt x="485" y="30" on="1"/>
        <pt x="511" y="34" on="0"/>
        <pt x="551" y="34" on="1"/>
        <pt x="872" y="34" on="1"/>
        <pt x="872" y="0" on="1"/>
        <pt x="314" y="0" on="1"/>
      </contour>
      <contour>
        <pt x="415" y="34" on="0"/>
        <pt x="490" y="65" on="0"/>
        <pt x="515" y="186" on="0"/>
        <pt x="515" y="344" on="1"/>
        <pt x="515" y="502" on="0"/>
        <pt x="490" y="623" on="0"/>
        <pt x="415" y="654" on="0"/>
        <pt x="314" y="654" on="1"/>
        <pt x="214" y="654" on="0"/>
        <pt x="138" y="622" on="0"/>
        <pt x="113" y="502" on="0"/>
        <pt x="113" y="344" on="1"/>
        <pt x="113" y="186" on="0"/>
        <pt x="138" y="66" on="0"/>
        <pt x="214" y="34" on="0"/>
        <pt x="314" y="34" on="1"/>
      </contour>
    </TTGlyph>
    <TTGlyph name="Oacute" xMin="77" yMin="-8" xMax="551" yMax="888">
      <component glyphName=".ttfautohint" x="77" y="0" flags="0x0"/>
      <component glyphName="O" x="0" y="0" flags="0x0"/>
      <component glyphName="acute" x="280" y="145" flags="0x4"/>
    </TTGlyph>
    <TTGlyph name="Oacute.loclPLK" xMin="77" yMin="-8" xMax="551" yMax="888">
      <component glyphName=".ttfautohint" x="77" y="0" flags="0x0"/>
      <component glyphName="O" x="0" y="0" flags="0x0"/>
      <component glyphName="acute.case.loclPLK" x="283" y="0" flags="0x0"/>
    </TTGlyph>
    <TTGlyph name="Obreve" xMin="77" yMin="-8" xMax="551" yMax="888">
      <component glyphName=".ttfautohint" x="77" y="0" flags="0x0"/>
      <component glyphName="O" x="0" y="0" flags="0x0"/>
      <component glyphName="uni0306.case" x="444" y="0" flags="0x0"/>
    </TTGlyph>
    <TTGlyph name="Ocircumflex" xMin="77" yMin="-8" xMax="551" yMax="888">
      <component glyphName=".ttfautohint" x="77" y="0" flags="0x0"/>
      <component glyphName="O" x="0" y="0" flags="0x0"/>
      <component glyphName="circumflex" x="184" y="145" flags="0x4"/>
    </TTGlyph>
    <TTGlyph name="Odieresis" xMin="77" yMin="-8" xMax="551" yMax="831">
      <component glyphName=".ttfautohint" x="77" y="0" flags="0x0"/>
      <component glyphName="O" x="0" y="0" flags="0x0"/>
      <component glyphName="dieresis" x="182" y="100" flags="0x4"/>
    </TTGlyph>
    <TTGlyph name="Ograve" xMin="77" yMin="-8" xMax="551" yMax="888">
      <component glyphName=".ttfautohint" x="77" y="0" flags="0x0"/>
      <component glyphName="O" x="0" y="0" flags="0x0"/>
      <component glyphName="grave" x="191" y="145" flags="0x4"/>
    </TTGlyph>
    <TTGlyph name="Ohorn" xMin="77" yMin="-8" xMax="558" yMax="786">
      <contour>
        <pt x="558" y="703" on="0"/>
        <pt x="532" y="663" on="0"/>
        <pt x="494" y="660" on="1"/>
        <pt x="519" y="639" on="0"/>
        <pt x="543" y="564" on="0"/>
        <pt x="551" y="447" on="0"/>
        <pt x="551" y="344" on="1"/>
        <pt x="551" y="176" on="0"/>
        <pt x="523" y="39" on="0"/>
        <pt x="429" y="-8" on="0"/>
        <pt x="314" y="-8" on="1"/>
        <pt x="199" y="-8" on="0"/>
        <pt x="105" y="39" on="0"/>
        <pt x="77" y="176" on="0"/>
        <pt x="77" y="344" on="1"/>
        <pt x="77" y="512" on="0"/>
        <pt x="105" y="649" on="0"/>
        <pt x="199" y="696" on="0"/>
        <pt x="314" y="696" on="1"/>
        <pt x="389" y="696" on="0"/>
        <pt x="430" y="688" on="1"/>
        <pt x="478" y="688" on="1"/>
        <pt x="509" y="688" on="0"/>
        <pt x="526" y="712" on="0"/>
        <pt x="526" y="749" on="1"/>
        <pt x="526" y="786" on="1"/>
        <pt x="558" y="786" on="1"/>
        <pt x="558" y="756" on="1"/>
      </contour>
      <contour>
        <pt x="515" y="506" on="0"/>
        <pt x="490" y="630" on="0"/>
        <pt x="415" y="662" on="0"/>
        <pt x="314" y="662" on="1"/>
        <pt x="214" y="662" on="0"/>
        <pt x="138" y="630" on="0"/>
        <pt x="113" y="506" on="0"/>
        <pt x="113" y="344" on="1"/>
        <pt x="113" y="182" on="0"/>
        <pt x="138" y="58" on="0"/>
        <pt x="214" y="26" on="0"/>
        <pt x="314" y="26" on="1"/>
        <pt x="415" y="26" on="0"/>
        <pt x="490" y="58" on="0"/>
        <pt x="515" y="182" on="0"/>
        <pt x="515" y="344" on="1"/>
      </contour>
    </TTGlyph>
    <TTGlyph name="Ohungarumlaut" xMin="77" yMin="-8" xMax="551" yMax="884">
      <component glyphName=".ttfautohint" x="77" y="0" flags="0x0"/>
      <component glyphName="O" x="0" y="0" flags="0x0"/>
      <component glyphName="uni030B.case" x="530" y="0" flags="0x0"/>
    </TTGlyph>
    <TTGlyph name="Omacron" xMin="77" yMin="-8" xMax="551" yMax="887">
      <component glyphName=".ttfautohint" x="77" y="0" flags="0x0"/>
      <component glyphName="O" x="0" y="0" flags="0x0"/>
      <component glyphName="uni0304.case" x="480" y="0" flags="0x0"/>
    </TTGlyph>
    <TTGlyph name="Oslash" xMin="77" yMin="-55" xMax="551" yMax="743">
      <contour>
        <pt x="502" y="653" on="1"/>
        <pt x="533" y="621" on="0"/>
        <pt x="551" y="488" on="0"/>
        <pt x="551" y="344" on="1"/>
        <pt x="551" y="176" on="0"/>
        <pt x="523" y="39" on="0"/>
        <pt x="429" y="-8" on="0"/>
        <pt x="314" y="-8" on="1"/>
        <pt x="254" y="-8" on="0"/>
        <pt x="177" y="2" on="0"/>
        <pt x="152" y="16" on="1"/>
        <pt x="113" y="-55" on="1"/>
        <pt x="77" y="-55" on="1"/>
        <pt x="126" y="35" on="1"/>
        <pt x="95" y="67" on="0"/>
        <pt x="77" y="200" on="0"/>
        <pt x="77" y="344" on="1"/>
        <pt x="77" y="512" on="0"/>
        <pt x="105" y="649" on="0"/>
        <pt x="199" y="696" on="0"/>
        <pt x="314" y="696" on="1"/>
        <pt x="373" y="696" on="0"/>
        <pt x="450" y="686" on="0"/>
        <pt x="476" y="673" on="1"/>
        <pt x="514" y="743" on="1"/>
        <pt x="551" y="743" on="1"/>
      </contour>
      <contour>
        <pt x="113" y="217" on="0"/>
        <pt x="125" y="96" on="0"/>
        <pt x="144" y="68" on="1"/>
        <pt x="460" y="643" on="1"/>
        <pt x="439" y="655" on="0"/>
        <pt x="376" y="662" on="0"/>
        <pt x="314" y="662" on="1"/>
        <pt x="214" y="662" on="0"/>
        <pt x="138" y="630" on="0"/>
        <pt x="113" y="506" on="0"/>
        <pt x="113" y="344" on="1"/>
      </contour>
      <contour>
        <pt x="515" y="471" on="0"/>
        <pt x="503" y="592" on="0"/>
        <pt x="484" y="620" on="1"/>
        <pt x="168" y="45" on="1"/>
        <pt x="189" y="33" on="0"/>
        <pt x="252" y="26" on="0"/>
        <pt x="314" y="26" on="1"/>
        <pt x="415" y="26" on="0"/>
        <pt x="490" y="58" on="0"/>
        <pt x="515" y="182" on="0"/>
        <pt x="515" y="344" on="1"/>
      </contour>
    </TTGlyph>
    <TTGlyph name="Oslashacute" xMin="77" yMin="-55" xMax="551" yMax="888">
      <component glyphName=".ttfautohint" x="77" y="0" flags="0x0"/>
      <component glyphName="Oslash" x="0" y="0" flags="0x0"/>
      <component glyphName="acutecomb.case" x="437" y="0" flags="0x0"/>
    </TTGlyph>
    <TTGlyph name="Otilde" xMin="77" yMin="-8" xMax="551" yMax="856">
      <component glyphName=".ttfautohint" x="77" y="0" flags="0x0"/>
      <component glyphName="O" x="0" y="0" flags="0x0"/>
      <component glyphName="tilde" x="148" y="113" flags="0x4"/>
    </TTGlyph>
    <TTGlyph name="P" xMin="99" yMin="0" xMax="511" yMax="688">
      <contour>
        <pt x="99" y="688" on="1"/>
        <pt x="341" y="688" on="1"/>
        <pt x="418" y="688" on="0"/>
        <pt x="492" y="633" on="0"/>
        <pt x="511" y="549" on="0"/>
        <pt x="511" y="481" on="1"/>
        <pt x="511" y="414" on="0"/>
        <pt x="491" y="329" on="0"/>
        <pt x="417" y="274" on="0"/>
        <pt x="341" y="274" on="1"/>
        <pt x="135" y="274" on="1"/>
        <pt x="135" y="0" on="1"/>
        <pt x="99" y="0" on="1"/>
      </contour>
      <contour>
        <pt x="339" y="308" on="1"/>
        <pt x="400" y="308" on="0"/>
        <pt x="458" y="348" on="0"/>
        <pt x="475" y="419" on="0"/>
        <pt x="475" y="481" on="1"/>
        <pt x="475" y="544" on="0"/>
        <pt x="460" y="614" on="0"/>
        <pt x="401" y="654" on="0"/>
        <pt x="339" y="654" on="1"/>
        <pt x="135" y="654" on="1"/>
        <pt x="135" y="308" on="1"/>
      </contour>
    </TTGlyph>
    <TTGlyph name="Q" xMin="77" yMin="-115" xMax="562" yMax="696">
      <contour>
        <pt x="562" y="-113" on="1"/>
        <pt x="562" y="-115" on="1"/>
        <pt x="520" y="-115" on="1"/>
        <pt x="442" y="3" on="1"/>
        <pt x="402" y="-8" on="0"/>
        <pt x="314" y="-8" on="1"/>
        <pt x="199" y="-8" on="0"/>
        <pt x="105" y="39" on="0"/>
        <pt x="77" y="176" on="0"/>
        <pt x="77" y="344" on="1"/>
        <pt x="77" y="512" on="0"/>
        <pt x="105" y="649" on="0"/>
        <pt x="199" y="696" on="0"/>
        <pt x="314" y="696" on="1"/>
        <pt x="429" y="696" on="0"/>
        <pt x="523" y="649" on="0"/>
        <pt x="551" y="512" on="0"/>
        <pt x="551" y="344" on="1"/>
        <pt x="551" y="230" on="0"/>
        <pt x="541" y="107" on="0"/>
        <pt x="509" y="33" on="0"/>
        <pt x="475" y="15" on="1"/>
      </contour>
      <contour>
        <pt x="346" y="26" on="0"/>
        <pt x="404" y="28" on="0"/>
        <pt x="422" y="32" on="1"/>
        <pt x="298" y="218" on="1"/>
        <pt x="339" y="218" on="1"/>
        <pt x="456" y="44" on="1"/>
        <pt x="482" y="58" on="0"/>
        <pt x="507" y="122" on="0"/>
        <pt x="515" y="237" on="0"/>
        <pt x="515" y="344" on="1"/>
        <pt x="515" y="506" on="0"/>
        <pt x="490" y="630" on="0"/>
        <pt x="415" y="662" on="0"/>
        <pt x="314" y="662" on="1"/>
        <pt x="214" y="662" on="0"/>
        <pt x="138" y="630" on="0"/>
        <pt x="113" y="506" on="0"/>
        <pt x="113" y="344" on="1"/>
        <pt x="113" y="182" on="0"/>
        <pt x="138" y="58" on="0"/>
        <pt x="214" y="26" on="0"/>
        <pt x="314" y="26" on="1"/>
      </contour>
    </TTGlyph>
    <TTGlyph name="R" xMin="99" yMin="0" xMax="526" yMax="688">
      <contour>
        <pt x="487" y="0" on="1"/>
        <pt x="381" y="296" on="1"/>
        <pt x="369" y="294" on="0"/>
        <pt x="345" y="294" on="1"/>
        <pt x="135" y="294" on="1"/>
        <pt x="135" y="0" on="1"/>
        <pt x="99" y="0" on="1"/>
        <pt x="99" y="688" on="1"/>
        <pt x="355" y="688" on="1"/>
        <pt x="428" y="688" on="0"/>
        <pt x="500" y="635" on="0"/>
        <pt x="518" y="554" on="0"/>
        <pt x="518" y="491" on="1"/>
        <pt x="518" y="440" on="0"/>
        <pt x="505" y="370" on="0"/>
        <pt x="461" y="314" on="0"/>
        <pt x="417" y="302" on="1"/>
        <pt x="526" y="0" on="1"/>
      </contour>
      <contour>
        <pt x="405" y="328" on="0"/>
        <pt x="465" y="367" on="0"/>
        <pt x="482" y="434" on="0"/>
        <pt x="482" y="491" on="1"/>
        <pt x="482" y="549" on="0"/>
        <pt x="467" y="615" on="0"/>
        <pt x="412" y="654" on="0"/>
        <pt x="353" y="654" on="1"/>
        <pt x="135" y="654" on="1"/>
        <pt x="135" y="328" on="1"/>
        <pt x="343" y="328" on="1"/>
      </contour>
    </TTGlyph>
    <TTGlyph name="R.ss01" xMin="99" yMin="0" xMax="522" yMax="688">
      <contour>
        <pt x="522" y="0" on="1"/>
        <pt x="487" y="0" on="1"/>
        <pt x="478" y="152" on="1"/>
        <pt x="475" y="201" on="0"/>
        <pt x="461" y="257" on="0"/>
        <pt x="404" y="298" on="0"/>
        <pt x="345" y="298" on="1"/>
        <pt x="135" y="298" on="1"/>
        <pt x="135" y="0" on="1"/>
        <pt x="99" y="0" on="1"/>
        <pt x="99" y="688" on="1"/>
        <pt x="351" y="688" on="1"/>
        <pt x="416" y="688" on="0"/>
        <pt x="489" y="647" on="0"/>
        <pt x="518" y="567" on="0"/>
        <pt x="518" y="502" on="1"/>
        <pt x="518" y="413" on="0"/>
        <pt x="467" y="333" on="0"/>
        <pt x="412" y="320" on="1"/>
        <pt x="412" y="316" on="1"/>
        <pt x="446" y="308" on="0"/>
        <pt x="488" y="279" on="0"/>
        <pt x="510" y="221" on="0"/>
        <pt x="512" y="171" on="1"/>
      </contour>
      <contour>
        <pt x="400" y="332" on="0"/>
        <pt x="461" y="372" on="0"/>
        <pt x="482" y="441" on="0"/>
        <pt x="482" y="493" on="1"/>
        <pt x="482" y="550" on="0"/>
        <pt x="467" y="615" on="0"/>
        <pt x="409" y="654" on="0"/>
        <pt x="348" y="654" on="1"/>
        <pt x="135" y="654" on="1"/>
        <pt x="135" y="332" on="1"/>
        <pt x="343" y="332" on="1"/>
      </contour>
    </TTGlyph>
    <TTGlyph name="Racute" xMin="99" yMin="0" xMax="526" yMax="888">
      <component glyphName=".ttfautohint" x="99" y="0" flags="0x0"/>
      <component glyphName="R" x="0" y="0" flags="0x0"/>
      <component glyphName="acutecomb.case" x="420" y="0" flags="0x0"/>
    </TTGlyph>
    <TTGlyph name="Racute.ss01" xMin="99" yMin="0" xMax="522" yMax="888">
      <component glyphName=".ttfautohint" x="99" y="0" flags="0x0"/>
      <component glyphName="R.ss01" x="0" y="0" flags="0x0"/>
      <component glyphName="acutecomb.case" x="422" y="0" flags="0x0"/>
    </TTGlyph>
    <TTGlyph name="Rcaron" xMin="99" yMin="0" xMax="526" yMax="888">
      <component glyphName=".ttfautohint" x="99" y="0" flags="0x0"/>
      <component glyphName="R" x="0" y="0" flags="0x0"/>
      <component glyphName="uni030C.case" x="428" y="0" flags="0x0"/>
    </TTGlyph>
    <TTGlyph name="Rcaron.ss01" xMin="99" yMin="0" xMax="522" yMax="888">
      <component glyphName=".ttfautohint" x="99" y="0" flags="0x0"/>
      <component glyphName="R.ss01" x="0" y="0" flags="0x0"/>
      <component glyphName="uni030C.case" x="430" y="0" flags="0x0"/>
    </TTGlyph>
    <TTGlyph name="Rcommaaccent" xMin="99" yMin="-228" xMax="526" yMax="688">
      <component glyphName=".ttfautohint" x="99" y="0" flags="0x0"/>
      <component glyphName="R" x="0" y="0" flags="0x0"/>
      <component glyphName="uni0326" x="389" y="0" flags="0x0"/>
    </TTGlyph>
    <TTGlyph name="Rcommaaccent.ss01" xMin="99" yMin="-228" xMax="522" yMax="688">
      <component glyphName=".ttfautohint" x="99" y="0" flags="0x0"/>
      <component glyphName="R.ss01" x="0" y="0" flags="0x0"/>
      <component glyphName="uni0326" x="391" y="0" flags="0x0"/>
    </TTGlyph>
    <TTGlyph name="S" xMin="65" yMin="-8" xMax="479" yMax="696">
      <contour>
        <pt x="235" y="-8" on="0"/>
        <pt x="123" y="-1" on="0"/>
        <pt x="83" y="4" on="1"/>
        <pt x="83" y="39" on="1"/>
        <pt x="126" y="34" on="0"/>
        <pt x="235" y="26" on="0"/>
        <pt x="271" y="26" on="1"/>
        <pt x="321" y="26" on="0"/>
        <pt x="380" y="36" on="0"/>
        <pt x="404" y="52" on="1"/>
        <pt x="427" y="66" on="0"/>
        <pt x="443" y="131" on="0"/>
        <pt x="443" y="183" on="1"/>
        <pt x="443" y="252" on="0"/>
        <pt x="432" y="302" on="0"/>
        <pt x="390" y="324" on="0"/>
        <pt x="332" y="331" on="1"/>
        <pt x="175" y="350" on="1"/>
        <pt x="123" y="356" on="0"/>
        <pt x="76" y="397" on="0"/>
        <pt x="65" y="457" on="0"/>
        <pt x="65" y="515" on="1"/>
        <pt x="65" y="585" on="0"/>
        <pt x="107" y="664" on="0"/>
        <pt x="197" y="696" on="0"/>
        <pt x="274" y="696" on="1"/>
        <pt x="324" y="696" on="0"/>
        <pt x="422" y="689" on="0"/>
        <pt x="448" y="683" on="1"/>
        <pt x="448" y="650" on="1"/>
        <pt x="413" y="655" on="0"/>
        <pt x="317" y="662" on="0"/>
        <pt x="278" y="662" on="1"/>
        <pt x="223" y="662" on="0"/>
        <pt x="154" y="646" on="0"/>
        <pt x="134" y="629" on="1"/>
        <pt x="115" y="612" on="0"/>
        <pt x="101" y="556" on="0"/>
        <pt x="101" y="513" on="1"/>
        <pt x="101" y="460" on="0"/>
        <pt x="113" y="411" on="0"/>
        <pt x="148" y="389" on="0"/>
        <pt x="186" y="384" on="1"/>
        <pt x="334" y="366" on="1"/>
        <pt x="378" y="361" on="0"/>
        <pt x="428" y="348" on="0"/>
        <pt x="463" y="320" on="0"/>
        <pt x="471" y="293" on="1"/>
        <pt x="476" y="277" on="0"/>
        <pt x="479" y="233" on="0"/>
        <pt x="479" y="188" on="1"/>
        <pt x="479" y="108" on="0"/>
        <pt x="437" y="23" on="0"/>
        <pt x="354" y="-8" on="0"/>
        <pt x="282" y="-8" on="1"/>
      </contour>
    </TTGlyph>
    <TTGlyph name="Sacute" xMin="65" yMin="-8" xMax="479" yMax="888">
      <component glyphName=".ttfautohint" x="65" y="0" flags="0x0"/>
      <component glyphName="S" x="0" y="0" flags="0x0"/>
      <component glyphName="acutecomb.case" x="395" y="0" flags="0x0"/>
    </TTGlyph>
    <TTGlyph name="Sacute.loclPLK" xMin="65" yMin="-8" xMax="479" yMax="888">
      <component glyphName=".ttfautohint" x="65" y="0" flags="0x0"/>
      <component glyphName="S" x="0" y="0" flags="0x0"/>
      <component glyphName="acute.case.loclPLK" x="241" y="0" flags="0x0"/>
    </TTGlyph>
    <TTGlyph name="Scaron" xMin="65" yMin="-8" xMax="479" yMax="888">
      <component glyphName=".ttfautohint" x="65" y="0" flags="0x0"/>
      <component glyphName="S" x="0" y="0" flags="0x0"/>
      <component glyphName="caron" x="149" y="145" flags="0x4"/>
    </TTGlyph>
    <TTGlyph name="Scedilla" xMin="65" yMin="-190" xMax="479" yMax="696">
      <contour>
        <pt x="479" y="107" on="0"/>
        <pt x="438" y="23" on="0"/>
        <pt x="355" y="-8" on="0"/>
        <pt x="283" y="-8" on="1"/>
        <pt x="242" y="-190" on="1"/>
        <pt x="202" y="-190" on="1"/>
        <pt x="202" y="-185" on="1"/>
        <pt x="255" y="-8" on="1"/>
        <pt x="163" y="-6" on="0"/>
        <pt x="83" y="4" on="1"/>
        <pt x="83" y="39" on="1"/>
        <pt x="126" y="34" on="0"/>
        <pt x="235" y="26" on="0"/>
        <pt x="271" y="26" on="1"/>
        <pt x="321" y="26" on="0"/>
        <pt x="380" y="36" on="0"/>
        <pt x="404" y="52" on="1"/>
        <pt x="427" y="66" on="0"/>
        <pt x="443" y="131" on="0"/>
        <pt x="443" y="183" on="1"/>
        <pt x="443" y="252" on="0"/>
        <pt x="432" y="302" on="0"/>
        <pt x="390" y="324" on="0"/>
        <pt x="332" y="331" on="1"/>
        <pt x="175" y="350" on="1"/>
        <pt x="123" y="356" on="0"/>
        <pt x="76" y="397" on="0"/>
        <pt x="65" y="457" on="0"/>
        <pt x="65" y="515" on="1"/>
        <pt x="65" y="585" on="0"/>
        <pt x="107" y="664" on="0"/>
        <pt x="197" y="696" on="0"/>
        <pt x="274" y="696" on="1"/>
        <pt x="324" y="696" on="0"/>
        <pt x="422" y="689" on="0"/>
        <pt x="448" y="683" on="1"/>
        <pt x="448" y="650" on="1"/>
        <pt x="413" y="655" on="0"/>
        <pt x="317" y="662" on="0"/>
        <pt x="278" y="662" on="1"/>
        <pt x="223" y="662" on="0"/>
        <pt x="154" y="646" on="0"/>
        <pt x="134" y="629" on="1"/>
        <pt x="115" y="612" on="0"/>
        <pt x="101" y="556" on="0"/>
        <pt x="101" y="513" on="1"/>
        <pt x="101" y="460" on="0"/>
        <pt x="113" y="411" on="0"/>
        <pt x="148" y="389" on="0"/>
        <pt x="186" y="384" on="1"/>
        <pt x="334" y="366" on="1"/>
        <pt x="378" y="361" on="0"/>
        <pt x="428" y="348" on="0"/>
        <pt x="463" y="320" on="0"/>
        <pt x="471" y="293" on="1"/>
        <pt x="476" y="277" on="0"/>
        <pt x="479" y="233" on="0"/>
        <pt x="479" y="188" on="1"/>
      </contour>
    </TTGlyph>
    <TTGlyph name="Scircumflex" xMin="65" yMin="-8" xMax="479" yMax="888">
      <component glyphName=".ttfautohint" x="65" y="0" flags="0x0"/>
      <component glyphName="S" x="0" y="0" flags="0x0"/>
      <component glyphName="uni0302.case" x="403" y="0" flags="0x0"/>
    </TTGlyph>
    <TTGlyph name="Scommaaccent" xMin="65" yMin="-228" xMax="479" yMax="696">
      <component glyphName=".ttfautohint" x="65" y="0" flags="0x0"/>
      <component glyphName="S" x="0" y="0" flags="0x0"/>
      <component glyphName="uni0326" x="364" y="0" flags="0x0"/>
    </TTGlyph>
    <TTGlyph name="T" xMin="32" yMin="0" xMax="468" yMax="688">
      <contour>
        <pt x="232" y="654" on="1"/>
        <pt x="32" y="654" on="1"/>
        <pt x="32" y="688" on="1"/>
        <pt x="468" y="688" on="1"/>
        <pt x="468" y="654" on="1"/>
        <pt x="268" y="654" on="1"/>
        <pt x="268" y="0" on="1"/>
        <pt x="232" y="0" on="1"/>
      </contour>
    </TTGlyph>
    <TTGlyph name="Tbar" xMin="32" yMin="0" xMax="468" yMax="688">
      <contour>
        <pt x="268" y="654" on="1"/>
        <pt x="268" y="373" on="1"/>
        <pt x="437" y="373" on="1"/>
        <pt x="437" y="341" on="1"/>
        <pt x="268" y="341" on="1"/>
        <pt x="268" y="0" on="1"/>
        <pt x="232" y="0" on="1"/>
        <pt x="232" y="341" on="1"/>
        <pt x="63" y="341" on="1"/>
        <pt x="63" y="373" on="1"/>
        <pt x="232" y="373" on="1"/>
        <pt x="232" y="654" on="1"/>
        <pt x="32" y="654" on="1"/>
        <pt x="32" y="688" on="1"/>
        <pt x="468" y="688" on="1"/>
        <pt x="468" y="654" on="1"/>
      </contour>
    </TTGlyph>
    <TTGlyph name="Tcaron" xMin="32" yMin="0" xMax="468" yMax="888">
      <component glyphName=".ttfautohint" x="32" y="0" flags="0x0"/>
      <component glyphName="T" x="0" y="0" flags="0x0"/>
      <component glyphName="uni030C.case" x="381" y="0" flags="0x0"/>
    </TTGlyph>
    <TTGlyph name="Thorn" xMin="99" yMin="0" xMax="511" yMax="688">
      <contour>
        <pt x="99" y="688" on="1"/>
        <pt x="135" y="688" on="1"/>
        <pt x="135" y="557" on="1"/>
        <pt x="341" y="557" on="1"/>
        <pt x="418" y="557" on="0"/>
        <pt x="492" y="502" on="0"/>
        <pt x="511" y="418" on="0"/>
        <pt x="511" y="350" on="1"/>
        <pt x="511" y="283" on="0"/>
        <pt x="491" y="198" on="0"/>
        <pt x="417" y="143" on="0"/>
        <pt x="341" y="143" on="1"/>
        <pt x="135" y="143" on="1"/>
        <pt x="135" y="0" on="1"/>
        <pt x="99" y="0" on="1"/>
      </contour>
      <contour>
        <pt x="339" y="177" on="1"/>
        <pt x="400" y="177" on="0"/>
        <pt x="458" y="217" on="0"/>
        <pt x="475" y="288" on="0"/>
        <pt x="475" y="350" on="1"/>
        <pt x="475" y="413" on="0"/>
        <pt x="460" y="483" on="0"/>
        <pt x="401" y="523" on="0"/>
        <pt x="339" y="523" on="1"/>
        <pt x="135" y="523" on="1"/>
        <pt x="135" y="177" on="1"/>
      </contour>
    </TTGlyph>
    <TTGlyph name="U" xMin="90" yMin="-8" xMax="531" yMax="688">
      <contour>
        <pt x="531" y="688" on="1"/>
        <pt x="531" y="294" on="1"/>
        <pt x="531" y="162" on="0"/>
        <pt x="504" y="42" on="0"/>
        <pt x="413" y="-8" on="0"/>
        <pt x="311" y="-8" on="1"/>
        <pt x="209" y="-8" on="0"/>
        <pt x="117" y="42" on="0"/>
        <pt x="90" y="163" on="0"/>
        <pt x="90" y="294" on="1"/>
        <pt x="90" y="688" on="1"/>
        <pt x="126" y="688" on="1"/>
        <pt x="126" y="264" on="1"/>
        <pt x="126" y="158" on="0"/>
        <pt x="148" y="65" on="0"/>
        <pt x="224" y="26" on="0"/>
        <pt x="311" y="26" on="1"/>
        <pt x="398" y="26" on="0"/>
        <pt x="474" y="65" on="0"/>
        <pt x="495" y="158" on="0"/>
        <pt x="495" y="264" on="1"/>
        <pt x="495" y="688" on="1"/>
      </contour>
    </TTGlyph>
    <TTGlyph name="Uacute" xMin="90" yMin="-8" xMax="531" yMax="888">
      <component glyphName=".ttfautohint" x="90" y="0" flags="0x0"/>
      <component glyphName="U" x="0" y="0" flags="0x0"/>
      <component glyphName="acute" x="273" y="145" flags="0x4"/>
    </TTGlyph>
    <TTGlyph name="Ubreve" xMin="90" yMin="-8" xMax="531" yMax="888">
      <component glyphName=".ttfautohint" x="90" y="0" flags="0x0"/>
      <component glyphName="U" x="0" y="0" flags="0x0"/>
      <component glyphName="uni0306.case" x="441" y="0" flags="0x0"/>
    </TTGlyph>
    <TTGlyph name="Ucircumflex" xMin="90" yMin="-8" xMax="531" yMax="888">
      <component glyphName=".ttfautohint" x="90" y="0" flags="0x0"/>
      <component glyphName="U" x="0" y="0" flags="0x0"/>
      <component glyphName="circumflex" x="180" y="145" flags="0x4"/>
    </TTGlyph>
    <TTGlyph name="Udieresis" xMin="90" yMin="-8" xMax="531" yMax="831">
      <component glyphName=".ttfautohint" x="90" y="0" flags="0x0"/>
      <component glyphName="U" x="0" y="0" flags="0x0"/>
      <component glyphName="dieresis" x="179" y="100" flags="0x4"/>
    </TTGlyph>
    <TTGlyph name="Ugrave" xMin="90" yMin="-8" xMax="531" yMax="888">
      <component glyphName=".ttfautohint" x="90" y="0" flags="0x0"/>
      <component glyphName="U" x="0" y="0" flags="0x0"/>
      <component glyphName="grave" x="207" y="145" flags="0x4"/>
    </TTGlyph>
    <TTGlyph name="Uhorn" xMin="90" yMin="-8" xMax="633" yMax="786">
      <contour>
        <pt x="633" y="786" on="1"/>
        <pt x="633" y="756" on="1"/>
        <pt x="633" y="717" on="0"/>
        <pt x="620" y="676" on="0"/>
        <pt x="586" y="660" on="0"/>
        <pt x="553" y="660" on="1"/>
        <pt x="531" y="660" on="1"/>
        <pt x="531" y="294" on="1"/>
        <pt x="531" y="162" on="0"/>
        <pt x="504" y="42" on="0"/>
        <pt x="413" y="-8" on="0"/>
        <pt x="311" y="-8" on="1"/>
        <pt x="209" y="-8" on="0"/>
        <pt x="117" y="42" on="0"/>
        <pt x="90" y="163" on="0"/>
        <pt x="90" y="294" on="1"/>
        <pt x="90" y="688" on="1"/>
        <pt x="126" y="688" on="1"/>
        <pt x="126" y="264" on="1"/>
        <pt x="126" y="158" on="0"/>
        <pt x="148" y="65" on="0"/>
        <pt x="224" y="26" on="0"/>
        <pt x="311" y="26" on="1"/>
        <pt x="398" y="26" on="0"/>
        <pt x="474" y="65" on="0"/>
        <pt x="495" y="158" on="0"/>
        <pt x="495" y="264" on="1"/>
        <pt x="495" y="688" on="1"/>
        <pt x="531" y="688" on="1"/>
        <pt x="553" y="688" on="1"/>
        <pt x="584" y="688" on="0"/>
        <pt x="601" y="712" on="0"/>
        <pt x="601" y="749" on="1"/>
        <pt x="601" y="786" on="1"/>
      </contour>
    </TTGlyph>
    <TTGlyph name="Uhungarumlaut" xMin="90" yMin="-8" xMax="531" yMax="884">
      <component glyphName=".ttfautohint" x="90" y="0" flags="0x0"/>
      <component glyphName="U" x="0" y="0" flags="0x0"/>
      <component glyphName="uni030B.case" x="527" y="0" flags="0x0"/>
    </TTGlyph>
    <TTGlyph name="Umacron" xMin="90" yMin="-8" xMax="531" yMax="887">
      <component glyphName=".ttfautohint" x="90" y="0" flags="0x0"/>
      <component glyphName="U" x="0" y="0" flags="0x0"/>
      <component glyphName="uni0304.case" x="477" y="0" flags="0x0"/>
    </TTGlyph>
    <TTGlyph name="Uogonek" xMin="90" yMin="-196" xMax="531" yMax="688">
      <contour>
        <pt x="531" y="688" on="1"/>
        <pt x="531" y="294" on="1"/>
        <pt x="531" y="206" on="0"/>
        <pt x="522" y="104" on="0"/>
        <pt x="492" y="37" on="0"/>
        <pt x="462" y="19" on="1"/>
        <pt x="430" y="0" on="0"/>
        <pt x="376" y="-80" on="0"/>
        <pt x="376" y="-118" on="1"/>
        <pt x="376" y="-164" on="0"/>
        <pt x="423" y="-164" on="1"/>
        <pt x="440" y="-163" on="1"/>
        <pt x="440" y="-195" on="1"/>
        <pt x="431" y="-196" on="0"/>
        <pt x="418" y="-196" on="1"/>
        <pt x="379" y="-196" on="0"/>
        <pt x="342" y="-157" on="0"/>
        <pt x="342" y="-124" on="1"/>
        <pt x="342" y="-95" on="0"/>
        <pt x="377" y="-29" on="0"/>
        <pt x="406" y="-1" on="1"/>
        <pt x="361" y="-8" on="0"/>
        <pt x="311" y="-8" on="1"/>
        <pt x="209" y="-8" on="0"/>
        <pt x="117" y="42" on="0"/>
        <pt x="90" y="163" on="0"/>
        <pt x="90" y="294" on="1"/>
        <pt x="90" y="688" on="1"/>
        <pt x="126" y="688" on="1"/>
        <pt x="126" y="264" on="1"/>
        <pt x="126" y="158" on="0"/>
        <pt x="148" y="65" on="0"/>
        <pt x="224" y="26" on="0"/>
        <pt x="311" y="26" on="1"/>
        <pt x="398" y="26" on="0"/>
        <pt x="474" y="65" on="0"/>
        <pt x="495" y="158" on="0"/>
        <pt x="495" y="264" on="1"/>
        <pt x="495" y="688" on="1"/>
      </contour>
    </TTGlyph>
    <TTGlyph name="Uring" xMin="90" yMin="-8" xMax="531" yMax="911">
      <component glyphName=".ttfautohint" x="90" y="0" flags="0x0"/>
      <component glyphName="U" x="0" y="0" flags="0x0"/>
      <component glyphName="uni030A.case" x="432" y="0" flags="0x0"/>
    </TTGlyph>
    <TTGlyph name="Utilde" xMin="90" yMin="-8" xMax="531" yMax="888">
      <component glyphName=".ttfautohint" x="90" y="0" flags="0x0"/>
      <component glyphName="U" x="0" y="0" flags="0x0"/>
      <component glyphName="tildecomb.case" x="477" y="0" flags="0x0"/>
    </TTGlyph>
    <TTGlyph name="V" xMin="29" yMin="0" xMax="535" yMax="688">
      <contour>
        <pt x="29" y="688" on="1"/>
        <pt x="67" y="688" on="1"/>
        <pt x="279" y="60" on="1"/>
        <pt x="284" y="60" on="1"/>
        <pt x="498" y="688" on="1"/>
        <pt x="535" y="688" on="1"/>
        <pt x="300" y="0" on="1"/>
        <pt x="263" y="0" on="1"/>
      </contour>
    </TTGlyph>
    <TTGlyph name="W" xMin="35" yMin="0" xMax="803" yMax="688">
      <contour>
        <pt x="421" y="618" on="1"/>
        <pt x="417" y="618" on="1"/>
        <pt x="246" y="0" on="1"/>
        <pt x="209" y="0" on="1"/>
        <pt x="35" y="688" on="1"/>
        <pt x="73" y="688" on="1"/>
        <pt x="226" y="70" on="1"/>
        <pt x="231" y="70" on="1"/>
        <pt x="400" y="688" on="1"/>
        <pt x="439" y="688" on="1"/>
        <pt x="608" y="70" on="1"/>
        <pt x="614" y="70" on="1"/>
        <pt x="766" y="688" on="1"/>
        <pt x="803" y="688" on="1"/>
        <pt x="629" y="0" on="1"/>
        <pt x="592" y="0" on="1"/>
      </contour>
    </TTGlyph>
    <TTGlyph name="Wacute" xMin="35" yMin="0" xMax="803" yMax="888">
      <component glyphName=".ttfautohint" x="35" y="0" flags="0x0"/>
      <component glyphName="W" x="0" y="0" flags="0x0"/>
      <component glyphName="acutecomb.case" x="542" y="0" flags="0x0"/>
    </TTGlyph>
    <TTGlyph name="Wcircumflex" xMin="35" yMin="0" xMax="803" yMax="888">
      <component glyphName=".ttfautohint" x="35" y="0" flags="0x0"/>
      <component glyphName="W" x="0" y="0" flags="0x0"/>
      <component glyphName="uni0302.case" x="550" y="0" flags="0x0"/>
    </TTGlyph>
    <TTGlyph name="Wdieresis" xMin="35" yMin="0" xMax="803" yMax="876">
      <component glyphName=".ttfautohint" x="35" y="0" flags="0x0"/>
      <component glyphName="W" x="0" y="0" flags="0x0"/>
      <component glyphName="uni0308.case" x="550" y="0" flags="0x0"/>
    </TTGlyph>
    <TTGlyph name="Wgrave" xMin="35" yMin="0" xMax="803" yMax="888">
      <component glyphName=".ttfautohint" x="35" y="0" flags="0x0"/>
      <component glyphName="W" x="0" y="0" flags="0x0"/>
      <component glyphName="gravecomb.case" x="455" y="0" flags="0x0"/>
    </TTGlyph>
    <TTGlyph name="X" xMin="32" yMin="0" xMax="548" yMax="688">
      <contour>
        <pt x="293" y="311" on="1"/>
        <pt x="286" y="311" on="1"/>
        <pt x="74" y="0" on="1"/>
        <pt x="32" y="0" on="1"/>
        <pt x="267" y="346" on="1"/>
        <pt x="35" y="688" on="1"/>
        <pt x="78" y="688" on="1"/>
        <pt x="287" y="380" on="1"/>
        <pt x="293" y="380" on="1"/>
        <pt x="503" y="688" on="1"/>
        <pt x="545" y="688" on="1"/>
        <pt x="312" y="347" on="1"/>
        <pt x="548" y="0" on="1"/>
        <pt x="505" y="0" on="1"/>
      </contour>
    </TTGlyph>
    <TTGlyph name="Y" xMin="13" yMin="0" xMax="499" yMax="688">
      <contour>
        <pt x="238" y="281" on="1"/>
        <pt x="13" y="688" on="1"/>
        <pt x="54" y="688" on="1"/>
        <pt x="253" y="324" on="1"/>
        <pt x="260" y="324" on="1"/>
        <pt x="460" y="688" on="1"/>
        <pt x="499" y="688" on="1"/>
        <pt x="274" y="281" on="1"/>
        <pt x="274" y="0" on="1"/>
        <pt x="238" y="0" on="1"/>
      </contour>
    </TTGlyph>
    <TTGlyph name="Y.loclGUA" xMin="35" yMin="0" xMax="476" yMax="688">
      <contour>
        <pt x="476" y="688" on="1"/>
        <pt x="476" y="504" on="1"/>
        <pt x="476" y="376" on="0"/>
        <pt x="451" y="257" on="0"/>
        <pt x="367" y="204" on="0"/>
        <pt x="274" y="202" on="1"/>
        <pt x="274" y="0" on="1"/>
        <pt x="238" y="0" on="1"/>
        <pt x="238" y="202" on="1"/>
        <pt x="144" y="204" on="0"/>
        <pt x="60" y="257" on="0"/>
        <pt x="35" y="376" on="0"/>
        <pt x="35" y="504" on="1"/>
        <pt x="35" y="688" on="1"/>
        <pt x="71" y="688" on="1"/>
        <pt x="71" y="474" on="1"/>
        <pt x="71" y="368" on="0"/>
        <pt x="93" y="275" on="0"/>
        <pt x="169" y="236" on="0"/>
        <pt x="256" y="236" on="1"/>
        <pt x="343" y="236" on="0"/>
        <pt x="419" y="275" on="0"/>
        <pt x="440" y="368" on="0"/>
        <pt x="440" y="474" on="1"/>
        <pt x="440" y="688" on="1"/>
      </contour>
    </TTGlyph>
    <TTGlyph name="Yacute" xMin="13" yMin="0" xMax="499" yMax="888">
      <component glyphName=".ttfautohint" x="13" y="0" flags="0x0"/>
      <component glyphName="Y" x="0" y="0" flags="0x0"/>
      <component glyphName="acute" x="228" y="145" flags="0x4"/>
    </TTGlyph>
    <TTGlyph name="Yacute.loclGUA" xMin="35" yMin="0" xMax="476" yMax="888">
      <component glyphName=".ttfautohint" x="35" y="0" flags="0x0"/>
      <component glyphName="Y.loclGUA" x="0" y="0" flags="0x0"/>
      <component glyphName="acutecomb.case" x="378" y="0" flags="0x0"/>
    </TTGlyph>
    <TTGlyph name="Ycircumflex" xMin="13" yMin="0" xMax="499" yMax="888">
      <component glyphName=".ttfautohint" x="13" y="0" flags="0x0"/>
      <component glyphName="Y" x="0" y="0" flags="0x0"/>
      <component glyphName="uni0302.case" x="387" y="0" flags="0x0"/>
    </TTGlyph>
    <TTGlyph name="Ycircumflex.loclGUA" xMin="35" yMin="0" xMax="476" yMax="888">
      <component glyphName=".ttfautohint" x="35" y="0" flags="0x0"/>
      <component glyphName="Y.loclGUA" x="0" y="0" flags="0x0"/>
      <component glyphName="uni0302.case" x="386" y="0" flags="0x0"/>
    </TTGlyph>
    <TTGlyph name="Ydieresis" xMin="13" yMin="0" xMax="499" yMax="831">
      <component glyphName=".ttfautohint" x="13" y="0" flags="0x0"/>
      <component glyphName="Y" x="0" y="0" flags="0x0"/>
      <component glyphName="dieresis" x="126" y="100" flags="0x4"/>
    </TTGlyph>
    <TTGlyph name="Ydieresis.loclGUA" xMin="35" yMin="0" xMax="476" yMax="876">
      <component glyphName=".ttfautohint" x="35" y="0" flags="0x0"/>
      <component glyphName="Y.loclGUA" x="0" y="0" flags="0x0"/>
      <component glyphName="uni0308.case" x="386" y="0" flags="0x0"/>
    </TTGlyph>
    <TTGlyph name="Ygrave" xMin="13" yMin="0" xMax="499" yMax="888">
      <component glyphName=".ttfautohint" x="13" y="0" flags="0x0"/>
      <component glyphName="Y" x="0" y="0" flags="0x0"/>
      <component glyphName="gravecomb.case" x="293" y="0" flags="0x0"/>
    </TTGlyph>
    <TTGlyph name="Ygrave.loclGUA" xMin="35" yMin="0" xMax="476" yMax="888">
      <component glyphName=".ttfautohint" x="35" y="0" flags="0x0"/>
      <component glyphName="Y.loclGUA" x="0" y="0" flags="0x0"/>
      <component glyphName="gravecomb.case" x="291" y="0" flags="0x0"/>
    </TTGlyph>
    <TTGlyph name="Z" xMin="47" yMin="0" xMax="469" yMax="688">
      <contour>
        <pt x="47" y="32" on="1"/>
        <pt x="419" y="654" on="1"/>
        <pt x="57" y="654" on="1"/>
        <pt x="57" y="688" on="1"/>
        <pt x="462" y="688" on="1"/>
        <pt x="462" y="656" on="1"/>
        <pt x="91" y="34" on="1"/>
        <pt x="469" y="34" on="1"/>
        <pt x="469" y="0" on="1"/>
        <pt x="47" y="0" on="1"/>
      </contour>
    </TTGlyph>
    <TTGlyph name="Zacute" xMin="47" yMin="0" xMax="469" yMax="888">
      <component glyphName=".ttfautohint" x="47" y="0" flags="0x0"/>
      <component glyphName="Z" x="0" y="0" flags="0x0"/>
      <component glyphName="acutecomb.case" x="379" y="0" flags="0x0"/>
    </TTGlyph>
    <TTGlyph name="Zacute.loclPLK" xMin="47" yMin="0" xMax="469" yMax="888">
      <component glyphName=".ttfautohint" x="47" y="0" flags="0x0"/>
      <component glyphName="Z" x="0" y="0" flags="0x0"/>
      <component glyphName="acute.case.loclPLK" x="225" y="0" flags="0x0"/>
    </TTGlyph>
    <TTGlyph name="Zcaron" xMin="47" yMin="0" xMax="469" yMax="887">
      <component glyphName=".ttfautohint" x="47" y="0" flags="0x0"/>
      <component glyphName="Z" x="0" y="0" flags="0x0"/>
      <component glyphName="caron" x="132" y="144" flags="0x4"/>
    </TTGlyph>
    <TTGlyph name="Zdotaccent" xMin="47" yMin="0" xMax="469" yMax="876">
      <component glyphName=".ttfautohint" x="47" y="0" flags="0x0"/>
      <component glyphName="Z" x="0" y="0" flags="0x0"/>
      <component glyphName="uni0307.case" x="298" y="0" flags="0x0"/>
    </TTGlyph>
    <TTGlyph name="a" xMin="54" yMin="-8" xMax="418" yMax="518">
      <contour>
        <pt x="158" y="-8" on="0"/>
        <pt x="88" y="15" on="0"/>
        <pt x="54" y="78" on="0"/>
        <pt x="54" y="138" on="1"/>
        <pt x="54" y="195" on="0"/>
        <pt x="78" y="257" on="0"/>
        <pt x="137" y="283" on="0"/>
        <pt x="192" y="283" on="1"/>
        <pt x="223" y="283" on="0"/>
        <pt x="383" y="278" on="1"/>
        <pt x="383" y="324" on="1"/>
        <pt x="383" y="400" on="0"/>
        <pt x="360" y="465" on="0"/>
        <pt x="299" y="486" on="0"/>
        <pt x="229" y="486" on="1"/>
        <pt x="197" y="486" on="0"/>
        <pt x="110" y="478" on="0"/>
        <pt x="85" y="473" on="1"/>
        <pt x="85" y="506" on="1"/>
        <pt x="145" y="518" on="0"/>
        <pt x="241" y="518" on="1"/>
        <pt x="316" y="518" on="0"/>
        <pt x="390" y="487" on="0"/>
        <pt x="418" y="409" on="0"/>
        <pt x="418" y="330" on="1"/>
        <pt x="418" y="0" on="1"/>
        <pt x="390" y="0" on="1"/>
        <pt x="387" y="80" on="1"/>
        <pt x="383" y="80" on="1"/>
        <pt x="366" y="27" on="0"/>
        <pt x="279" y="-8" on="0"/>
        <pt x="218" y="-8" on="1"/>
      </contour>
      <contour>
        <pt x="275" y="24" on="0"/>
        <pt x="347" y="46" on="0"/>
        <pt x="362" y="84" on="1"/>
        <pt x="374" y="113" on="0"/>
        <pt x="383" y="171" on="0"/>
        <pt x="383" y="210" on="1"/>
        <pt x="383" y="251" on="1"/>
        <pt x="200" y="251" on="1"/>
        <pt x="153" y="251" on="0"/>
        <pt x="107" y="235" on="0"/>
        <pt x="89" y="188" on="0"/>
        <pt x="89" y="138" on="1"/>
        <pt x="89" y="90" on="0"/>
        <pt x="110" y="42" on="0"/>
        <pt x="163" y="24" on="0"/>
        <pt x="217" y="24" on="1"/>
      </contour>
    </TTGlyph>
    <TTGlyph name="aacute" xMin="54" yMin="-8" xMax="418" yMax="743">
      <component glyphName=".ttfautohint" x="54" y="0" flags="0x0"/>
      <component glyphName="a" x="0" y="0" flags="0x0"/>
      <component glyphName="acute" x="210" y="0" flags="0x0"/>
    </TTGlyph>
    <TTGlyph name="abreve" xMin="54" yMin="-8" xMax="418" yMax="743">
      <component glyphName=".ttfautohint" x="54" y="0" flags="0x0"/>
      <component glyphName="a" x="0" y="0" flags="0x0"/>
      <component glyphName="uni0306" x="382" y="0" flags="0x0"/>
    </TTGlyph>
    <TTGlyph name="acircumflex" xMin="54" yMin="-8" xMax="418" yMax="743">
      <component glyphName=".ttfautohint" x="54" y="0" flags="0x0"/>
      <component glyphName="a" x="0" y="0" flags="0x0"/>
      <component glyphName="circumflex" x="124" y="0" flags="0x0"/>
    </TTGlyph>
    <TTGlyph name="acute" xMin="13" yMin="605" xMax="140" yMax="743">
      <contour>
        <pt x="13" y="610" on="1"/>
        <pt x="96" y="743" on="1"/>
        <pt x="140" y="743" on="1"/>
        <pt x="140" y="738" on="1"/>
        <pt x="39" y="605" on="1"/>
        <pt x="13" y="605" on="1"/>
      </contour>
    </TTGlyph>
    <TTGlyph name="acute.case.loclPLK" xMin="13" yMin="750" xMax="100" yMax="888">
      <contour>
        <pt x="13" y="755" on="1"/>
        <pt x="56" y="888" on="1"/>
        <pt x="100" y="888" on="1"/>
        <pt x="100" y="883" on="1"/>
        <pt x="39" y="750" on="1"/>
        <pt x="13" y="750" on="1"/>
      </contour>
    </TTGlyph>
    <TTGlyph name="acute.loclPLK" xMin="13" yMin="605" xMax="100" yMax="743">
      <contour>
        <pt x="13" y="610" on="1"/>
        <pt x="56" y="743" on="1"/>
        <pt x="100" y="743" on="1"/>
        <pt x="100" y="738" on="1"/>
        <pt x="39" y="605" on="1"/>
        <pt x="13" y="605" on="1"/>
      </contour>
    </TTGlyph>
    <TTGlyph name="acutecomb" xMin="-141" yMin="605" xMax="-14" yMax="743">
      <contour>
        <pt x="-141" y="610" on="1"/>
        <pt x="-58" y="743" on="1"/>
        <pt x="-14" y="743" on="1"/>
        <pt x="-14" y="738" on="1"/>
        <pt x="-115" y="605" on="1"/>
        <pt x="-141" y="605" on="1"/>
      </contour>
    </TTGlyph>
    <TTGlyph name="acutecomb.case" xMin="-141" yMin="750" xMax="-14" yMax="888">
      <contour>
        <pt x="-141" y="755" on="1"/>
        <pt x="-58" y="888" on="1"/>
        <pt x="-14" y="888" on="1"/>
        <pt x="-14" y="883" on="1"/>
        <pt x="-115" y="750" on="1"/>
        <pt x="-141" y="750" on="1"/>
      </contour>
    </TTGlyph>
    <TTGlyph name="adieresis" xMin="54" yMin="-8" xMax="418" yMax="731">
      <component glyphName=".ttfautohint" x="54" y="0" flags="0x0"/>
      <component glyphName="a" x="0" y="0" flags="0x0"/>
      <component glyphName="dieresis" x="123" y="0" flags="0x0"/>
    </TTGlyph>
    <TTGlyph name="ae" xMin="54" yMin="-8" xMax="750" yMax="518">
      <contour>
        <pt x="750" y="247" on="1"/>
        <pt x="418" y="247" on="1"/>
        <pt x="418" y="150" on="0"/>
        <pt x="439" y="60" on="0"/>
        <pt x="506" y="24" on="0"/>
        <pt x="581" y="24" on="1"/>
        <pt x="617" y="24" on="0"/>
        <pt x="702" y="32" on="0"/>
        <pt x="733" y="38" on="1"/>
        <pt x="733" y="5" on="1"/>
        <pt x="707" y="-1" on="0"/>
        <pt x="620" y="-8" on="0"/>
        <pt x="577" y="-8" on="1"/>
        <pt x="492" y="-8" on="0"/>
        <pt x="413" y="34" on="0"/>
        <pt x="397" y="90" on="1"/>
        <pt x="376" y="29" on="0"/>
        <pt x="286" y="-8" on="0"/>
        <pt x="218" y="-8" on="1"/>
        <pt x="158" y="-8" on="0"/>
        <pt x="88" y="15" on="0"/>
        <pt x="54" y="78" on="0"/>
        <pt x="54" y="138" on="1"/>
        <pt x="54" y="193" on="0"/>
        <pt x="78" y="253" on="0"/>
        <pt x="137" y="279" on="0"/>
        <pt x="192" y="279" on="1"/>
        <pt x="383" y="279" on="1"/>
        <pt x="383" y="324" on="1"/>
        <pt x="383" y="400" on="0"/>
        <pt x="360" y="465" on="0"/>
        <pt x="299" y="486" on="0"/>
        <pt x="229" y="486" on="1"/>
        <pt x="197" y="486" on="0"/>
        <pt x="110" y="478" on="0"/>
        <pt x="85" y="473" on="1"/>
        <pt x="85" y="506" on="1"/>
        <pt x="145" y="518" on="0"/>
        <pt x="241" y="518" on="1"/>
        <pt x="314" y="518" on="0"/>
        <pt x="388" y="488" on="0"/>
        <pt x="403" y="448" on="1"/>
        <pt x="421" y="486" on="0"/>
        <pt x="501" y="518" on="0"/>
        <pt x="578" y="518" on="1"/>
        <pt x="659" y="518" on="0"/>
        <pt x="730" y="474" on="0"/>
        <pt x="750" y="372" on="0"/>
        <pt x="750" y="260" on="1"/>
      </contour>
      <contour>
        <pt x="501" y="486" on="0"/>
        <pt x="438" y="457" on="0"/>
        <pt x="418" y="375" on="0"/>
        <pt x="418" y="279" on="1"/>
        <pt x="715" y="279" on="1"/>
        <pt x="715" y="296" on="1"/>
        <pt x="715" y="382" on="0"/>
        <pt x="691" y="461" on="0"/>
        <pt x="635" y="486" on="0"/>
        <pt x="575" y="486" on="1"/>
      </contour>
      <contour>
        <pt x="383" y="247" on="1"/>
        <pt x="200" y="247" on="1"/>
        <pt x="153" y="247" on="0"/>
        <pt x="107" y="232" on="0"/>
        <pt x="89" y="186" on="0"/>
        <pt x="89" y="138" on="1"/>
        <pt x="89" y="90" on="0"/>
        <pt x="110" y="42" on="0"/>
        <pt x="163" y="24" on="0"/>
        <pt x="217" y="24" on="1"/>
        <pt x="275" y="24" on="0"/>
        <pt x="347" y="47" on="0"/>
        <pt x="363" y="87" on="1"/>
        <pt x="374" y="114" on="0"/>
        <pt x="383" y="171" on="0"/>
        <pt x="383" y="210" on="1"/>
      </contour>
    </TTGlyph>
    <TTGlyph name="aeacute" xMin="54" yMin="-8" xMax="750" yMax="743">
      <component glyphName=".ttfautohint" x="54" y="0" flags="0x0"/>
      <component glyphName="ae" x="0" y="0" flags="0x0"/>
      <component glyphName="acutecomb" x="532" y="0" flags="0x0"/>
    </TTGlyph>
    <TTGlyph name="agrave" xMin="54" yMin="-8" xMax="418" yMax="743">
      <component glyphName=".ttfautohint" x="54" y="0" flags="0x0"/>
      <component glyphName="a" x="0" y="0" flags="0x0"/>
      <component glyphName="grave" x="147" y="0" flags="0x0"/>
    </TTGlyph>
    <TTGlyph name="amacron" xMin="54" yMin="-8" xMax="418" yMax="742">
      <component glyphName=".ttfautohint" x="54" y="0" flags="0x0"/>
      <component glyphName="a" x="0" y="0" flags="0x0"/>
      <component glyphName="uni0304" x="417" y="0" flags="0x0"/>
    </TTGlyph>
    <TTGlyph name="ampersand" xMin="66" yMin="-8" xMax="598" yMax="696">
      <contour>
        <pt x="598" y="366" on="1"/>
        <pt x="598" y="332" on="1"/>
        <pt x="492" y="332" on="1"/>
        <pt x="492" y="8" on="1"/>
        <pt x="478" y="4" on="0"/>
        <pt x="369" y="-8" on="0"/>
        <pt x="315" y="-8" on="1"/>
        <pt x="210" y="-8" on="0"/>
        <pt x="102" y="35" on="0"/>
        <pt x="66" y="115" on="0"/>
        <pt x="66" y="184" on="1"/>
        <pt x="66" y="263" on="0"/>
        <pt x="119" y="334" on="0"/>
        <pt x="177" y="349" on="1"/>
        <pt x="177" y="353" on="1"/>
        <pt x="122" y="368" on="0"/>
        <pt x="72" y="442" on="0"/>
        <pt x="72" y="515" on="1"/>
        <pt x="72" y="577" on="0"/>
        <pt x="110" y="654" on="0"/>
        <pt x="215" y="696" on="0"/>
        <pt x="314" y="696" on="1"/>
        <pt x="353" y="696" on="0"/>
        <pt x="453" y="687" on="0"/>
        <pt x="489" y="680" on="1"/>
        <pt x="489" y="648" on="1"/>
        <pt x="449" y="655" on="0"/>
        <pt x="361" y="664" on="0"/>
        <pt x="332" y="664" on="1"/>
        <pt x="234" y="664" on="0"/>
        <pt x="138" y="633" on="0"/>
        <pt x="107" y="571" on="0"/>
        <pt x="107" y="513" on="1"/>
        <pt x="107" y="474" on="0"/>
        <pt x="125" y="411" on="0"/>
        <pt x="189" y="366" on="0"/>
        <pt x="253" y="366" on="1"/>
        <pt x="351" y="366" on="1"/>
        <pt x="351" y="332" on="1"/>
        <pt x="253" y="332" on="1"/>
        <pt x="187" y="332" on="0"/>
        <pt x="121" y="295" on="0"/>
        <pt x="101" y="230" on="0"/>
        <pt x="101" y="177" on="1"/>
        <pt x="101" y="113" on="0"/>
        <pt x="147" y="47" on="0"/>
        <pt x="237" y="24" on="0"/>
        <pt x="315" y="24" on="1"/>
        <pt x="403" y="24" on="0"/>
        <pt x="457" y="36" on="1"/>
        <pt x="457" y="366" on="1"/>
      </contour>
    </TTGlyph>
    <TTGlyph name="aogonek" xMin="54" yMin="-196" xMax="422" yMax="518">
      <contour>
        <pt x="422" y="-163" on="1"/>
        <pt x="422" y="-195" on="1"/>
        <pt x="413" y="-196" on="0"/>
        <pt x="400" y="-196" on="1"/>
        <pt x="361" y="-196" on="0"/>
        <pt x="324" y="-157" on="0"/>
        <pt x="324" y="-126" on="1"/>
        <pt x="324" y="-94" on="0"/>
        <pt x="360" y="-24" on="0"/>
        <pt x="390" y="5" on="1"/>
        <pt x="387" y="80" on="1"/>
        <pt x="383" y="80" on="1"/>
        <pt x="366" y="27" on="0"/>
        <pt x="279" y="-8" on="0"/>
        <pt x="218" y="-8" on="1"/>
        <pt x="158" y="-8" on="0"/>
        <pt x="88" y="15" on="0"/>
        <pt x="54" y="78" on="0"/>
        <pt x="54" y="138" on="1"/>
        <pt x="54" y="195" on="0"/>
        <pt x="78" y="257" on="0"/>
        <pt x="137" y="283" on="0"/>
        <pt x="192" y="283" on="1"/>
        <pt x="223" y="283" on="0"/>
        <pt x="383" y="278" on="1"/>
        <pt x="383" y="324" on="1"/>
        <pt x="383" y="400" on="0"/>
        <pt x="360" y="465" on="0"/>
        <pt x="299" y="486" on="0"/>
        <pt x="229" y="486" on="1"/>
        <pt x="197" y="486" on="0"/>
        <pt x="110" y="478" on="0"/>
        <pt x="85" y="473" on="1"/>
        <pt x="85" y="506" on="1"/>
        <pt x="145" y="518" on="0"/>
        <pt x="241" y="518" on="1"/>
        <pt x="316" y="518" on="0"/>
        <pt x="390" y="487" on="0"/>
        <pt x="418" y="409" on="0"/>
        <pt x="418" y="330" on="1"/>
        <pt x="418" y="0" on="1"/>
        <pt x="397" y="-18" on="0"/>
        <pt x="358" y="-89" on="0"/>
        <pt x="358" y="-119" on="1"/>
        <pt x="358" y="-164" on="0"/>
        <pt x="405" y="-164" on="1"/>
      </contour>
      <contour>
        <pt x="383" y="251" on="1"/>
        <pt x="200" y="251" on="1"/>
        <pt x="153" y="251" on="0"/>
        <pt x="107" y="235" on="0"/>
        <pt x="89" y="188" on="0"/>
        <pt x="89" y="138" on="1"/>
        <pt x="89" y="90" on="0"/>
        <pt x="110" y="42" on="0"/>
        <pt x="163" y="24" on="0"/>
        <pt x="217" y="24" on="1"/>
        <pt x="275" y="24" on="0"/>
        <pt x="347" y="46" on="0"/>
        <pt x="362" y="84" on="1"/>
        <pt x="374" y="113" on="0"/>
        <pt x="383" y="171" on="0"/>
        <pt x="383" y="210" on="1"/>
      </contour>
    </TTGlyph>
    <TTGlyph name="approxequal" xMin="71" yMin="110" xMax="395" yMax="400">
      <contour>
        <pt x="71" y="349" on="0"/>
        <pt x="95" y="389" on="0"/>
        <pt x="133" y="389" on="1"/>
        <pt x="154" y="389" on="0"/>
        <pt x="195" y="378" on="0"/>
        <pt x="235" y="364" on="0"/>
        <pt x="244" y="361" on="1"/>
        <pt x="272" y="350" on="0"/>
        <pt x="314" y="338" on="0"/>
        <pt x="333" y="338" on="1"/>
        <pt x="354" y="338" on="0"/>
        <pt x="368" y="365" on="0"/>
        <pt x="368" y="400" on="1"/>
        <pt x="395" y="400" on="1"/>
        <pt x="395" y="345" on="0"/>
        <pt x="371" y="305" on="0"/>
        <pt x="333" y="305" on="1"/>
        <pt x="308" y="305" on="0"/>
        <pt x="257" y="319" on="0"/>
        <pt x="224" y="333" on="1"/>
        <pt x="195" y="344" on="0"/>
        <pt x="153" y="356" on="0"/>
        <pt x="133" y="356" on="1"/>
        <pt x="112" y="356" on="0"/>
        <pt x="98" y="329" on="0"/>
        <pt x="98" y="294" on="1"/>
        <pt x="71" y="294" on="1"/>
      </contour>
      <contour>
        <pt x="71" y="165" on="0"/>
        <pt x="95" y="205" on="0"/>
        <pt x="133" y="205" on="1"/>
        <pt x="158" y="205" on="0"/>
        <pt x="204" y="192" on="0"/>
        <pt x="244" y="177" on="1"/>
        <pt x="249" y="175" on="0"/>
        <pt x="287" y="162" on="0"/>
        <pt x="320" y="154" on="0"/>
        <pt x="333" y="154" on="1"/>
        <pt x="354" y="154" on="0"/>
        <pt x="368" y="181" on="0"/>
        <pt x="368" y="216" on="1"/>
        <pt x="395" y="216" on="1"/>
        <pt x="395" y="161" on="0"/>
        <pt x="371" y="121" on="0"/>
        <pt x="333" y="121" on="1"/>
        <pt x="309" y="121" on="0"/>
        <pt x="263" y="134" on="0"/>
        <pt x="223" y="149" on="1"/>
        <pt x="195" y="160" on="0"/>
        <pt x="153" y="172" on="0"/>
        <pt x="133" y="172" on="1"/>
        <pt x="112" y="172" on="0"/>
        <pt x="98" y="145" on="0"/>
        <pt x="98" y="110" on="1"/>
        <pt x="71" y="110" on="1"/>
      </contour>
    </TTGlyph>
    <TTGlyph name="aring" xMin="54" yMin="-8" xMax="418" yMax="796">
      <component glyphName=".ttfautohint" x="54" y="0" flags="0x0"/>
      <component glyphName="a" x="0" y="0" flags="0x0"/>
      <component glyphName="ring" x="129" y="0" flags="0x0"/>
    </TTGlyph>
    <TTGlyph name="aringacute" xMin="54" yMin="-8" xMax="418" yMax="969">
      <component glyphName=".ttfautohint" x="54" y="0" flags="0x0"/>
      <component glyphName="a" x="0" y="0" flags="0x0"/>
      <component glyphName="uni030A" x="373" y="0" flags="0x0"/>
      <component glyphName="acutecomb" x="378" y="226" flags="0x4"/>
    </TTGlyph>
    <TTGlyph name="arrowboth" xMin="55" yMin="192" xMax="828" yMax="417">
      <contour>
        <pt x="55" y="304" on="1"/>
        <pt x="310" y="417" on="1"/>
        <pt x="267" y="321" on="1"/>
        <pt x="615" y="321" on="1"/>
        <pt x="573" y="417" on="1"/>
        <pt x="828" y="304" on="1"/>
        <pt x="573" y="192" on="1"/>
        <pt x="615" y="287" on="1"/>
        <pt x="267" y="287" on="1"/>
        <pt x="310" y="192" on="1"/>
      </contour>
    </TTGlyph>
    <TTGlyph name="arrowdown" xMin="85" yMin="-85" xMax="310" yMax="688">
      <contour>
        <pt x="85" y="170" on="1"/>
        <pt x="181" y="127" on="1"/>
        <pt x="181" y="688" on="1"/>
        <pt x="215" y="688" on="1"/>
        <pt x="215" y="127" on="1"/>
        <pt x="310" y="170" on="1"/>
        <pt x="198" y="-85" on="1"/>
      </contour>
    </TTGlyph>
    <TTGlyph name="arrowdown.ss01" xMin="30" yMin="171" xMax="315" yMax="456">
      <contour>
        <pt x="30" y="456" on="1"/>
        <pt x="315" y="456" on="1"/>
        <pt x="173" y="171" on="1"/>
      </contour>
    </TTGlyph>
    <TTGlyph name="arrowleft" xMin="55" yMin="192" xMax="828" yMax="417">
      <contour>
        <pt x="300" y="192" on="1"/>
        <pt x="55" y="304" on="1"/>
        <pt x="300" y="417" on="1"/>
        <pt x="257" y="321" on="1"/>
        <pt x="828" y="321" on="1"/>
        <pt x="828" y="287" on="1"/>
        <pt x="257" y="287" on="1"/>
      </contour>
    </TTGlyph>
    <TTGlyph name="arrowleft.ss01" xMin="30" yMin="201" xMax="315" yMax="486">
      <contour>
        <pt x="30" y="343" on="1"/>
        <pt x="315" y="486" on="1"/>
        <pt x="315" y="201" on="1"/>
      </contour>
    </TTGlyph>
    <TTGlyph name="arrowright" xMin="55" yMin="192" xMax="828" yMax="417">
      <contour>
        <pt x="615" y="287" on="1"/>
        <pt x="55" y="287" on="1"/>
        <pt x="55" y="321" on="1"/>
        <pt x="615" y="321" on="1"/>
        <pt x="573" y="417" on="1"/>
        <pt x="828" y="304" on="1"/>
        <pt x="573" y="192" on="1"/>
      </contour>
    </TTGlyph>
    <TTGlyph name="arrowright.ss01" xMin="48" yMin="201" xMax="333" yMax="486">
      <contour>
        <pt x="48" y="486" on="1"/>
        <pt x="333" y="343" on="1"/>
        <pt x="48" y="201" on="1"/>
      </contour>
    </TTGlyph>
    <TTGlyph name="arrowup" xMin="85" yMin="-81" xMax="310" yMax="691">
      <contour>
        <pt x="181" y="478" on="1"/>
        <pt x="85" y="436" on="1"/>
        <pt x="198" y="691" on="1"/>
        <pt x="310" y="436" on="1"/>
        <pt x="215" y="478" on="1"/>
        <pt x="215" y="-81" on="1"/>
        <pt x="181" y="-81" on="1"/>
      </contour>
    </TTGlyph>
    <TTGlyph name="arrowup.ss01" xMin="30" yMin="231" xMax="315" yMax="516">
      <contour>
        <pt x="173" y="516" on="1"/>
        <pt x="315" y="231" on="1"/>
        <pt x="30" y="231" on="1"/>
      </contour>
    </TTGlyph>
    <TTGlyph name="arrowupdn" xMin="85" yMin="-85" xMax="310" yMax="696">
      <contour>
        <pt x="85" y="170" on="1"/>
        <pt x="181" y="127" on="1"/>
        <pt x="181" y="483" on="1"/>
        <pt x="85" y="441" on="1"/>
        <pt x="198" y="696" on="1"/>
        <pt x="310" y="441" on="1"/>
        <pt x="215" y="483" on="1"/>
        <pt x="215" y="127" on="1"/>
        <pt x="310" y="170" on="1"/>
        <pt x="198" y="-85" on="1"/>
      </contour>
    </TTGlyph>
    <TTGlyph name="arrowupdnbse" xMin="55" yMin="-163" xMax="340" yMax="696">
      <contour>
        <pt x="85" y="170" on="1"/>
        <pt x="181" y="127" on="1"/>
        <pt x="181" y="483" on="1"/>
        <pt x="85" y="441" on="1"/>
        <pt x="198" y="696" on="1"/>
        <pt x="310" y="441" on="1"/>
        <pt x="215" y="483" on="1"/>
        <pt x="215" y="127" on="1"/>
        <pt x="310" y="170" on="1"/>
        <pt x="198" y="-85" on="1"/>
      </contour>
      <contour>
        <pt x="55" y="-129" on="1"/>
        <pt x="340" y="-129" on="1"/>
        <pt x="340" y="-163" on="1"/>
        <pt x="55" y="-163" on="1"/>
      </contour>
    </TTGlyph>
    <TTGlyph name="asciicircum" xMin="67" yMin="459" xMax="380" yMax="749">
      <contour>
        <pt x="224" y="724" on="1"/>
        <pt x="104" y="459" on="1"/>
        <pt x="67" y="459" on="1"/>
        <pt x="199" y="749" on="1"/>
        <pt x="248" y="749" on="1"/>
        <pt x="380" y="459" on="1"/>
        <pt x="343" y="459" on="1"/>
      </contour>
    </TTGlyph>
    <TTGlyph name="asciitilde" xMin="71" yMin="249" xMax="395" yMax="355">
      <contour>
        <pt x="395" y="300" on="0"/>
        <pt x="371" y="260" on="0"/>
        <pt x="333" y="260" on="1"/>
        <pt x="309" y="260" on="0"/>
        <pt x="264" y="273" on="0"/>
        <pt x="223" y="288" on="1"/>
        <pt x="195" y="299" on="0"/>
        <pt x="153" y="311" on="0"/>
        <pt x="133" y="311" on="1"/>
        <pt x="112" y="311" on="0"/>
        <pt x="98" y="284" on="0"/>
        <pt x="98" y="249" on="1"/>
        <pt x="71" y="249" on="1"/>
        <pt x="71" y="304" on="0"/>
        <pt x="95" y="344" on="0"/>
        <pt x="133" y="344" on="1"/>
        <pt x="154" y="344" on="0"/>
        <pt x="197" y="333" on="0"/>
        <pt x="236" y="319" on="0"/>
        <pt x="243" y="316" on="1"/>
        <pt x="272" y="305" on="0"/>
        <pt x="314" y="293" on="0"/>
        <pt x="333" y="293" on="1"/>
        <pt x="354" y="293" on="0"/>
        <pt x="368" y="320" on="0"/>
        <pt x="368" y="355" on="1"/>
        <pt x="395" y="355" on="1"/>
      </contour>
    </TTGlyph>
    <TTGlyph name="asterisk" xMin="50" yMin="339" xMax="371" yMax="688">
      <contour>
        <pt x="229" y="339" on="1"/>
        <pt x="191" y="339" on="1"/>
        <pt x="197" y="490" on="1"/>
        <pt x="69" y="409" on="1"/>
        <pt x="50" y="442" on="1"/>
        <pt x="183" y="513" on="1"/>
        <pt x="50" y="585" on="1"/>
        <pt x="69" y="617" on="1"/>
        <pt x="197" y="536" on="1"/>
        <pt x="191" y="688" on="1"/>
        <pt x="229" y="688" on="1"/>
        <pt x="223" y="536" on="1"/>
        <pt x="352" y="618" on="1"/>
        <pt x="371" y="585" on="1"/>
        <pt x="237" y="513" on="1"/>
        <pt x="371" y="442" on="1"/>
        <pt x="352" y="410" on="1"/>
        <pt x="224" y="490" on="1"/>
      </contour>
    </TTGlyph>
    <TTGlyph name="asterisk.ss02" xMin="35" yMin="-14" xMax="782" yMax="705">
      <contour>
        <pt x="269" y="262" on="1"/>
        <pt x="35" y="436" on="1"/>
        <pt x="322" y="436" on="1"/>
        <pt x="409" y="705" on="1"/>
        <pt x="494" y="436" on="1"/>
        <pt x="782" y="436" on="1"/>
        <pt x="550" y="262" on="1"/>
        <pt x="640" y="-14" on="1"/>
        <pt x="409" y="156" on="1"/>
        <pt x="178" y="-14" on="1"/>
      </contour>
    </TTGlyph>
    <TTGlyph name="at" xMin="79" yMin="-108" xMax="725" yMax="696">
      <contour>
        <pt x="238" y="-108" on="0"/>
        <pt x="110" y="-52" on="0"/>
        <pt x="79" y="96" on="0"/>
        <pt x="79" y="294" on="1"/>
        <pt x="79" y="492" on="0"/>
        <pt x="110" y="640" on="0"/>
        <pt x="238" y="696" on="0"/>
        <pt x="402" y="696" on="1"/>
        <pt x="566" y="696" on="0"/>
        <pt x="694" y="640" on="0"/>
        <pt x="725" y="491" on="0"/>
        <pt x="725" y="294" on="1"/>
        <pt x="725" y="191" on="0"/>
        <pt x="705" y="99" on="0"/>
        <pt x="663" y="75" on="0"/>
        <pt x="617" y="75" on="1"/>
        <pt x="525" y="75" on="1"/>
        <pt x="522" y="143" on="1"/>
        <pt x="518" y="143" on="1"/>
        <pt x="505" y="98" on="0"/>
        <pt x="434" y="68" on="0"/>
        <pt x="385" y="68" on="1"/>
        <pt x="335" y="68" on="0"/>
        <pt x="277" y="88" on="0"/>
        <pt x="249" y="142" on="0"/>
        <pt x="249" y="193" on="1"/>
        <pt x="249" y="241" on="0"/>
        <pt x="269" y="295" on="0"/>
        <pt x="318" y="319" on="0"/>
        <pt x="363" y="319" on="1"/>
        <pt x="416" y="319" on="0"/>
        <pt x="518" y="315" on="1"/>
        <pt x="518" y="352" on="1"/>
        <pt x="518" y="415" on="0"/>
        <pt x="501" y="469" on="0"/>
        <pt x="452" y="486" on="0"/>
        <pt x="396" y="486" on="1"/>
        <pt x="368" y="486" on="0"/>
        <pt x="296" y="479" on="0"/>
        <pt x="276" y="475" on="1"/>
        <pt x="276" y="508" on="1"/>
        <pt x="329" y="518" on="0"/>
        <pt x="407" y="518" on="1"/>
        <pt x="469" y="518" on="0"/>
        <pt x="530" y="491" on="0"/>
        <pt x="553" y="425" on="0"/>
        <pt x="553" y="358" on="1"/>
        <pt x="553" y="105" on="1"/>
        <pt x="627" y="105" on="1"/>
        <pt x="653" y="105" on="0"/>
        <pt x="678" y="124" on="0"/>
        <pt x="691" y="204" on="0"/>
        <pt x="691" y="294" on="1"/>
        <pt x="691" y="451" on="0"/>
        <pt x="675" y="587" on="0"/>
        <pt x="614" y="650" on="0"/>
        <pt x="542" y="658" on="1"/>
        <pt x="483" y="666" on="0"/>
        <pt x="401" y="666" on="1"/>
        <pt x="330" y="666" on="0"/>
        <pt x="264" y="659" on="1"/>
        <pt x="190" y="652" on="0"/>
        <pt x="128" y="590" on="0"/>
        <pt x="112" y="454" on="0"/>
        <pt x="112" y="294" on="1"/>
        <pt x="112" y="135" on="0"/>
        <pt x="130" y="0" on="0"/>
        <pt x="197" y="-63" on="0"/>
        <pt x="278" y="-72" on="1"/>
        <pt x="315" y="-77" on="0"/>
        <pt x="402" y="-77" on="1"/>
        <pt x="514" y="-77" on="0"/>
        <pt x="553" y="-74" on="1"/>
        <pt x="553" y="-106" on="1"/>
        <pt x="526" y="-108" on="0"/>
        <pt x="402" y="-108" on="1"/>
      </contour>
      <contour>
        <pt x="435" y="100" on="0"/>
        <pt x="492" y="127" on="0"/>
        <pt x="518" y="193" on="0"/>
        <pt x="518" y="254" on="1"/>
        <pt x="518" y="287" on="1"/>
        <pt x="370" y="287" on="1"/>
        <pt x="333" y="287" on="0"/>
        <pt x="298" y="274" on="0"/>
        <pt x="284" y="235" on="0"/>
        <pt x="284" y="193" on="1"/>
        <pt x="284" y="153" on="0"/>
        <pt x="300" y="115" on="0"/>
        <pt x="341" y="100" on="0"/>
        <pt x="384" y="100" on="1"/>
      </contour>
    </TTGlyph>
    <TTGlyph name="atilde" xMin="54" yMin="-8" xMax="418" yMax="743">
      <component glyphName=".ttfautohint" x="54" y="0" flags="0x0"/>
      <component glyphName="a" x="0" y="0" flags="0x0"/>
      <component glyphName="tilde" x="85" y="0" flags="0x0"/>
    </TTGlyph>
    <TTGlyph name="b" xMin="87" yMin="-8" xMax="462" yMax="743">
      <contour>
        <pt x="220" y="-8" on="0"/>
        <pt x="138" y="27" on="0"/>
        <pt x="122" y="80" on="1"/>
        <pt x="118" y="80" on="1"/>
        <pt x="115" y="0" on="1"/>
        <pt x="87" y="0" on="1"/>
        <pt x="87" y="743" on="1"/>
        <pt x="122" y="743" on="1"/>
        <pt x="122" y="439" on="1"/>
        <pt x="126" y="439" on="1"/>
        <pt x="141" y="482" on="0"/>
        <pt x="217" y="518" on="0"/>
        <pt x="283" y="518" on="1"/>
        <pt x="360" y="518" on="0"/>
        <pt x="435" y="475" on="0"/>
        <pt x="462" y="367" on="0"/>
        <pt x="462" y="255" on="1"/>
        <pt x="462" y="143" on="0"/>
        <pt x="435" y="35" on="0"/>
        <pt x="360" y="-8" on="0"/>
        <pt x="283" y="-8" on="1"/>
      </contour>
      <contour>
        <pt x="344" y="24" on="0"/>
        <pt x="406" y="56" on="0"/>
        <pt x="427" y="149" on="0"/>
        <pt x="427" y="255" on="1"/>
        <pt x="427" y="361" on="0"/>
        <pt x="406" y="454" on="0"/>
        <pt x="344" y="486" on="0"/>
        <pt x="274" y="486" on="1"/>
        <pt x="216" y="486" on="0"/>
        <pt x="148" y="448" on="0"/>
        <pt x="136" y="409" on="1"/>
        <pt x="127" y="378" on="0"/>
        <pt x="122" y="310" on="0"/>
        <pt x="122" y="255" on="1"/>
        <pt x="122" y="198" on="0"/>
        <pt x="126" y="133" on="0"/>
        <pt x="135" y="103" on="1"/>
        <pt x="147" y="62" on="0"/>
        <pt x="215" y="24" on="0"/>
        <pt x="274" y="24" on="1"/>
      </contour>
    </TTGlyph>
    <TTGlyph name="backslash" xMin="10" yMin="-55" xMax="288" yMax="743">
      <contour>
        <pt x="10" y="743" on="1"/>
        <pt x="47" y="743" on="1"/>
        <pt x="288" y="-55" on="1"/>
        <pt x="252" y="-55" on="1"/>
      </contour>
    </TTGlyph>
    <TTGlyph name="bar" xMin="104" yMin="-161" xMax="139" yMax="743">
      <contour>
        <pt x="104" y="743" on="1"/>
        <pt x="139" y="743" on="1"/>
        <pt x="139" y="-161" on="1"/>
        <pt x="104" y="-161" on="1"/>
      </contour>
    </TTGlyph>
    <TTGlyph name="bar.ss02" xMin="-1" yMin="0" xMax="499" yMax="696">
      <contour>
        <pt x="-1" y="696" on="1"/>
        <pt x="499" y="696" on="1"/>
        <pt x="499" y="0" on="1"/>
        <pt x="-1" y="0" on="1"/>
      </contour>
    </TTGlyph>
    <TTGlyph name="braceleft" xMin="27" yMin="-150" xMax="252" yMax="743">
      <contour>
        <pt x="175" y="-127" on="0"/>
        <pt x="122" y="-21" on="0"/>
        <pt x="122" y="37" on="1"/>
        <pt x="122" y="152" on="1"/>
        <pt x="122" y="207" on="0"/>
        <pt x="77" y="282" on="0"/>
        <pt x="27" y="282" on="1"/>
        <pt x="27" y="311" on="1"/>
        <pt x="77" y="311" on="0"/>
        <pt x="122" y="387" on="0"/>
        <pt x="122" y="441" on="1"/>
        <pt x="122" y="556" on="1"/>
        <pt x="122" y="614" on="0"/>
        <pt x="175" y="720" on="0"/>
        <pt x="215" y="743" on="1"/>
        <pt x="252" y="743" on="1"/>
        <pt x="211" y="714" on="0"/>
        <pt x="157" y="616" on="0"/>
        <pt x="157" y="568" on="1"/>
        <pt x="157" y="447" on="1"/>
        <pt x="157" y="386" on="0"/>
        <pt x="122" y="311" on="0"/>
        <pt x="82" y="299" on="1"/>
        <pt x="82" y="294" on="1"/>
        <pt x="122" y="282" on="0"/>
        <pt x="157" y="207" on="0"/>
        <pt x="157" y="146" on="1"/>
        <pt x="157" y="25" on="1"/>
        <pt x="157" y="-23" on="0"/>
        <pt x="211" y="-121" on="0"/>
        <pt x="252" y="-150" on="1"/>
        <pt x="215" y="-150" on="1"/>
      </contour>
    </TTGlyph>
    <TTGlyph name="braceright" xMin="17" yMin="-150" xMax="242" yMax="743">
      <contour>
        <pt x="58" y="-122" on="0"/>
        <pt x="111" y="-23" on="0"/>
        <pt x="111" y="25" on="1"/>
        <pt x="111" y="146" on="1"/>
        <pt x="111" y="271" on="0"/>
        <pt x="187" y="294" on="1"/>
        <pt x="187" y="299" on="1"/>
        <pt x="111" y="322" on="0"/>
        <pt x="111" y="447" on="1"/>
        <pt x="111" y="568" on="1"/>
        <pt x="111" y="616" on="0"/>
        <pt x="58" y="715" on="0"/>
        <pt x="17" y="743" on="1"/>
        <pt x="53" y="743" on="1"/>
        <pt x="93" y="720" on="0"/>
        <pt x="146" y="614" on="0"/>
        <pt x="146" y="556" on="1"/>
        <pt x="146" y="441" on="1"/>
        <pt x="146" y="387" on="0"/>
        <pt x="192" y="311" on="0"/>
        <pt x="242" y="311" on="1"/>
        <pt x="242" y="282" on="1"/>
        <pt x="192" y="282" on="0"/>
        <pt x="146" y="206" on="0"/>
        <pt x="146" y="152" on="1"/>
        <pt x="146" y="37" on="1"/>
        <pt x="146" y="-21" on="0"/>
        <pt x="93" y="-127" on="0"/>
        <pt x="53" y="-150" on="1"/>
        <pt x="17" y="-150" on="1"/>
      </contour>
    </TTGlyph>
    <TTGlyph name="bracketleft" xMin="99" yMin="-150" xMax="236" yMax="743">
      <contour>
        <pt x="99" y="743" on="1"/>
        <pt x="236" y="743" on="1"/>
        <pt x="236" y="710" on="1"/>
        <pt x="134" y="706" on="1"/>
        <pt x="134" y="-113" on="1"/>
        <pt x="236" y="-117" on="1"/>
        <pt x="236" y="-150" on="1"/>
        <pt x="99" y="-150" on="1"/>
      </contour>
    </TTGlyph>
    <TTGlyph name="bracketleft.ss02" xMin="45" yMin="0" xMax="397" yMax="696">
      <contour>
        <pt x="45" y="0" on="1"/>
        <pt x="45" y="348" on="1"/>
        <pt x="45" y="449" on="0"/>
        <pt x="135" y="608" on="0"/>
        <pt x="295" y="696" on="0"/>
        <pt x="397" y="696" on="1"/>
        <pt x="397" y="0" on="1"/>
      </contour>
    </TTGlyph>
    <TTGlyph name="bracketright" xMin="33" yMin="-150" xMax="171" yMax="743">
      <contour>
        <pt x="33" y="-117" on="1"/>
        <pt x="136" y="-113" on="1"/>
        <pt x="136" y="706" on="1"/>
        <pt x="33" y="710" on="1"/>
        <pt x="33" y="743" on="1"/>
        <pt x="171" y="743" on="1"/>
        <pt x="171" y="-150" on="1"/>
        <pt x="33" y="-150" on="1"/>
      </contour>
    </TTGlyph>
    <TTGlyph name="bracketright.ss02" xMin="0" yMin="0" xMax="352" yMax="696">
      <contour>
        <pt x="0" y="696" on="1"/>
        <pt x="102" y="696" on="0"/>
        <pt x="262" y="608" on="0"/>
        <pt x="352" y="449" on="0"/>
        <pt x="352" y="348" on="1"/>
        <pt x="352" y="0" on="1"/>
        <pt x="0" y="0" on="1"/>
      </contour>
    </TTGlyph>
    <TTGlyph name="breve" xMin="13" yMin="602" xMax="246" yMax="743">
      <contour>
        <pt x="246" y="691" on="0"/>
        <pt x="234" y="636" on="0"/>
        <pt x="184" y="602" on="0"/>
        <pt x="129" y="602" on="1"/>
        <pt x="74" y="602" on="0"/>
        <pt x="24" y="636" on="0"/>
        <pt x="13" y="691" on="0"/>
        <pt x="13" y="743" on="1"/>
        <pt x="45" y="743" on="1"/>
        <pt x="45" y="698" on="0"/>
        <pt x="53" y="654" on="0"/>
        <pt x="89" y="630" on="0"/>
        <pt x="129" y="630" on="1"/>
        <pt x="169" y="630" on="0"/>
        <pt x="206" y="654" on="0"/>
        <pt x="214" y="698" on="0"/>
        <pt x="214" y="743" on="1"/>
        <pt x="246" y="743" on="1"/>
      </contour>
    </TTGlyph>
    <TTGlyph name="brokenbar" xMin="104" yMin="-161" xMax="139" yMax="743">
      <contour>
        <pt x="104" y="743" on="1"/>
        <pt x="139" y="743" on="1"/>
        <pt x="139" y="390" on="1"/>
        <pt x="104" y="390" on="1"/>
      </contour>
      <contour>
        <pt x="104" y="192" on="1"/>
        <pt x="139" y="192" on="1"/>
        <pt x="139" y="-161" on="1"/>
        <pt x="104" y="-161" on="1"/>
      </contour>
    </TTGlyph>
    <TTGlyph name="bullet" xMin="68" yMin="250" xMax="256" yMax="437">
      <contour>
        <pt x="256" y="298" on="0"/>
        <pt x="246" y="263" on="0"/>
        <pt x="208" y="250" on="0"/>
        <pt x="161" y="250" on="1"/>
        <pt x="115" y="250" on="0"/>
        <pt x="78" y="263" on="0"/>
        <pt x="68" y="298" on="0"/>
        <pt x="68" y="342" on="1"/>
        <pt x="68" y="387" on="0"/>
        <pt x="78" y="424" on="0"/>
        <pt x="115" y="437" on="0"/>
        <pt x="161" y="437" on="1"/>
        <pt x="208" y="437" on="0"/>
        <pt x="246" y="424" on="0"/>
        <pt x="256" y="387" on="0"/>
        <pt x="256" y="342" on="1"/>
      </contour>
    </TTGlyph>
    <TTGlyph name="bullet.ss02" xMin="40" yMin="-8" xMax="743" yMax="696">
      <contour>
        <pt x="343" y="421" on="0"/>
        <pt x="279" y="480" on="0"/>
        <pt x="279" y="533" on="1"/>
        <pt x="279" y="575" on="0"/>
        <pt x="318" y="650" on="0"/>
        <pt x="373" y="696" on="0"/>
        <pt x="392" y="696" on="1"/>
        <pt x="411" y="696" on="0"/>
        <pt x="465" y="650" on="0"/>
        <pt x="504" y="575" on="0"/>
        <pt x="504" y="533" on="1"/>
        <pt x="504" y="480" on="0"/>
        <pt x="441" y="421" on="0"/>
        <pt x="392" y="421" on="1"/>
      </contour>
      <contour>
        <pt x="415" y="481" on="0"/>
        <pt x="444" y="508" on="0"/>
        <pt x="444" y="533" on="1"/>
        <pt x="444" y="560" on="0"/>
        <pt x="426" y="607" on="0"/>
        <pt x="401" y="636" on="0"/>
        <pt x="392" y="636" on="1"/>
        <pt x="383" y="636" on="0"/>
        <pt x="358" y="607" on="0"/>
        <pt x="339" y="560" on="0"/>
        <pt x="339" y="533" on="1"/>
        <pt x="339" y="508" on="0"/>
        <pt x="369" y="481" on="0"/>
        <pt x="392" y="481" on="1"/>
      </contour>
      <contour>
        <pt x="161" y="231" on="0"/>
        <pt x="86" y="270" on="0"/>
        <pt x="40" y="325" on="0"/>
        <pt x="40" y="344" on="1"/>
        <pt x="40" y="363" on="0"/>
        <pt x="86" y="417" on="0"/>
        <pt x="161" y="456" on="0"/>
        <pt x="203" y="456" on="1"/>
        <pt x="256" y="456" on="0"/>
        <pt x="315" y="393" on="0"/>
        <pt x="315" y="344" on="1"/>
        <pt x="315" y="295" on="0"/>
        <pt x="256" y="231" on="0"/>
        <pt x="203" y="231" on="1"/>
      </contour>
      <contour>
        <pt x="527" y="231" on="0"/>
        <pt x="468" y="295" on="0"/>
        <pt x="468" y="344" on="1"/>
        <pt x="468" y="393" on="0"/>
        <pt x="527" y="456" on="0"/>
        <pt x="581" y="456" on="1"/>
        <pt x="622" y="456" on="0"/>
        <pt x="697" y="417" on="0"/>
        <pt x="743" y="363" on="0"/>
        <pt x="743" y="344" on="1"/>
        <pt x="743" y="325" on="0"/>
        <pt x="697" y="270" on="0"/>
        <pt x="623" y="231" on="0"/>
        <pt x="581" y="231" on="1"/>
      </contour>
      <contour>
        <pt x="228" y="291" on="0"/>
        <pt x="255" y="321" on="0"/>
        <pt x="255" y="344" on="1"/>
        <pt x="255" y="367" on="0"/>
        <pt x="228" y="396" on="0"/>
        <pt x="203" y="396" on="1"/>
        <pt x="176" y="396" on="0"/>
        <pt x="129" y="378" on="0"/>
        <pt x="100" y="353" on="0"/>
        <pt x="100" y="344" on="1"/>
        <pt x="100" y="335" on="0"/>
        <pt x="129" y="310" on="0"/>
        <pt x="176" y="291" on="0"/>
        <pt x="203" y="291" on="1"/>
      </contour>
      <contour>
        <pt x="607" y="291" on="0"/>
        <pt x="654" y="310" on="0"/>
        <pt x="683" y="335" on="0"/>
        <pt x="683" y="344" on="1"/>
        <pt x="683" y="353" on="0"/>
        <pt x="654" y="378" on="0"/>
        <pt x="607" y="396" on="0"/>
        <pt x="581" y="396" on="1"/>
        <pt x="556" y="396" on="0"/>
        <pt x="528" y="367" on="0"/>
        <pt x="528" y="344" on="1"/>
        <pt x="528" y="321" on="0"/>
        <pt x="556" y="291" on="0"/>
        <pt x="581" y="291" on="1"/>
      </contour>
      <contour>
        <pt x="373" y="-8" on="0"/>
        <pt x="318" y="38" on="0"/>
        <pt x="279" y="113" on="0"/>
        <pt x="279" y="155" on="1"/>
        <pt x="279" y="208" on="0"/>
        <pt x="343" y="267" on="0"/>
        <pt x="392" y="267" on="1"/>
        <pt x="441" y="267" on="0"/>
        <pt x="504" y="208" on="0"/>
        <pt x="504" y="155" on="1"/>
        <pt x="504" y="113" on="0"/>
        <pt x="465" y="38" on="0"/>
        <pt x="411" y="-8" on="0"/>
        <pt x="392" y="-8" on="1"/>
      </contour>
      <contour>
        <pt x="401" y="52" on="0"/>
        <pt x="426" y="81" on="0"/>
        <pt x="444" y="128" on="0"/>
        <pt x="444" y="155" on="1"/>
        <pt x="444" y="180" on="0"/>
        <pt x="415" y="207" on="0"/>
        <pt x="392" y="207" on="1"/>
        <pt x="369" y="207" on="0"/>
        <pt x="339" y="180" on="0"/>
        <pt x="339" y="155" on="1"/>
        <pt x="339" y="128" on="0"/>
        <pt x="358" y="81" on="0"/>
        <pt x="383" y="52" on="0"/>
        <pt x="392" y="52" on="1"/>
      </contour>
    </TTGlyph>
    <TTGlyph name="c" xMin="65" yMin="-8" xMax="362" yMax="518">
      <contour>
        <pt x="341" y="-1" on="0"/>
        <pt x="276" y="-8" on="0"/>
        <pt x="246" y="-8" on="1"/>
        <pt x="164" y="-8" on="0"/>
        <pt x="88" y="42" on="0"/>
        <pt x="65" y="148" on="0"/>
        <pt x="65" y="254" on="1"/>
        <pt x="65" y="363" on="0"/>
        <pt x="94" y="474" on="0"/>
        <pt x="168" y="518" on="0"/>
        <pt x="241" y="518" on="1"/>
        <pt x="270" y="518" on="0"/>
        <pt x="335" y="512" on="0"/>
        <pt x="358" y="507" on="1"/>
        <pt x="358" y="474" on="1"/>
        <pt x="303" y="486" on="0"/>
        <pt x="247" y="486" on="1"/>
        <pt x="182" y="486" on="0"/>
        <pt x="122" y="449" on="0"/>
        <pt x="100" y="354" on="0"/>
        <pt x="100" y="256" on="1"/>
        <pt x="100" y="154" on="0"/>
        <pt x="122" y="59" on="0"/>
        <pt x="183" y="24" on="0"/>
        <pt x="250" y="24" on="1"/>
        <pt x="278" y="24" on="0"/>
        <pt x="341" y="32" on="0"/>
        <pt x="362" y="37" on="1"/>
        <pt x="362" y="4" on="1"/>
      </contour>
    </TTGlyph>
    <TTGlyph name="cacute" xMin="65" yMin="-8" xMax="362" yMax="743">
      <component glyphName=".ttfautohint" x="65" y="0" flags="0x0"/>
      <component glyphName="c" x="0" y="0" flags="0x0"/>
      <component glyphName="acutecomb" x="328" y="0" flags="0x0"/>
    </TTGlyph>
    <TTGlyph name="cacute.loclPLK" xMin="65" yMin="-8" xMax="362" yMax="743">
      <component glyphName=".ttfautohint" x="65" y="0" flags="0x0"/>
      <component glyphName="c" x="0" y="0" flags="0x0"/>
      <component glyphName="acute.loclPLK" x="174" y="0" flags="0x0"/>
    </TTGlyph>
    <TTGlyph name="caron" xMin="13" yMin="605" xMax="247" yMax="743">
      <contour>
        <pt x="13" y="738" on="1"/>
        <pt x="13" y="743" on="1"/>
        <pt x="40" y="743" on="1"/>
        <pt x="130" y="635" on="1"/>
        <pt x="220" y="743" on="1"/>
        <pt x="247" y="743" on="1"/>
        <pt x="247" y="738" on="1"/>
        <pt x="153" y="605" on="1"/>
        <pt x="107" y="605" on="1"/>
      </contour>
    </TTGlyph>
    <TTGlyph name="caron.loclCSY" xMin="45" yMin="454" xMax="96" yMax="688">
      <contour>
        <pt x="57" y="599" on="1"/>
        <pt x="57" y="688" on="1"/>
        <pt x="96" y="688" on="1"/>
        <pt x="96" y="599" on="1"/>
        <pt x="68" y="454" on="1"/>
        <pt x="45" y="454" on="1"/>
      </contour>
    </TTGlyph>
    <TTGlyph name="ccaron" xMin="65" yMin="-8" xMax="362" yMax="743">
      <component glyphName=".ttfautohint" x="65" y="0" flags="0x0"/>
      <component glyphName="c" x="0" y="0" flags="0x0"/>
      <component glyphName="uni030C" x="334" y="0" flags="0x0"/>
    </TTGlyph>
    <TTGlyph name="ccedilla" xMin="65" yMin="-190" xMax="362" yMax="518">
      <contour>
        <pt x="278" y="24" on="0"/>
        <pt x="341" y="32" on="0"/>
        <pt x="362" y="37" on="1"/>
        <pt x="362" y="4" on="1"/>
        <pt x="341" y="-1" on="0"/>
        <pt x="276" y="-8" on="0"/>
        <pt x="246" y="-8" on="1"/>
        <pt x="225" y="-8" on="0"/>
        <pt x="216" y="-7" on="1"/>
        <pt x="174" y="-190" on="1"/>
        <pt x="134" y="-190" on="1"/>
        <pt x="134" y="-185" on="1"/>
        <pt x="188" y="-4" on="1"/>
        <pt x="134" y="4" on="0"/>
        <pt x="81" y="61" on="0"/>
        <pt x="65" y="162" on="0"/>
        <pt x="65" y="254" on="1"/>
        <pt x="65" y="363" on="0"/>
        <pt x="94" y="474" on="0"/>
        <pt x="168" y="518" on="0"/>
        <pt x="241" y="518" on="1"/>
        <pt x="270" y="518" on="0"/>
        <pt x="335" y="512" on="0"/>
        <pt x="358" y="507" on="1"/>
        <pt x="358" y="474" on="1"/>
        <pt x="303" y="486" on="0"/>
        <pt x="247" y="486" on="1"/>
        <pt x="182" y="486" on="0"/>
        <pt x="122" y="449" on="0"/>
        <pt x="100" y="354" on="0"/>
        <pt x="100" y="256" on="1"/>
        <pt x="100" y="154" on="0"/>
        <pt x="122" y="59" on="0"/>
        <pt x="183" y="24" on="0"/>
        <pt x="250" y="24" on="1"/>
      </contour>
    </TTGlyph>
    <TTGlyph name="ccircumflex" xMin="65" yMin="-8" xMax="362" yMax="743">
      <component glyphName=".ttfautohint" x="65" y="0" flags="0x0"/>
      <component glyphName="c" x="0" y="0" flags="0x0"/>
      <component glyphName="uni0302" x="334" y="0" flags="0x0"/>
    </TTGlyph>
    <TTGlyph name="cdotaccent" xMin="65" yMin="-8" xMax="362" yMax="731">
      <component glyphName=".ttfautohint" x="65" y="0" flags="0x0"/>
      <component glyphName="c" x="0" y="0" flags="0x0"/>
      <component glyphName="uni0307" x="244" y="0" flags="0x0"/>
    </TTGlyph>
    <TTGlyph name="cedilla" xMin="20" yMin="-190" xMax="104" yMax="8">
      <contour>
        <pt x="20" y="-185" on="1"/>
        <pt x="78" y="8" on="1"/>
        <pt x="104" y="8" on="1"/>
        <pt x="104" y="3" on="1"/>
        <pt x="60" y="-190" on="1"/>
        <pt x="20" y="-190" on="1"/>
      </contour>
    </TTGlyph>
    <TTGlyph name="cent" xMin="67" yMin="-8" xMax="372" yMax="696">
      <contour>
        <pt x="372" y="80" on="1"/>
        <pt x="328" y="69" on="0"/>
        <pt x="268" y="68" on="1"/>
        <pt x="268" y="-8" on="1"/>
        <pt x="234" y="-8" on="1"/>
        <pt x="234" y="68" on="1"/>
        <pt x="162" y="71" on="0"/>
        <pt x="91" y="121" on="0"/>
        <pt x="67" y="232" on="0"/>
        <pt x="67" y="342" on="1"/>
        <pt x="67" y="456" on="0"/>
        <pt x="98" y="573" on="0"/>
        <pt x="167" y="617" on="0"/>
        <pt x="234" y="619" on="1"/>
        <pt x="234" y="696" on="1"/>
        <pt x="268" y="696" on="1"/>
        <pt x="268" y="619" on="1"/>
        <pt x="308" y="618" on="0"/>
        <pt x="367" y="607" on="1"/>
        <pt x="367" y="573" on="1"/>
        <pt x="330" y="583" on="0"/>
        <pt x="268" y="585" on="1"/>
        <pt x="268" y="101" on="1"/>
        <pt x="322" y="102" on="0"/>
        <pt x="372" y="115" on="1"/>
      </contour>
      <contour>
        <pt x="104" y="242" on="0"/>
        <pt x="124" y="144" on="0"/>
        <pt x="177" y="104" on="0"/>
        <pt x="234" y="101" on="1"/>
        <pt x="234" y="585" on="1"/>
        <pt x="178" y="582" on="0"/>
        <pt x="124" y="543" on="0"/>
        <pt x="104" y="445" on="0"/>
        <pt x="104" y="344" on="1"/>
      </contour>
    </TTGlyph>
    <TTGlyph name="circumflex" xMin="13" yMin="605" xMax="247" yMax="743">
      <contour>
        <pt x="13" y="610" on="1"/>
        <pt x="107" y="743" on="1"/>
        <pt x="153" y="743" on="1"/>
        <pt x="247" y="610" on="1"/>
        <pt x="247" y="605" on="1"/>
        <pt x="220" y="605" on="1"/>
        <pt x="130" y="713" on="1"/>
        <pt x="40" y="605" on="1"/>
        <pt x="13" y="605" on="1"/>
      </contour>
    </TTGlyph>
    <TTGlyph name="colon" xMin="61" yMin="0" xMax="107" yMax="510">
      <contour>
        <pt x="61" y="510" on="1"/>
        <pt x="107" y="510" on="1"/>
        <pt x="107" y="445" on="1"/>
        <pt x="61" y="445" on="1"/>
      </contour>
      <contour>
        <pt x="61" y="65" on="1"/>
        <pt x="107" y="65" on="1"/>
        <pt x="107" y="0" on="1"/>
        <pt x="61" y="0" on="1"/>
      </contour>
    </TTGlyph>
    <TTGlyph name="comma" xMin="32" yMin="-101" xMax="107" yMax="65">
      <contour>
        <pt x="54" y="-80" on="0"/>
        <pt x="74" y="-69" on="0"/>
        <pt x="80" y="-44" on="0"/>
        <pt x="80" y="-17" on="1"/>
        <pt x="80" y="0" on="1"/>
        <pt x="60" y="0" on="1"/>
        <pt x="60" y="65" on="1"/>
        <pt x="107" y="65" on="1"/>
        <pt x="107" y="-10" on="1"/>
        <pt x="107" y="-47" on="0"/>
        <pt x="95" y="-85" on="0"/>
        <pt x="63" y="-101" on="0"/>
        <pt x="32" y="-101" on="1"/>
        <pt x="32" y="-80" on="1"/>
      </contour>
    </TTGlyph>
    <TTGlyph name="copyright" xMin="83" yMin="-8" xMax="564" yMax="696">
      <contour>
        <pt x="202" y="-8" on="0"/>
        <pt x="108" y="39" on="0"/>
        <pt x="83" y="171" on="0"/>
        <pt x="83" y="344" on="1"/>
        <pt x="83" y="517" on="0"/>
        <pt x="108" y="649" on="0"/>
        <pt x="202" y="696" on="0"/>
        <pt x="324" y="696" on="1"/>
        <pt x="445" y="696" on="0"/>
        <pt x="540" y="649" on="0"/>
        <pt x="564" y="517" on="0"/>
        <pt x="564" y="344" on="1"/>
        <pt x="564" y="171" on="0"/>
        <pt x="540" y="39" on="0"/>
        <pt x="445" y="-8" on="0"/>
        <pt x="324" y="-8" on="1"/>
      </contour>
      <contour>
        <pt x="432" y="18" on="0"/>
        <pt x="513" y="57" on="0"/>
        <pt x="535" y="179" on="0"/>
        <pt x="535" y="344" on="1"/>
        <pt x="535" y="509" on="0"/>
        <pt x="513" y="631" on="0"/>
        <pt x="432" y="670" on="0"/>
        <pt x="324" y="670" on="1"/>
        <pt x="216" y="670" on="0"/>
        <pt x="134" y="631" on="0"/>
        <pt x="112" y="509" on="0"/>
        <pt x="112" y="344" on="1"/>
        <pt x="112" y="179" on="0"/>
        <pt x="134" y="57" on="0"/>
        <pt x="216" y="18" on="0"/>
        <pt x="324" y="18" on="1"/>
      </contour>
      <contour>
        <pt x="286" y="154" on="0"/>
        <pt x="236" y="179" on="0"/>
        <pt x="218" y="255" on="0"/>
        <pt x="218" y="344" on="1"/>
        <pt x="218" y="432" on="0"/>
        <pt x="236" y="508" on="0"/>
        <pt x="286" y="534" on="0"/>
        <pt x="344" y="534" on="1"/>
        <pt x="395" y="534" on="0"/>
        <pt x="416" y="528" on="1"/>
        <pt x="416" y="499" on="1"/>
        <pt x="386" y="504" on="0"/>
        <pt x="348" y="504" on="1"/>
        <pt x="300" y="504" on="0"/>
        <pt x="261" y="484" on="0"/>
        <pt x="248" y="421" on="0"/>
        <pt x="248" y="344" on="1"/>
        <pt x="248" y="267" on="0"/>
        <pt x="261" y="204" on="0"/>
        <pt x="300" y="184" on="0"/>
        <pt x="348" y="184" on="1"/>
        <pt x="389" y="184" on="0"/>
        <pt x="417" y="189" on="1"/>
        <pt x="417" y="159" on="1"/>
        <pt x="387" y="154" on="0"/>
        <pt x="344" y="154" on="1"/>
      </contour>
    </TTGlyph>
    <TTGlyph name="currency" xMin="65" yMin="-13" xMax="615" yMax="700">
      <contour>
        <pt x="65" y="10" on="1"/>
        <pt x="178" y="122" on="1"/>
        <pt x="160" y="149" on="0"/>
        <pt x="149" y="248" on="0"/>
        <pt x="149" y="345" on="1"/>
        <pt x="149" y="439" on="0"/>
        <pt x="160" y="537" on="0"/>
        <pt x="177" y="565" on="1"/>
        <pt x="65" y="677" on="1"/>
        <pt x="88" y="700" on="1"/>
        <pt x="198" y="590" on="1"/>
        <pt x="219" y="605" on="0"/>
        <pt x="286" y="618" on="0"/>
        <pt x="340" y="618" on="1"/>
        <pt x="394" y="618" on="0"/>
        <pt x="462" y="605" on="0"/>
        <pt x="482" y="589" on="1"/>
        <pt x="593" y="699" on="1"/>
        <pt x="615" y="677" on="1"/>
        <pt x="503" y="566" on="1"/>
        <pt x="520" y="537" on="0"/>
        <pt x="531" y="439" on="0"/>
        <pt x="531" y="345" on="1"/>
        <pt x="531" y="249" on="0"/>
        <pt x="520" y="150" on="0"/>
        <pt x="503" y="122" on="1"/>
        <pt x="615" y="10" on="1"/>
        <pt x="592" y="-13" on="1"/>
        <pt x="481" y="98" on="1"/>
        <pt x="461" y="83" on="0"/>
        <pt x="394" y="70" on="0"/>
        <pt x="340" y="70" on="1"/>
        <pt x="286" y="70" on="0"/>
        <pt x="219" y="83" on="0"/>
        <pt x="199" y="99" on="1"/>
        <pt x="88" y="-12" on="1"/>
      </contour>
      <contour>
        <pt x="419" y="102" on="0"/>
        <pt x="481" y="137" on="0"/>
        <pt x="496" y="228" on="0"/>
        <pt x="496" y="345" on="1"/>
        <pt x="496" y="460" on="0"/>
        <pt x="481" y="550" on="0"/>
        <pt x="418" y="586" on="0"/>
        <pt x="340" y="586" on="1"/>
        <pt x="262" y="586" on="0"/>
        <pt x="199" y="550" on="0"/>
        <pt x="184" y="460" on="0"/>
        <pt x="184" y="345" on="1"/>
        <pt x="184" y="228" on="0"/>
        <pt x="199" y="137" on="0"/>
        <pt x="261" y="102" on="0"/>
        <pt x="340" y="102" on="1"/>
      </contour>
    </TTGlyph>
    <TTGlyph name="d" xMin="65" yMin="-8" xMax="440" yMax="743">
      <contour>
        <pt x="167" y="-8" on="0"/>
        <pt x="93" y="35" on="0"/>
        <pt x="65" y="143" on="0"/>
        <pt x="65" y="255" on="1"/>
        <pt x="65" y="367" on="0"/>
        <pt x="92" y="475" on="0"/>
        <pt x="167" y="518" on="0"/>
        <pt x="244" y="518" on="1"/>
        <pt x="310" y="518" on="0"/>
        <pt x="386" y="482" on="0"/>
        <pt x="401" y="439" on="1"/>
        <pt x="405" y="439" on="1"/>
        <pt x="405" y="743" on="1"/>
        <pt x="440" y="743" on="1"/>
        <pt x="440" y="0" on="1"/>
        <pt x="413" y="0" on="1"/>
        <pt x="409" y="80" on="1"/>
        <pt x="405" y="80" on="1"/>
        <pt x="389" y="27" on="0"/>
        <pt x="307" y="-8" on="0"/>
        <pt x="244" y="-8" on="1"/>
      </contour>
      <contour>
        <pt x="312" y="24" on="0"/>
        <pt x="380" y="61" on="0"/>
        <pt x="391" y="100" on="1"/>
        <pt x="401" y="133" on="0"/>
        <pt x="405" y="202" on="0"/>
        <pt x="405" y="269" on="1"/>
        <pt x="405" y="313" on="0"/>
        <pt x="400" y="376" on="0"/>
        <pt x="393" y="400" on="1"/>
        <pt x="380" y="446" on="0"/>
        <pt x="310" y="486" on="0"/>
        <pt x="248" y="486" on="1"/>
        <pt x="181" y="486" on="0"/>
        <pt x="121" y="454" on="0"/>
        <pt x="100" y="361" on="0"/>
        <pt x="100" y="255" on="1"/>
        <pt x="100" y="149" on="0"/>
        <pt x="121" y="56" on="0"/>
        <pt x="183" y="24" on="0"/>
        <pt x="253" y="24" on="1"/>
      </contour>
    </TTGlyph>
    <TTGlyph name="dagger" xMin="47" yMin="0" xMax="319" yMax="688">
      <contour>
        <pt x="163" y="466" on="1"/>
        <pt x="47" y="472" on="1"/>
        <pt x="47" y="496" on="1"/>
        <pt x="163" y="502" on="1"/>
        <pt x="169" y="688" on="1"/>
        <pt x="194" y="688" on="1"/>
        <pt x="200" y="502" on="1"/>
        <pt x="319" y="496" on="1"/>
        <pt x="319" y="472" on="1"/>
        <pt x="200" y="466" on="1"/>
        <pt x="194" y="0" on="1"/>
        <pt x="169" y="0" on="1"/>
      </contour>
    </TTGlyph>
    <TTGlyph name="daggerdbl" xMin="47" yMin="0" xMax="319" yMax="688">
      <contour>
        <pt x="163" y="186" on="1"/>
        <pt x="47" y="192" on="1"/>
        <pt x="47" y="216" on="1"/>
        <pt x="163" y="222" on="1"/>
        <pt x="163" y="466" on="1"/>
        <pt x="47" y="472" on="1"/>
        <pt x="47" y="496" on="1"/>
        <pt x="163" y="502" on="1"/>
        <pt x="169" y="688" on="1"/>
        <pt x="194" y="688" on="1"/>
        <pt x="200" y="502" on="1"/>
        <pt x="319" y="496" on="1"/>
        <pt x="319" y="472" on="1"/>
        <pt x="200" y="466" on="1"/>
        <pt x="200" y="222" on="1"/>
        <pt x="319" y="216" on="1"/>
        <pt x="319" y="192" on="1"/>
        <pt x="200" y="186" on="1"/>
        <pt x="194" y="0" on="1"/>
        <pt x="169" y="0" on="1"/>
      </contour>
    </TTGlyph>
    <TTGlyph name="dcaron" xMin="65" yMin="-8" xMax="538" yMax="743">
      <component glyphName=".ttfautohint" x="65" y="0" flags="0x0"/>
      <component glyphName="d" x="0" y="0" flags="0x0"/>
      <component glyphName="caron.loclCSY" x="442" y="0" flags="0x0"/>
    </TTGlyph>
    <TTGlyph name="dcroat" xMin="65" yMin="-8" xMax="504" yMax="743">
      <contour>
        <pt x="504" y="656" on="1"/>
        <pt x="440" y="656" on="1"/>
        <pt x="440" y="0" on="1"/>
        <pt x="413" y="0" on="1"/>
        <pt x="409" y="80" on="1"/>
        <pt x="405" y="80" on="1"/>
        <pt x="389" y="27" on="0"/>
        <pt x="307" y="-8" on="0"/>
        <pt x="244" y="-8" on="1"/>
        <pt x="167" y="-8" on="0"/>
        <pt x="93" y="35" on="0"/>
        <pt x="65" y="143" on="0"/>
        <pt x="65" y="255" on="1"/>
        <pt x="65" y="367" on="0"/>
        <pt x="92" y="475" on="0"/>
        <pt x="167" y="518" on="0"/>
        <pt x="244" y="518" on="1"/>
        <pt x="310" y="518" on="0"/>
        <pt x="386" y="482" on="0"/>
        <pt x="401" y="439" on="1"/>
        <pt x="405" y="439" on="1"/>
        <pt x="405" y="656" on="1"/>
        <pt x="266" y="656" on="1"/>
        <pt x="266" y="688" on="1"/>
        <pt x="405" y="688" on="1"/>
        <pt x="405" y="743" on="1"/>
        <pt x="440" y="743" on="1"/>
        <pt x="440" y="688" on="1"/>
        <pt x="504" y="688" on="1"/>
      </contour>
      <contour>
        <pt x="401" y="133" on="0"/>
        <pt x="405" y="202" on="0"/>
        <pt x="405" y="269" on="1"/>
        <pt x="405" y="313" on="0"/>
        <pt x="400" y="376" on="0"/>
        <pt x="393" y="400" on="1"/>
        <pt x="380" y="446" on="0"/>
        <pt x="310" y="486" on="0"/>
        <pt x="248" y="486" on="1"/>
        <pt x="181" y="486" on="0"/>
        <pt x="121" y="454" on="0"/>
        <pt x="100" y="361" on="0"/>
        <pt x="100" y="255" on="1"/>
        <pt x="100" y="149" on="0"/>
        <pt x="121" y="56" on="0"/>
        <pt x="183" y="24" on="0"/>
        <pt x="253" y="24" on="1"/>
        <pt x="312" y="24" on="0"/>
        <pt x="380" y="61" on="0"/>
        <pt x="391" y="100" on="1"/>
      </contour>
    </TTGlyph>
    <TTGlyph name="degree" xMin="63" yMin="397" xMax="285" yMax="696">
      <contour>
        <pt x="122" y="397" on="0"/>
        <pt x="76" y="421" on="0"/>
        <pt x="63" y="480" on="0"/>
        <pt x="63" y="546" on="1"/>
        <pt x="63" y="613" on="0"/>
        <pt x="76" y="672" on="0"/>
        <pt x="122" y="696" on="0"/>
        <pt x="175" y="696" on="1"/>
        <pt x="227" y="696" on="0"/>
        <pt x="272" y="672" on="0"/>
        <pt x="285" y="613" on="0"/>
        <pt x="285" y="546" on="1"/>
        <pt x="285" y="479" on="0"/>
        <pt x="272" y="421" on="0"/>
        <pt x="227" y="397" on="0"/>
        <pt x="175" y="397" on="1"/>
      </contour>
      <contour>
        <pt x="213" y="428" on="0"/>
        <pt x="244" y="446" on="0"/>
        <pt x="251" y="490" on="0"/>
        <pt x="251" y="546" on="1"/>
        <pt x="251" y="602" on="0"/>
        <pt x="244" y="646" on="0"/>
        <pt x="213" y="665" on="0"/>
        <pt x="175" y="665" on="1"/>
        <pt x="136" y="665" on="0"/>
        <pt x="104" y="646" on="0"/>
        <pt x="97" y="602" on="0"/>
        <pt x="97" y="546" on="1"/>
        <pt x="97" y="490" on="0"/>
        <pt x="104" y="446" on="0"/>
        <pt x="136" y="428" on="0"/>
        <pt x="175" y="428" on="1"/>
      </contour>
    </TTGlyph>
    <TTGlyph name="dialog" xMin="59" yMin="-212" xMax="746" yMax="688">
      <contour>
        <pt x="306" y="-127" on="1"/>
        <pt x="494" y="60" on="1"/>
        <pt x="686" y="60" on="1"/>
        <pt x="686" y="628" on="1"/>
        <pt x="119" y="628" on="1"/>
        <pt x="119" y="60" on="1"/>
        <pt x="306" y="60" on="1"/>
        <pt x="306" y="0" on="1"/>
        <pt x="59" y="0" on="1"/>
        <pt x="59" y="688" on="1"/>
        <pt x="746" y="688" on="1"/>
        <pt x="746" y="0" on="1"/>
        <pt x="519" y="0" on="1"/>
        <pt x="306" y="-212" on="1"/>
      </contour>
    </TTGlyph>
    <TTGlyph name="dieresis" xMin="22" yMin="670" xMax="241" yMax="731">
      <contour>
        <pt x="22" y="731" on="1"/>
        <pt x="64" y="731" on="1"/>
        <pt x="64" y="670" on="1"/>
        <pt x="22" y="670" on="1"/>
      </contour>
      <contour>
        <pt x="199" y="731" on="1"/>
        <pt x="241" y="731" on="1"/>
        <pt x="241" y="670" on="1"/>
        <pt x="199" y="670" on="1"/>
      </contour>
    </TTGlyph>
    <TTGlyph name="divide" xMin="67" yMin="43" xMax="447" yMax="463">
      <contour>
        <pt x="235" y="463" on="1"/>
        <pt x="279" y="463" on="1"/>
        <pt x="279" y="405" on="1"/>
        <pt x="235" y="405" on="1"/>
      </contour>
      <contour>
        <pt x="67" y="269" on="1"/>
        <pt x="447" y="269" on="1"/>
        <pt x="447" y="237" on="1"/>
        <pt x="67" y="237" on="1"/>
      </contour>
      <contour>
        <pt x="235" y="101" on="1"/>
        <pt x="279" y="101" on="1"/>
        <pt x="279" y="43" on="1"/>
        <pt x="235" y="43" on="1"/>
      </contour>
    </TTGlyph>
    <TTGlyph name="dollar" xMin="70" yMin="-8" xMax="410" yMax="696">
      <contour>
        <pt x="410" y="158" on="0"/>
        <pt x="379" y="95" on="0"/>
        <pt x="315" y="69" on="0"/>
        <pt x="260" y="68" on="1"/>
        <pt x="260" y="-8" on="1"/>
        <pt x="226" y="-8" on="1"/>
        <pt x="226" y="68" on="1"/>
        <pt x="138" y="70" on="0"/>
        <pt x="84" y="79" on="1"/>
        <pt x="84" y="113" on="1"/>
        <pt x="152" y="102" on="0"/>
        <pt x="226" y="101" on="1"/>
        <pt x="226" y="332" on="1"/>
        <pt x="171" y="338" on="1"/>
        <pt x="131" y="343" on="0"/>
        <pt x="88" y="370" on="0"/>
        <pt x="70" y="422" on="0"/>
        <pt x="70" y="468" on="1"/>
        <pt x="70" y="527" on="0"/>
        <pt x="105" y="592" on="0"/>
        <pt x="171" y="617" on="0"/>
        <pt x="226" y="619" on="1"/>
        <pt x="226" y="696" on="1"/>
        <pt x="260" y="696" on="1"/>
        <pt x="260" y="619" on="1"/>
        <pt x="331" y="617" on="0"/>
        <pt x="385" y="607" on="1"/>
        <pt x="385" y="573" on="1"/>
        <pt x="337" y="582" on="0"/>
        <pt x="260" y="586" on="1"/>
        <pt x="260" y="364" on="1"/>
        <pt x="315" y="358" on="1"/>
        <pt x="355" y="353" on="0"/>
        <pt x="394" y="328" on="0"/>
        <pt x="410" y="271" on="0"/>
        <pt x="410" y="215" on="1"/>
      </contour>
      <contour>
        <pt x="226" y="367" on="1"/>
        <pt x="226" y="586" on="1"/>
        <pt x="185" y="585" on="0"/>
        <pt x="135" y="570" on="0"/>
        <pt x="106" y="522" on="0"/>
        <pt x="106" y="475" on="1"/>
        <pt x="106" y="432" on="0"/>
        <pt x="118" y="392" on="0"/>
        <pt x="146" y="376" on="0"/>
        <pt x="175" y="373" on="1"/>
      </contour>
      <contour>
        <pt x="305" y="102" on="0"/>
        <pt x="354" y="123" on="0"/>
        <pt x="374" y="171" on="0"/>
        <pt x="374" y="215" on="1"/>
        <pt x="374" y="262" on="0"/>
        <pt x="362" y="305" on="0"/>
        <pt x="336" y="320" on="0"/>
        <pt x="309" y="323" on="1"/>
        <pt x="260" y="328" on="1"/>
        <pt x="260" y="101" on="1"/>
      </contour>
    </TTGlyph>
    <TTGlyph name="dotaccent" xMin="20" yMin="670" xMax="63" yMax="731">
      <contour>
        <pt x="20" y="731" on="1"/>
        <pt x="63" y="731" on="1"/>
        <pt x="63" y="670" on="1"/>
        <pt x="20" y="670" on="1"/>
      </contour>
    </TTGlyph>
    <TTGlyph name="dotbelowcomb" xMin="-107" yMin="-127" xMax="-61" yMax="-62">
      <contour>
        <pt x="-107" y="-62" on="1"/>
        <pt x="-61" y="-62" on="1"/>
        <pt x="-61" y="-127" on="1"/>
        <pt x="-107" y="-127" on="1"/>
      </contour>
    </TTGlyph>
    <TTGlyph name="dotlessi" xMin="87" yMin="0" xMax="122" yMax="510">
      <contour>
        <pt x="87" y="510" on="1"/>
        <pt x="122" y="510" on="1"/>
        <pt x="122" y="0" on="1"/>
        <pt x="87" y="0" on="1"/>
      </contour>
    </TTGlyph>
    <TTGlyph name="e" xMin="65" yMin="-8" xMax="432" yMax="518">
      <contour>
        <pt x="432" y="243" on="1"/>
        <pt x="100" y="243" on="1"/>
        <pt x="100" y="147" on="0"/>
        <pt x="121" y="60" on="0"/>
        <pt x="188" y="24" on="0"/>
        <pt x="263" y="24" on="1"/>
        <pt x="299" y="24" on="0"/>
        <pt x="384" y="32" on="0"/>
        <pt x="415" y="38" on="1"/>
        <pt x="415" y="5" on="1"/>
        <pt x="390" y="-1" on="0"/>
        <pt x="303" y="-8" on="0"/>
        <pt x="259" y="-8" on="1"/>
        <pt x="173" y="-8" on="0"/>
        <pt x="92" y="35" on="0"/>
        <pt x="65" y="142" on="0"/>
        <pt x="65" y="254" on="1"/>
        <pt x="65" y="368" on="0"/>
        <pt x="86" y="470" on="0"/>
        <pt x="167" y="518" on="0"/>
        <pt x="260" y="518" on="1"/>
        <pt x="341" y="518" on="0"/>
        <pt x="412" y="473" on="0"/>
        <pt x="432" y="370" on="0"/>
        <pt x="432" y="256" on="1"/>
      </contour>
      <contour>
        <pt x="184" y="486" on="0"/>
        <pt x="120" y="456" on="0"/>
        <pt x="100" y="372" on="0"/>
        <pt x="100" y="275" on="1"/>
        <pt x="397" y="275" on="1"/>
        <pt x="397" y="296" on="1"/>
        <pt x="397" y="382" on="0"/>
        <pt x="373" y="461" on="0"/>
        <pt x="317" y="486" on="0"/>
        <pt x="258" y="486" on="1"/>
      </contour>
    </TTGlyph>
    <TTGlyph name="eacute" xMin="65" yMin="-8" xMax="432" yMax="743">
      <component glyphName=".ttfautohint" x="65" y="0" flags="0x0"/>
      <component glyphName="e" x="0" y="0" flags="0x0"/>
      <component glyphName="acute" x="219" y="0" flags="0x0"/>
    </TTGlyph>
    <TTGlyph name="ebreve" xMin="65" yMin="-8" xMax="432" yMax="743">
      <component glyphName=".ttfautohint" x="65" y="0" flags="0x0"/>
      <component glyphName="e" x="0" y="0" flags="0x0"/>
      <component glyphName="uni0306" x="379" y="0" flags="0x0"/>
    </TTGlyph>
    <TTGlyph name="ecaron" xMin="65" yMin="-8" xMax="432" yMax="743">
      <component glyphName=".ttfautohint" x="65" y="0" flags="0x0"/>
      <component glyphName="e" x="0" y="0" flags="0x0"/>
      <component glyphName="uni030C" x="380" y="0" flags="0x0"/>
    </TTGlyph>
    <TTGlyph name="ecircumflex" xMin="65" yMin="-8" xMax="432" yMax="743">
      <component glyphName=".ttfautohint" x="65" y="0" flags="0x0"/>
      <component glyphName="e" x="0" y="0" flags="0x0"/>
      <component glyphName="circumflex" x="120" y="0" flags="0x0"/>
    </TTGlyph>
    <TTGlyph name="edieresis" xMin="65" yMin="-8" xMax="432" yMax="731">
      <component glyphName=".ttfautohint" x="65" y="0" flags="0x0"/>
      <component glyphName="e" x="0" y="0" flags="0x0"/>
      <component glyphName="dieresis" x="119" y="0" flags="0x0"/>
    </TTGlyph>
    <TTGlyph name="edotaccent" xMin="65" yMin="-8" xMax="432" yMax="731">
      <component glyphName=".ttfautohint" x="65" y="0" flags="0x0"/>
      <component glyphName="e" x="0" y="0" flags="0x0"/>
      <component glyphName="uni0307" x="290" y="0" flags="0x0"/>
    </TTGlyph>
    <TTGlyph name="egrave" xMin="65" yMin="-8" xMax="432" yMax="743">
      <component glyphName=".ttfautohint" x="65" y="0" flags="0x0"/>
      <component glyphName="e" x="0" y="0" flags="0x0"/>
      <component glyphName="grave" x="137" y="0" flags="0x0"/>
    </TTGlyph>
    <TTGlyph name="eight" xMin="72" yMin="-8" xMax="517" yMax="696">
      <contour>
        <pt x="201" y="-8" on="0"/>
        <pt x="105" y="33" on="0"/>
        <pt x="72" y="113" on="0"/>
        <pt x="72" y="184" on="1"/>
        <pt x="72" y="243" on="0"/>
        <pt x="96" y="308" on="0"/>
        <pt x="141" y="340" on="0"/>
        <pt x="180" y="349" on="1"/>
        <pt x="180" y="353" on="1"/>
        <pt x="126" y="364" on="0"/>
        <pt x="77" y="440" on="0"/>
        <pt x="77" y="515" on="1"/>
        <pt x="77" y="582" on="0"/>
        <pt x="114" y="659" on="0"/>
        <pt x="208" y="696" on="0"/>
        <pt x="294" y="696" on="1"/>
        <pt x="380" y="696" on="0"/>
        <pt x="475" y="659" on="0"/>
        <pt x="512" y="582" on="0"/>
        <pt x="512" y="515" on="1"/>
        <pt x="512" y="440" on="0"/>
        <pt x="462" y="364" on="0"/>
        <pt x="408" y="353" on="1"/>
        <pt x="408" y="349" on="1"/>
        <pt x="447" y="340" on="0"/>
        <pt x="493" y="308" on="0"/>
        <pt x="517" y="243" on="0"/>
        <pt x="517" y="184" on="1"/>
        <pt x="517" y="113" on="0"/>
        <pt x="483" y="33" on="0"/>
        <pt x="387" y="-8" on="0"/>
        <pt x="294" y="-8" on="1"/>
      </contour>
      <contour>
        <pt x="368" y="365" on="0"/>
        <pt x="445" y="391" on="0"/>
        <pt x="476" y="454" on="0"/>
        <pt x="476" y="513" on="1"/>
        <pt x="476" y="573" on="0"/>
        <pt x="447" y="635" on="0"/>
        <pt x="370" y="662" on="0"/>
        <pt x="294" y="662" on="1"/>
        <pt x="219" y="662" on="0"/>
        <pt x="142" y="635" on="0"/>
        <pt x="113" y="573" on="0"/>
        <pt x="113" y="513" on="1"/>
        <pt x="113" y="454" on="0"/>
        <pt x="143" y="391" on="0"/>
        <pt x="220" y="365" on="0"/>
        <pt x="294" y="365" on="1"/>
      </contour>
      <contour>
        <pt x="369" y="26" on="0"/>
        <pt x="447" y="50" on="0"/>
        <pt x="481" y="114" on="0"/>
        <pt x="481" y="177" on="1"/>
        <pt x="481" y="244" on="0"/>
        <pt x="450" y="308" on="0"/>
        <pt x="374" y="331" on="0"/>
        <pt x="294" y="331" on="1"/>
        <pt x="214" y="331" on="0"/>
        <pt x="138" y="308" on="0"/>
        <pt x="108" y="245" on="0"/>
        <pt x="108" y="177" on="1"/>
        <pt x="108" y="114" on="0"/>
        <pt x="142" y="50" on="0"/>
        <pt x="220" y="26" on="0"/>
        <pt x="294" y="26" on="1"/>
      </contour>
    </TTGlyph>
    <TTGlyph name="eight.dnom" xMin="41" yMin="-4" xMax="308" yMax="381">
      <contour>
        <pt x="119" y="-4" on="0"/>
        <pt x="62" y="18" on="0"/>
        <pt x="41" y="62" on="0"/>
        <pt x="41" y="100" on="1"/>
        <pt x="41" y="146" on="0"/>
        <pt x="71" y="183" on="0"/>
        <pt x="105" y="191" on="1"/>
        <pt x="105" y="193" on="1"/>
        <pt x="73" y="199" on="0"/>
        <pt x="44" y="241" on="0"/>
        <pt x="44" y="282" on="1"/>
        <pt x="44" y="336" on="0"/>
        <pt x="100" y="381" on="0"/>
        <pt x="174" y="381" on="1"/>
        <pt x="225" y="381" on="0"/>
        <pt x="282" y="361" on="0"/>
        <pt x="305" y="319" on="0"/>
        <pt x="305" y="282" on="1"/>
        <pt x="305" y="241" on="0"/>
        <pt x="276" y="199" on="0"/>
        <pt x="244" y="193" on="1"/>
        <pt x="244" y="191" on="1"/>
        <pt x="278" y="183" on="0"/>
        <pt x="308" y="146" on="0"/>
        <pt x="308" y="100" on="1"/>
        <pt x="308" y="62" on="0"/>
        <pt x="287" y="18" on="0"/>
        <pt x="229" y="-4" on="0"/>
        <pt x="174" y="-4" on="1"/>
      </contour>
      <contour>
        <pt x="213" y="206" on="0"/>
        <pt x="254" y="218" on="0"/>
        <pt x="270" y="249" on="0"/>
        <pt x="270" y="278" on="1"/>
        <pt x="270" y="308" on="0"/>
        <pt x="255" y="338" on="0"/>
        <pt x="214" y="350" on="0"/>
        <pt x="174" y="350" on="1"/>
        <pt x="134" y="350" on="0"/>
        <pt x="94" y="338" on="0"/>
        <pt x="79" y="308" on="0"/>
        <pt x="79" y="278" on="1"/>
        <pt x="79" y="249" on="0"/>
        <pt x="95" y="218" on="0"/>
        <pt x="135" y="206" on="0"/>
        <pt x="174" y="206" on="1"/>
      </contour>
      <contour>
        <pt x="214" y="27" on="0"/>
        <pt x="255" y="38" on="0"/>
        <pt x="273" y="70" on="0"/>
        <pt x="273" y="101" on="1"/>
        <pt x="273" y="134" on="0"/>
        <pt x="257" y="164" on="0"/>
        <pt x="216" y="175" on="0"/>
        <pt x="174" y="175" on="1"/>
        <pt x="132" y="175" on="0"/>
        <pt x="92" y="164" on="0"/>
        <pt x="76" y="134" on="0"/>
        <pt x="76" y="101" on="1"/>
        <pt x="76" y="70" on="0"/>
        <pt x="94" y="38" on="0"/>
        <pt x="135" y="27" on="0"/>
        <pt x="174" y="27" on="1"/>
      </contour>
    </TTGlyph>
    <TTGlyph name="eight.numr" xMin="41" yMin="304" xMax="308" yMax="689">
      <component glyphName=".ttfautohint" x="41" y="304" flags="0x0"/>
      <component glyphName="eight.dnom" x="0" y="308" flags="0x4"/>
    </TTGlyph>
    <TTGlyph name="eight.tnum" xMin="65" yMin="-8" xMax="510" yMax="696">
      <contour>
        <pt x="194" y="-8" on="0"/>
        <pt x="98" y="33" on="0"/>
        <pt x="65" y="113" on="0"/>
        <pt x="65" y="184" on="1"/>
        <pt x="65" y="243" on="0"/>
        <pt x="89" y="308" on="0"/>
        <pt x="134" y="340" on="0"/>
        <pt x="173" y="349" on="1"/>
        <pt x="173" y="353" on="1"/>
        <pt x="119" y="364" on="0"/>
        <pt x="70" y="440" on="0"/>
        <pt x="70" y="515" on="1"/>
        <pt x="70" y="582" on="0"/>
        <pt x="107" y="659" on="0"/>
        <pt x="201" y="696" on="0"/>
        <pt x="287" y="696" on="1"/>
        <pt x="373" y="696" on="0"/>
        <pt x="467" y="659" on="0"/>
        <pt x="504" y="582" on="0"/>
        <pt x="504" y="515" on="1"/>
        <pt x="504" y="440" on="0"/>
        <pt x="455" y="364" on="0"/>
        <pt x="401" y="353" on="1"/>
        <pt x="401" y="349" on="1"/>
        <pt x="440" y="340" on="0"/>
        <pt x="486" y="308" on="0"/>
        <pt x="510" y="243" on="0"/>
        <pt x="510" y="184" on="1"/>
        <pt x="510" y="113" on="0"/>
        <pt x="476" y="33" on="0"/>
        <pt x="380" y="-8" on="0"/>
        <pt x="287" y="-8" on="1"/>
      </contour>
      <contour>
        <pt x="361" y="365" on="0"/>
        <pt x="438" y="391" on="0"/>
        <pt x="468" y="454" on="0"/>
        <pt x="468" y="513" on="1"/>
        <pt x="468" y="573" on="0"/>
        <pt x="439" y="635" on="0"/>
        <pt x="363" y="662" on="0"/>
        <pt x="287" y="662" on="1"/>
        <pt x="212" y="662" on="0"/>
        <pt x="135" y="635" on="0"/>
        <pt x="106" y="573" on="0"/>
        <pt x="106" y="513" on="1"/>
        <pt x="106" y="454" on="0"/>
        <pt x="136" y="391" on="0"/>
        <pt x="213" y="365" on="0"/>
        <pt x="287" y="365" on="1"/>
      </contour>
      <contour>
        <pt x="362" y="26" on="0"/>
        <pt x="440" y="50" on="0"/>
        <pt x="474" y="114" on="0"/>
        <pt x="474" y="177" on="1"/>
        <pt x="474" y="244" on="0"/>
        <pt x="443" y="308" on="0"/>
        <pt x="367" y="331" on="0"/>
        <pt x="287" y="331" on="1"/>
        <pt x="207" y="331" on="0"/>
        <pt x="131" y="308" on="0"/>
        <pt x="101" y="245" on="0"/>
        <pt x="101" y="177" on="1"/>
        <pt x="101" y="114" on="0"/>
        <pt x="135" y="50" on="0"/>
        <pt x="213" y="26" on="0"/>
        <pt x="287" y="26" on="1"/>
      </contour>
    </TTGlyph>
    <TTGlyph name="ellipsis" xMin="61" yMin="0" xMax="444" yMax="65">
      <contour>
        <pt x="61" y="65" on="1"/>
        <pt x="107" y="65" on="1"/>
        <pt x="107" y="0" on="1"/>
        <pt x="61" y="0" on="1"/>
      </contour>
      <contour>
        <pt x="229" y="65" on="1"/>
        <pt x="276" y="65" on="1"/>
        <pt x="276" y="0" on="1"/>
        <pt x="229" y="0" on="1"/>
      </contour>
      <contour>
        <pt x="397" y="65" on="1"/>
        <pt x="444" y="65" on="1"/>
        <pt x="444" y="0" on="1"/>
        <pt x="397" y="0" on="1"/>
      </contour>
    </TTGlyph>
    <TTGlyph name="emacron" xMin="65" yMin="-8" xMax="432" yMax="742">
      <component glyphName=".ttfautohint" x="65" y="0" flags="0x0"/>
      <component glyphName="e" x="0" y="0" flags="0x0"/>
      <component glyphName="uni0304" x="414" y="0" flags="0x0"/>
    </TTGlyph>
    <TTGlyph name="emdash" xMin="63" yMin="287" xMax="785" yMax="321">
      <contour>
        <pt x="63" y="321" on="1"/>
        <pt x="785" y="321" on="1"/>
        <pt x="785" y="287" on="1"/>
        <pt x="63" y="287" on="1"/>
      </contour>
    </TTGlyph>
    <TTGlyph name="endash" xMin="63" yMin="287" xMax="384" yMax="321">
      <contour>
        <pt x="63" y="321" on="1"/>
        <pt x="384" y="321" on="1"/>
        <pt x="384" y="287" on="1"/>
        <pt x="63" y="287" on="1"/>
      </contour>
    </TTGlyph>
    <TTGlyph name="eng" xMin="87" yMin="-197" xMax="447" yMax="518">
      <contour>
        <pt x="353" y="518" on="0"/>
        <pt x="423" y="480" on="0"/>
        <pt x="447" y="398" on="0"/>
        <pt x="447" y="320" on="1"/>
        <pt x="447" y="-100" on="1"/>
        <pt x="447" y="-145" on="0"/>
        <pt x="421" y="-186" on="0"/>
        <pt x="372" y="-197" on="0"/>
        <pt x="323" y="-197" on="1"/>
        <pt x="323" y="-167" on="1"/>
        <pt x="364" y="-167" on="0"/>
        <pt x="401" y="-157" on="0"/>
        <pt x="412" y="-135" on="0"/>
        <pt x="412" y="-110" on="1"/>
        <pt x="412" y="315" on="1"/>
        <pt x="412" y="392" on="0"/>
        <pt x="391" y="462" on="0"/>
        <pt x="335" y="486" on="0"/>
        <pt x="274" y="486" on="1"/>
        <pt x="202" y="486" on="0"/>
        <pt x="137" y="430" on="0"/>
        <pt x="122" y="343" on="0"/>
        <pt x="122" y="264" on="1"/>
        <pt x="122" y="0" on="1"/>
        <pt x="87" y="0" on="1"/>
        <pt x="87" y="510" on="1"/>
        <pt x="115" y="510" on="1"/>
        <pt x="118" y="430" on="1"/>
        <pt x="122" y="430" on="1"/>
        <pt x="135" y="470" on="0"/>
        <pt x="205" y="518" on="0"/>
        <pt x="282" y="518" on="1"/>
      </contour>
    </TTGlyph>
    <TTGlyph name="eogonek" xMin="65" yMin="-196" xMax="432" yMax="518">
      <contour>
        <pt x="432" y="243" on="1"/>
        <pt x="100" y="243" on="1"/>
        <pt x="100" y="147" on="0"/>
        <pt x="121" y="60" on="0"/>
        <pt x="188" y="24" on="0"/>
        <pt x="263" y="24" on="1"/>
        <pt x="299" y="24" on="0"/>
        <pt x="384" y="32" on="0"/>
        <pt x="415" y="38" on="1"/>
        <pt x="415" y="5" on="1"/>
        <pt x="390" y="-15" on="0"/>
        <pt x="346" y="-89" on="0"/>
        <pt x="346" y="-119" on="1"/>
        <pt x="346" y="-139" on="0"/>
        <pt x="368" y="-164" on="0"/>
        <pt x="393" y="-164" on="1"/>
        <pt x="410" y="-163" on="1"/>
        <pt x="410" y="-195" on="1"/>
        <pt x="401" y="-196" on="0"/>
        <pt x="388" y="-196" on="1"/>
        <pt x="349" y="-196" on="0"/>
        <pt x="312" y="-157" on="0"/>
        <pt x="312" y="-126" on="1"/>
        <pt x="312" y="-96" on="0"/>
        <pt x="345" y="-30" on="0"/>
        <pt x="373" y="-2" on="1"/>
        <pt x="305" y="-8" on="0"/>
        <pt x="259" y="-8" on="1"/>
        <pt x="173" y="-8" on="0"/>
        <pt x="92" y="35" on="0"/>
        <pt x="65" y="142" on="0"/>
        <pt x="65" y="254" on="1"/>
        <pt x="65" y="368" on="0"/>
        <pt x="86" y="470" on="0"/>
        <pt x="167" y="518" on="0"/>
        <pt x="260" y="518" on="1"/>
        <pt x="341" y="518" on="0"/>
        <pt x="412" y="473" on="0"/>
        <pt x="432" y="370" on="0"/>
        <pt x="432" y="256" on="1"/>
      </contour>
      <contour>
        <pt x="184" y="486" on="0"/>
        <pt x="120" y="456" on="0"/>
        <pt x="100" y="372" on="0"/>
        <pt x="100" y="275" on="1"/>
        <pt x="397" y="275" on="1"/>
        <pt x="397" y="296" on="1"/>
        <pt x="397" y="382" on="0"/>
        <pt x="373" y="461" on="0"/>
        <pt x="317" y="486" on="0"/>
        <pt x="258" y="486" on="1"/>
      </contour>
    </TTGlyph>
    <TTGlyph name="equal" xMin="67" yMin="142" xMax="447" yMax="364">
      <contour>
        <pt x="67" y="364" on="1"/>
        <pt x="447" y="364" on="1"/>
        <pt x="447" y="332" on="1"/>
        <pt x="67" y="332" on="1"/>
      </contour>
      <contour>
        <pt x="67" y="174" on="1"/>
        <pt x="447" y="174" on="1"/>
        <pt x="447" y="142" on="1"/>
        <pt x="67" y="142" on="1"/>
      </contour>
    </TTGlyph>
    <TTGlyph name="estimated" xMin="77" yMin="-8" xMax="551" yMax="696">
      <contour>
        <pt x="114" y="173" on="0"/>
        <pt x="140" y="56" on="0"/>
        <pt x="216" y="26" on="0"/>
        <pt x="314" y="26" on="1"/>
        <pt x="398" y="26" on="0"/>
        <pt x="471" y="44" on="0"/>
        <pt x="507" y="116" on="0"/>
        <pt x="512" y="200" on="1"/>
        <pt x="548" y="200" on="1"/>
        <pt x="543" y="108" on="0"/>
        <pt x="502" y="22" on="0"/>
        <pt x="410" y="-8" on="0"/>
        <pt x="314" y="-8" on="1"/>
        <pt x="199" y="-8" on="0"/>
        <pt x="105" y="39" on="0"/>
        <pt x="77" y="176" on="0"/>
        <pt x="77" y="344" on="1"/>
        <pt x="77" y="512" on="0"/>
        <pt x="105" y="649" on="0"/>
        <pt x="199" y="696" on="0"/>
        <pt x="314" y="696" on="1"/>
        <pt x="429" y="696" on="0"/>
        <pt x="523" y="649" on="0"/>
        <pt x="551" y="512" on="0"/>
        <pt x="551" y="344" on="1"/>
        <pt x="551" y="323" on="1"/>
        <pt x="113" y="323" on="1"/>
      </contour>
      <contour>
        <pt x="215" y="662" on="0"/>
        <pt x="139" y="631" on="0"/>
        <pt x="113" y="511" on="0"/>
        <pt x="113" y="357" on="1"/>
        <pt x="515" y="357" on="1"/>
        <pt x="515" y="511" on="0"/>
        <pt x="489" y="631" on="0"/>
        <pt x="413" y="662" on="0"/>
        <pt x="314" y="662" on="1"/>
      </contour>
    </TTGlyph>
    <TTGlyph name="eth" xMin="65" yMin="-8" xMax="448" yMax="743">
      <contour>
        <pt x="165" y="-8" on="0"/>
        <pt x="87" y="33" on="0"/>
        <pt x="65" y="135" on="0"/>
        <pt x="65" y="254" on="1"/>
        <pt x="65" y="374" on="0"/>
        <pt x="87" y="477" on="0"/>
        <pt x="165" y="518" on="0"/>
        <pt x="257" y="518" on="1"/>
        <pt x="343" y="518" on="0"/>
        <pt x="386" y="482" on="1"/>
        <pt x="391" y="484" on="1"/>
        <pt x="365" y="575" on="0"/>
        <pt x="320" y="644" on="1"/>
        <pt x="208" y="625" on="1"/>
        <pt x="208" y="657" on="1"/>
        <pt x="300" y="673" on="1"/>
        <pt x="280" y="698" on="0"/>
        <pt x="241" y="735" on="0"/>
        <pt x="237" y="739" on="1"/>
        <pt x="237" y="743" on="1"/>
        <pt x="279" y="743" on="1"/>
        <pt x="315" y="710" on="0"/>
        <pt x="338" y="679" on="1"/>
        <pt x="427" y="695" on="1"/>
        <pt x="427" y="663" on="1"/>
        <pt x="357" y="651" on="1"/>
        <pt x="386" y="602" on="0"/>
        <pt x="432" y="470" on="0"/>
        <pt x="440" y="408" on="1"/>
        <pt x="448" y="347" on="0"/>
        <pt x="448" y="279" on="1"/>
        <pt x="448" y="145" on="0"/>
        <pt x="429" y="37" on="0"/>
        <pt x="352" y="-8" on="0"/>
        <pt x="257" y="-8" on="1"/>
      </contour>
      <contour>
        <pt x="336" y="24" on="0"/>
        <pt x="399" y="59" on="0"/>
        <pt x="413" y="144" on="0"/>
        <pt x="413" y="254" on="1"/>
        <pt x="413" y="349" on="0"/>
        <pt x="398" y="437" on="0"/>
        <pt x="332" y="486" on="0"/>
        <pt x="257" y="486" on="1"/>
        <pt x="177" y="486" on="0"/>
        <pt x="114" y="452" on="0"/>
        <pt x="100" y="366" on="0"/>
        <pt x="100" y="254" on="1"/>
        <pt x="100" y="144" on="0"/>
        <pt x="114" y="59" on="0"/>
        <pt x="178" y="24" on="0"/>
        <pt x="257" y="24" on="1"/>
      </contour>
    </TTGlyph>
    <TTGlyph name="exclam" xMin="69" yMin="0" xMax="116" yMax="688">
      <contour>
        <pt x="74" y="416" on="0"/>
        <pt x="74" y="541" on="1"/>
        <pt x="74" y="688" on="1"/>
        <pt x="112" y="688" on="1"/>
        <pt x="112" y="541" on="1"/>
        <pt x="112" y="416" on="0"/>
        <pt x="107" y="173" on="1"/>
        <pt x="79" y="173" on="1"/>
      </contour>
      <contour>
        <pt x="69" y="65" on="1"/>
        <pt x="116" y="65" on="1"/>
        <pt x="116" y="0" on="1"/>
        <pt x="69" y="0" on="1"/>
      </contour>
    </TTGlyph>
    <TTGlyph name="exclam.case" xMin="69" yMin="0" xMax="116" yMax="688">
      <component glyphName=".ttfautohint" x="69" y="0" flags="0x0"/>
      <component glyphName="exclam" x="0" y="0" flags="0x0"/>
    </TTGlyph>
    <TTGlyph name="exclam.ss02" xMin="45" yMin="-8" xMax="749" yMax="696">
      <contour>
        <pt x="302" y="-8" on="0"/>
        <pt x="140" y="87" on="0"/>
        <pt x="45" y="249" on="0"/>
        <pt x="45" y="344" on="1"/>
        <pt x="45" y="439" on="0"/>
        <pt x="140" y="601" on="0"/>
        <pt x="302" y="696" on="0"/>
        <pt x="397" y="696" on="1"/>
        <pt x="492" y="696" on="0"/>
        <pt x="654" y="601" on="0"/>
        <pt x="749" y="439" on="0"/>
        <pt x="749" y="344" on="1"/>
        <pt x="749" y="249" on="0"/>
        <pt x="654" y="87" on="0"/>
        <pt x="492" y="-8" on="0"/>
        <pt x="397" y="-8" on="1"/>
      </contour>
      <contour>
        <pt x="480" y="37" on="0"/>
        <pt x="621" y="120" on="0"/>
        <pt x="704" y="261" on="0"/>
        <pt x="704" y="344" on="1"/>
        <pt x="704" y="427" on="0"/>
        <pt x="621" y="568" on="0"/>
        <pt x="480" y="651" on="0"/>
        <pt x="397" y="651" on="1"/>
        <pt x="314" y="651" on="0"/>
        <pt x="173" y="568" on="0"/>
        <pt x="90" y="427" on="0"/>
        <pt x="90" y="344" on="1"/>
        <pt x="90" y="261" on="0"/>
        <pt x="173" y="120" on="0"/>
        <pt x="314" y="37" on="0"/>
        <pt x="397" y="37" on="1"/>
      </contour>
      <contour>
        <pt x="371" y="310" on="0"/>
        <pt x="363" y="429" on="0"/>
        <pt x="363" y="480" on="1"/>
        <pt x="363" y="579" on="1"/>
        <pt x="431" y="579" on="1"/>
        <pt x="431" y="480" on="1"/>
        <pt x="431" y="429" on="0"/>
        <pt x="423" y="310" on="0"/>
        <pt x="417" y="268" on="1"/>
        <pt x="377" y="268" on="1"/>
      </contour>
      <contour>
        <pt x="363" y="191" on="1"/>
        <pt x="431" y="191" on="1"/>
        <pt x="431" y="109" on="1"/>
        <pt x="363" y="109" on="1"/>
      </contour>
    </TTGlyph>
    <TTGlyph name="exclamdbl" xMin="69" yMin="0" xMax="290" yMax="688">
      <component glyphName=".ttfautohint" x="69" y="0" flags="0x0"/>
      <component glyphName="exclam" x="174" y="0" flags="0x0"/>
      <component glyphName="exclam" x="0" y="0" flags="0x0"/>
    </TTGlyph>
    <TTGlyph name="exclamdown" xMin="69" yMin="-178" xMax="116" yMax="510">
      <contour>
        <pt x="69" y="510" on="1"/>
        <pt x="116" y="510" on="1"/>
        <pt x="116" y="445" on="1"/>
        <pt x="69" y="445" on="1"/>
      </contour>
      <contour>
        <pt x="74" y="-31" on="1"/>
        <pt x="74" y="94" on="0"/>
        <pt x="79" y="337" on="1"/>
        <pt x="107" y="337" on="1"/>
        <pt x="112" y="94" on="0"/>
        <pt x="112" y="-31" on="1"/>
        <pt x="112" y="-178" on="1"/>
        <pt x="74" y="-178" on="1"/>
      </contour>
    </TTGlyph>
    <TTGlyph name="exclamdown.case" xMin="69" yMin="0" xMax="116" yMax="688">
      <component glyphName=".ttfautohint" x="69" y="0" flags="0x0"/>
      <component glyphName="exclamdown" x="0" y="178" flags="0x4"/>
    </TTGlyph>
    <TTGlyph name="f" xMin="27" yMin="0" xMax="274" yMax="743">
      <contour>
        <pt x="121" y="478" on="1"/>
        <pt x="27" y="478" on="1"/>
        <pt x="27" y="510" on="1"/>
        <pt x="121" y="510" on="1"/>
        <pt x="121" y="625" on="1"/>
        <pt x="121" y="676" on="0"/>
        <pt x="155" y="727" on="0"/>
        <pt x="218" y="743" on="0"/>
        <pt x="274" y="743" on="1"/>
        <pt x="274" y="713" on="1"/>
        <pt x="226" y="713" on="0"/>
        <pt x="177" y="700" on="0"/>
        <pt x="156" y="665" on="0"/>
        <pt x="156" y="631" on="1"/>
        <pt x="156" y="510" on="1"/>
        <pt x="274" y="510" on="1"/>
        <pt x="274" y="478" on="1"/>
        <pt x="156" y="478" on="1"/>
        <pt x="156" y="0" on="1"/>
        <pt x="121" y="0" on="1"/>
      </contour>
    </TTGlyph>
    <TTGlyph name="f_f" xMin="27" yMin="0" xMax="578" yMax="743">
      <component glyphName=".ttfautohint" x="27" y="0" flags="0x0"/>
      <component glyphName="f" x="0" y="0" flags="0x0"/>
      <component glyphName="f" x="304" y="0" flags="0x0"/>
    </TTGlyph>
    <TTGlyph name="fi" xMin="27" yMin="0" xMax="429" yMax="743">
      <component glyphName=".ttfautohint" x="27" y="0" flags="0x0"/>
      <component glyphName="f" x="0" y="0" flags="0x0"/>
      <component glyphName="i" x="304" y="0" flags="0x0"/>
    </TTGlyph>
    <TTGlyph name="five" xMin="75" yMin="-8" xMax="463" yMax="688">
      <contour>
        <pt x="176" y="26" on="0"/>
        <pt x="244" y="26" on="1"/>
        <pt x="320" y="26" on="0"/>
        <pt x="398" y="58" on="0"/>
        <pt x="427" y="129" on="0"/>
        <pt x="427" y="197" on="1"/>
        <pt x="427" y="270" on="0"/>
        <pt x="397" y="337" on="0"/>
        <pt x="316" y="360" on="0"/>
        <pt x="227" y="360" on="1"/>
        <pt x="185" y="360" on="0"/>
        <pt x="82" y="345" on="1"/>
        <pt x="82" y="688" on="1"/>
        <pt x="418" y="688" on="1"/>
        <pt x="418" y="654" on="1"/>
        <pt x="118" y="654" on="1"/>
        <pt x="118" y="383" on="1"/>
        <pt x="175" y="394" on="0"/>
        <pt x="260" y="394" on="1"/>
        <pt x="349" y="394" on="0"/>
        <pt x="436" y="354" on="0"/>
        <pt x="463" y="276" on="0"/>
        <pt x="463" y="204" on="1"/>
        <pt x="463" y="121" on="0"/>
        <pt x="427" y="32" on="0"/>
        <pt x="334" y="-8" on="0"/>
        <pt x="244" y="-8" on="1"/>
        <pt x="206" y="-8" on="0"/>
        <pt x="111" y="0" on="0"/>
        <pt x="75" y="6" on="1"/>
        <pt x="75" y="38" on="1"/>
      </contour>
    </TTGlyph>
    <TTGlyph name="five.dnom" xMin="44" yMin="-4" xMax="279" yMax="377">
      <contour>
        <pt x="94" y="28" on="0"/>
        <pt x="142" y="28" on="1"/>
        <pt x="185" y="28" on="0"/>
        <pt x="228" y="42" on="0"/>
        <pt x="244" y="77" on="0"/>
        <pt x="244" y="110" on="1"/>
        <pt x="244" y="146" on="0"/>
        <pt x="226" y="179" on="0"/>
        <pt x="181" y="190" on="0"/>
        <pt x="133" y="190" on="1"/>
        <pt x="107" y="190" on="0"/>
        <pt x="47" y="183" on="1"/>
        <pt x="47" y="377" on="1"/>
        <pt x="253" y="377" on="1"/>
        <pt x="253" y="345" on="1"/>
        <pt x="81" y="345" on="1"/>
        <pt x="81" y="216" on="1"/>
        <pt x="111" y="222" on="0"/>
        <pt x="160" y="222" on="1"/>
        <pt x="211" y="222" on="0"/>
        <pt x="262" y="199" on="0"/>
        <pt x="279" y="154" on="0"/>
        <pt x="279" y="115" on="1"/>
        <pt x="279" y="69" on="0"/>
        <pt x="257" y="19" on="0"/>
        <pt x="200" y="-4" on="0"/>
        <pt x="147" y="-4" on="1"/>
        <pt x="90" y="-4" on="0"/>
        <pt x="44" y="4" on="1"/>
        <pt x="44" y="34" on="1"/>
      </contour>
    </TTGlyph>
    <TTGlyph name="five.numr" xMin="44" yMin="304" xMax="279" yMax="685">
      <contour>
        <pt x="93" y="336" on="0"/>
        <pt x="142" y="336" on="1"/>
        <pt x="185" y="336" on="0"/>
        <pt x="228" y="350" on="0"/>
        <pt x="244" y="385" on="0"/>
        <pt x="244" y="418" on="1"/>
        <pt x="244" y="454" on="0"/>
        <pt x="226" y="487" on="0"/>
        <pt x="181" y="498" on="0"/>
        <pt x="133" y="498" on="1"/>
        <pt x="106" y="498" on="0"/>
        <pt x="47" y="491" on="1"/>
        <pt x="47" y="685" on="1"/>
        <pt x="253" y="685" on="1"/>
        <pt x="253" y="653" on="1"/>
        <pt x="81" y="653" on="1"/>
        <pt x="81" y="524" on="1"/>
        <pt x="111" y="530" on="0"/>
        <pt x="160" y="530" on="1"/>
        <pt x="211" y="530" on="0"/>
        <pt x="262" y="507" on="0"/>
        <pt x="279" y="462" on="0"/>
        <pt x="279" y="423" on="1"/>
        <pt x="279" y="377" on="0"/>
        <pt x="257" y="327" on="0"/>
        <pt x="200" y="304" on="0"/>
        <pt x="147" y="304" on="1"/>
        <pt x="90" y="304" on="0"/>
        <pt x="44" y="312" on="1"/>
        <pt x="44" y="342" on="1"/>
      </contour>
    </TTGlyph>
    <TTGlyph name="five.tnum" xMin="97" yMin="-8" xMax="484" yMax="688">
      <contour>
        <pt x="198" y="26" on="0"/>
        <pt x="265" y="26" on="1"/>
        <pt x="341" y="26" on="0"/>
        <pt x="419" y="58" on="0"/>
        <pt x="448" y="129" on="0"/>
        <pt x="448" y="197" on="1"/>
        <pt x="448" y="270" on="0"/>
        <pt x="418" y="337" on="0"/>
        <pt x="337" y="360" on="0"/>
        <pt x="248" y="360" on="1"/>
        <pt x="206" y="360" on="0"/>
        <pt x="104" y="345" on="1"/>
        <pt x="104" y="688" on="1"/>
        <pt x="440" y="688" on="1"/>
        <pt x="440" y="654" on="1"/>
        <pt x="140" y="654" on="1"/>
        <pt x="140" y="383" on="1"/>
        <pt x="204" y="394" on="0"/>
        <pt x="282" y="394" on="1"/>
        <pt x="371" y="394" on="0"/>
        <pt x="457" y="354" on="0"/>
        <pt x="484" y="276" on="0"/>
        <pt x="484" y="204" on="1"/>
        <pt x="484" y="121" on="0"/>
        <pt x="448" y="32" on="0"/>
        <pt x="355" y="-8" on="0"/>
        <pt x="265" y="-8" on="1"/>
        <pt x="228" y="-8" on="0"/>
        <pt x="132" y="0" on="0"/>
        <pt x="97" y="6" on="1"/>
        <pt x="97" y="38" on="1"/>
      </contour>
    </TTGlyph>
    <TTGlyph name="fiveeighths" xMin="44" yMin="-4" xMax="748" yMax="688">
      <component glyphName=".ttfautohint" x="44" y="0" flags="0x0"/>
      <component glyphName="five.numr" x="0" y="0" flags="0x0"/>
      <component glyphName="fraction" x="316" y="0" flags="0x0"/>
      <component glyphName="eight.dnom" x="440" y="0" flags="0x0"/>
    </TTGlyph>
    <TTGlyph name="fl" xMin="27" yMin="0" xMax="426" yMax="743">
      <component glyphName=".ttfautohint" x="27" y="0" flags="0x0"/>
      <component glyphName="f" x="0" y="0" flags="0x0"/>
      <component glyphName="l" x="304" y="0" flags="0x0"/>
    </TTGlyph>
    <TTGlyph name="florin" xMin="-142" yMin="-190" xMax="327" yMax="743">
      <contour>
        <pt x="269" y="713" on="0"/>
        <pt x="218" y="690" on="0"/>
        <pt x="182" y="615" on="0"/>
        <pt x="164" y="531" on="1"/>
        <pt x="159" y="510" on="1"/>
        <pt x="277" y="510" on="1"/>
        <pt x="270" y="478" on="1"/>
        <pt x="152" y="478" on="1"/>
        <pt x="53" y="10" on="1"/>
        <pt x="33" y="-83" on="0"/>
        <pt x="-18" y="-168" on="0"/>
        <pt x="-83" y="-190" on="0"/>
        <pt x="-142" y="-190" on="1"/>
        <pt x="-135" y="-160" on="1"/>
        <pt x="-87" y="-160" on="0"/>
        <pt x="-35" y="-145" on="0"/>
        <pt x="-6" y="-104" on="0"/>
        <pt x="3" y="-62" on="1"/>
        <pt x="117" y="478" on="1"/>
        <pt x="23" y="478" on="1"/>
        <pt x="30" y="510" on="1"/>
        <pt x="124" y="510" on="1"/>
        <pt x="127" y="521" on="1"/>
        <pt x="149" y="625" on="0"/>
        <pt x="202" y="719" on="0"/>
        <pt x="268" y="743" on="0"/>
        <pt x="327" y="743" on="1"/>
        <pt x="320" y="713" on="1"/>
      </contour>
    </TTGlyph>
    <TTGlyph name="four" xMin="46" yMin="0" xMax="506" yMax="688">
      <contour>
        <pt x="375" y="176" on="1"/>
        <pt x="46" y="176" on="1"/>
        <pt x="46" y="207" on="1"/>
        <pt x="284" y="688" on="1"/>
        <pt x="325" y="688" on="1"/>
        <pt x="86" y="210" on="1"/>
        <pt x="376" y="210" on="1"/>
        <pt x="376" y="510" on="1"/>
        <pt x="411" y="510" on="1"/>
        <pt x="411" y="210" on="1"/>
        <pt x="506" y="210" on="1"/>
        <pt x="506" y="176" on="1"/>
        <pt x="411" y="176" on="1"/>
        <pt x="411" y="0" on="1"/>
        <pt x="375" y="0" on="1"/>
      </contour>
    </TTGlyph>
    <TTGlyph name="four.dnom" xMin="26" yMin="0" xMax="302" yMax="377">
      <contour>
        <pt x="215" y="91" on="1"/>
        <pt x="26" y="91" on="1"/>
        <pt x="26" y="119" on="1"/>
        <pt x="159" y="377" on="1"/>
        <pt x="197" y="377" on="1"/>
        <pt x="64" y="122" on="1"/>
        <pt x="215" y="122" on="1"/>
        <pt x="220" y="268" on="1"/>
        <pt x="249" y="268" on="1"/>
        <pt x="249" y="122" on="1"/>
        <pt x="302" y="122" on="1"/>
        <pt x="302" y="91" on="1"/>
        <pt x="249" y="91" on="1"/>
        <pt x="249" y="0" on="1"/>
        <pt x="215" y="0" on="1"/>
      </contour>
    </TTGlyph>
    <TTGlyph name="four.numr" xMin="26" yMin="308" xMax="302" yMax="685">
      <component glyphName=".ttfautohint" x="26" y="308" flags="0x0"/>
      <component glyphName="four.dnom" x="0" y="308" flags="0x4"/>
    </TTGlyph>
    <TTGlyph name="four.ss01" xMin="46" yMin="0" xMax="506" yMax="688">
      <contour>
        <pt x="506" y="210" on="1"/>
        <pt x="506" y="176" on="1"/>
        <pt x="411" y="176" on="1"/>
        <pt x="411" y="0" on="1"/>
        <pt x="375" y="0" on="1"/>
        <pt x="375" y="176" on="1"/>
        <pt x="46" y="176" on="1"/>
        <pt x="46" y="207" on="1"/>
        <pt x="375" y="688" on="1"/>
        <pt x="411" y="688" on="1"/>
        <pt x="411" y="210" on="1"/>
      </contour>
      <contour>
        <pt x="376" y="210" on="1"/>
        <pt x="376" y="625" on="1"/>
        <pt x="89" y="210" on="1"/>
      </contour>
    </TTGlyph>
    <TTGlyph name="four.tnum" xMin="54" yMin="0" xMax="520" yMax="688">
      <contour>
        <pt x="390" y="176" on="1"/>
        <pt x="54" y="176" on="1"/>
        <pt x="54" y="207" on="1"/>
        <pt x="299" y="688" on="1"/>
        <pt x="340" y="688" on="1"/>
        <pt x="95" y="210" on="1"/>
        <pt x="391" y="210" on="1"/>
        <pt x="391" y="510" on="1"/>
        <pt x="426" y="510" on="1"/>
        <pt x="426" y="210" on="1"/>
        <pt x="520" y="210" on="1"/>
        <pt x="520" y="176" on="1"/>
        <pt x="426" y="176" on="1"/>
        <pt x="426" y="0" on="1"/>
        <pt x="390" y="0" on="1"/>
      </contour>
    </TTGlyph>
    <TTGlyph name="fraction" xMin="-152" yMin="0" xMax="277" yMax="688">
      <contour>
        <pt x="238" y="688" on="1"/>
        <pt x="277" y="688" on="1"/>
        <pt x="-114" y="0" on="1"/>
        <pt x="-152" y="0" on="1"/>
      </contour>
    </TTGlyph>
    <TTGlyph name="g" xMin="65" yMin="-203" xMax="440" yMax="518">
      <contour>
        <pt x="164" y="-203" on="0"/>
        <pt x="80" y="-197" on="1"/>
        <pt x="80" y="-164" on="1"/>
        <pt x="162" y="-171" on="0"/>
        <pt x="238" y="-171" on="1"/>
        <pt x="313" y="-171" on="0"/>
        <pt x="382" y="-131" on="0"/>
        <pt x="405" y="-37" on="0"/>
        <pt x="405" y="61" on="1"/>
        <pt x="405" y="71" on="1"/>
        <pt x="401" y="71" on="1"/>
        <pt x="386" y="28" on="0"/>
        <pt x="310" y="-8" on="0"/>
        <pt x="244" y="-8" on="1"/>
        <pt x="167" y="-8" on="0"/>
        <pt x="92" y="35" on="0"/>
        <pt x="65" y="143" on="0"/>
        <pt x="65" y="255" on="1"/>
        <pt x="65" y="367" on="0"/>
        <pt x="92" y="475" on="0"/>
        <pt x="167" y="518" on="0"/>
        <pt x="244" y="518" on="1"/>
        <pt x="307" y="518" on="0"/>
        <pt x="389" y="483" on="0"/>
        <pt x="405" y="430" on="1"/>
        <pt x="409" y="430" on="1"/>
        <pt x="413" y="510" on="1"/>
        <pt x="440" y="510" on="1"/>
        <pt x="440" y="75" on="1"/>
        <pt x="440" y="-38" on="0"/>
        <pt x="412" y="-152" on="0"/>
        <pt x="328" y="-203" on="0"/>
        <pt x="242" y="-203" on="1"/>
      </contour>
      <contour>
        <pt x="311" y="24" on="0"/>
        <pt x="379" y="63" on="0"/>
        <pt x="392" y="105" on="1"/>
        <pt x="400" y="133" on="0"/>
        <pt x="405" y="200" on="0"/>
        <pt x="405" y="255" on="1"/>
        <pt x="405" y="312" on="0"/>
        <pt x="401" y="374" on="0"/>
        <pt x="394" y="398" on="1"/>
        <pt x="381" y="445" on="0"/>
        <pt x="313" y="486" on="0"/>
        <pt x="253" y="486" on="1"/>
        <pt x="183" y="486" on="0"/>
        <pt x="121" y="454" on="0"/>
        <pt x="100" y="361" on="0"/>
        <pt x="100" y="255" on="1"/>
        <pt x="100" y="149" on="0"/>
        <pt x="121" y="56" on="0"/>
        <pt x="183" y="24" on="0"/>
        <pt x="253" y="24" on="1"/>
      </contour>
    </TTGlyph>
    <TTGlyph name="g_tilde.loclGUA" xMin="65" yMin="-203" xMax="440" yMax="743">
      <component glyphName=".ttfautohint" x="65" y="0" flags="0x0"/>
      <component glyphName="g" x="0" y="0" flags="0x0"/>
      <component glyphName="tildecomb" x="429" y="0" flags="0x0"/>
    </TTGlyph>
    <TTGlyph name="gbreve" xMin="65" yMin="-203" xMax="440" yMax="743">
      <component glyphName=".ttfautohint" x="65" y="0" flags="0x0"/>
      <component glyphName="g" x="0" y="0" flags="0x0"/>
      <component glyphName="uni0306" x="393" y="0" flags="0x0"/>
    </TTGlyph>
    <TTGlyph name="gcaron" xMin="65" yMin="-203" xMax="440" yMax="743">
      <component glyphName=".ttfautohint" x="65" y="0" flags="0x0"/>
      <component glyphName="g" x="0" y="0" flags="0x0"/>
      <component glyphName="uni030C" x="394" y="0" flags="0x0"/>
    </TTGlyph>
    <TTGlyph name="gcircumflex" xMin="65" yMin="-203" xMax="440" yMax="743">
      <component glyphName=".ttfautohint" x="65" y="0" flags="0x0"/>
      <component glyphName="g" x="0" y="0" flags="0x0"/>
      <component glyphName="uni0302" x="394" y="0" flags="0x0"/>
    </TTGlyph>
    <TTGlyph name="gcommaaccent" xMin="65" yMin="-203" xMax="440" yMax="773">
      <component glyphName=".ttfautohint" x="65" y="0" flags="0x0"/>
      <component glyphName="g" x="0" y="0" flags="0x0"/>
      <component glyphName="uni0312" x="610" y="0" flags="0x0"/>
    </TTGlyph>
    <TTGlyph name="gdotaccent" xMin="65" yMin="-203" xMax="440" yMax="731">
      <component glyphName=".ttfautohint" x="65" y="0" flags="0x0"/>
      <component glyphName="g" x="0" y="0" flags="0x0"/>
      <component glyphName="uni0307" x="305" y="0" flags="0x0"/>
    </TTGlyph>
    <TTGlyph name="germandbls" xMin="87" yMin="0" xMax="476" yMax="750">
      <contour>
        <pt x="222" y="0" on="1"/>
        <pt x="222" y="32" on="1"/>
        <pt x="282" y="32" on="1"/>
        <pt x="357" y="32" on="0"/>
        <pt x="420" y="58" on="0"/>
        <pt x="441" y="138" on="0"/>
        <pt x="441" y="235" on="1"/>
        <pt x="441" y="310" on="0"/>
        <pt x="414" y="390" on="0"/>
        <pt x="351" y="424" on="0"/>
        <pt x="293" y="424" on="1"/>
        <pt x="257" y="424" on="1"/>
        <pt x="257" y="456" on="1"/>
        <pt x="293" y="456" on="1"/>
        <pt x="369" y="456" on="0"/>
        <pt x="434" y="515" on="0"/>
        <pt x="434" y="584" on="1"/>
        <pt x="434" y="635" on="0"/>
        <pt x="406" y="692" on="0"/>
        <pt x="339" y="718" on="0"/>
        <pt x="279" y="718" on="1"/>
        <pt x="221" y="718" on="0"/>
        <pt x="154" y="688" on="0"/>
        <pt x="121" y="610" on="0"/>
        <pt x="121" y="538" on="1"/>
        <pt x="121" y="0" on="1"/>
        <pt x="87" y="0" on="1"/>
        <pt x="87" y="539" on="1"/>
        <pt x="87" y="616" on="0"/>
        <pt x="125" y="707" on="0"/>
        <pt x="211" y="750" on="0"/>
        <pt x="284" y="750" on="1"/>
        <pt x="354" y="750" on="0"/>
        <pt x="434" y="715" on="0"/>
        <pt x="469" y="642" on="0"/>
        <pt x="469" y="580" on="1"/>
        <pt x="469" y="518" on="0"/>
        <pt x="419" y="454" on="0"/>
        <pt x="364" y="445" on="1"/>
        <pt x="364" y="441" on="1"/>
        <pt x="422" y="431" on="0"/>
        <pt x="476" y="341" on="0"/>
        <pt x="476" y="244" on="1"/>
        <pt x="476" y="146" on="0"/>
        <pt x="450" y="45" on="0"/>
        <pt x="376" y="0" on="0"/>
        <pt x="300" y="0" on="1"/>
      </contour>
    </TTGlyph>
    <TTGlyph name="grave" xMin="13" yMin="605" xMax="140" yMax="743">
      <contour>
        <pt x="13" y="738" on="1"/>
        <pt x="13" y="743" on="1"/>
        <pt x="57" y="743" on="1"/>
        <pt x="140" y="610" on="1"/>
        <pt x="140" y="605" on="1"/>
        <pt x="114" y="605" on="1"/>
      </contour>
    </TTGlyph>
    <TTGlyph name="gravecomb" xMin="-141" yMin="605" xMax="-14" yMax="743">
      <contour>
        <pt x="-141" y="738" on="1"/>
        <pt x="-141" y="743" on="1"/>
        <pt x="-97" y="743" on="1"/>
        <pt x="-14" y="610" on="1"/>
        <pt x="-14" y="605" on="1"/>
        <pt x="-40" y="605" on="1"/>
      </contour>
    </TTGlyph>
    <TTGlyph name="gravecomb.case" xMin="-141" yMin="750" xMax="-14" yMax="888">
      <contour>
        <pt x="-141" y="883" on="1"/>
        <pt x="-141" y="888" on="1"/>
        <pt x="-97" y="888" on="1"/>
        <pt x="-14" y="755" on="1"/>
        <pt x="-14" y="750" on="1"/>
        <pt x="-40" y="750" on="1"/>
      </contour>
    </TTGlyph>
    <TTGlyph name="greater" xMin="67" yMin="55" xMax="447" yMax="451">
      <contour>
        <pt x="67" y="92" on="1"/>
        <pt x="420" y="253" on="1"/>
        <pt x="67" y="414" on="1"/>
        <pt x="67" y="451" on="1"/>
        <pt x="447" y="278" on="1"/>
        <pt x="447" y="228" on="1"/>
        <pt x="67" y="55" on="1"/>
      </contour>
    </TTGlyph>
    <TTGlyph name="greaterequal" xMin="67" yMin="15" xMax="447" yMax="576">
      <contour>
        <pt x="67" y="217" on="1"/>
        <pt x="420" y="378" on="1"/>
        <pt x="67" y="539" on="1"/>
        <pt x="67" y="576" on="1"/>
        <pt x="447" y="403" on="1"/>
        <pt x="447" y="353" on="1"/>
        <pt x="67" y="180" on="1"/>
      </contour>
      <contour>
        <pt x="67" y="47" on="1"/>
        <pt x="447" y="47" on="1"/>
        <pt x="447" y="15" on="1"/>
        <pt x="67" y="15" on="1"/>
      </contour>
    </TTGlyph>
    <TTGlyph name="guillemotleft" xMin="49" yMin="99" xMax="330" yMax="510">
      <contour>
        <pt x="49" y="304" on="1"/>
        <pt x="164" y="510" on="1"/>
        <pt x="195" y="510" on="1"/>
        <pt x="91" y="304" on="1"/>
        <pt x="195" y="99" on="1"/>
        <pt x="164" y="99" on="1"/>
      </contour>
      <contour>
        <pt x="184" y="304" on="1"/>
        <pt x="300" y="510" on="1"/>
        <pt x="330" y="510" on="1"/>
        <pt x="227" y="304" on="1"/>
        <pt x="330" y="99" on="1"/>
        <pt x="300" y="99" on="1"/>
      </contour>
    </TTGlyph>
    <TTGlyph name="guillemotright" xMin="70" yMin="99" xMax="352" yMax="510">
      <contour>
        <pt x="173" y="304" on="1"/>
        <pt x="70" y="510" on="1"/>
        <pt x="100" y="510" on="1"/>
        <pt x="216" y="304" on="1"/>
        <pt x="100" y="99" on="1"/>
        <pt x="70" y="99" on="1"/>
      </contour>
      <contour>
        <pt x="309" y="304" on="1"/>
        <pt x="205" y="510" on="1"/>
        <pt x="236" y="510" on="1"/>
        <pt x="352" y="304" on="1"/>
        <pt x="236" y="99" on="1"/>
        <pt x="205" y="99" on="1"/>
      </contour>
    </TTGlyph>
    <TTGlyph name="guilsinglleft" xMin="49" yMin="99" xMax="195" yMax="510">
      <contour>
        <pt x="49" y="304" on="1"/>
        <pt x="164" y="510" on="1"/>
        <pt x="195" y="510" on="1"/>
        <pt x="91" y="304" on="1"/>
        <pt x="195" y="99" on="1"/>
        <pt x="164" y="99" on="1"/>
      </contour>
    </TTGlyph>
    <TTGlyph name="guilsinglright" xMin="70" yMin="99" xMax="216" yMax="510">
      <contour>
        <pt x="173" y="304" on="1"/>
        <pt x="70" y="510" on="1"/>
        <pt x="100" y="510" on="1"/>
        <pt x="216" y="304" on="1"/>
        <pt x="100" y="99" on="1"/>
        <pt x="70" y="99" on="1"/>
      </contour>
    </TTGlyph>
    <TTGlyph name="h" xMin="87" yMin="0" xMax="447" yMax="743">
      <contour>
        <pt x="412" y="315" on="1"/>
        <pt x="412" y="392" on="0"/>
        <pt x="391" y="462" on="0"/>
        <pt x="335" y="486" on="0"/>
        <pt x="274" y="486" on="1"/>
        <pt x="202" y="486" on="0"/>
        <pt x="137" y="430" on="0"/>
        <pt x="122" y="343" on="0"/>
        <pt x="122" y="264" on="1"/>
        <pt x="122" y="0" on="1"/>
        <pt x="87" y="0" on="1"/>
        <pt x="87" y="743" on="1"/>
        <pt x="122" y="743" on="1"/>
        <pt x="122" y="440" on="1"/>
        <pt x="126" y="440" on="1"/>
        <pt x="154" y="518" on="0"/>
        <pt x="282" y="518" on="1"/>
        <pt x="353" y="518" on="0"/>
        <pt x="423" y="480" on="0"/>
        <pt x="447" y="398" on="0"/>
        <pt x="447" y="320" on="1"/>
        <pt x="447" y="0" on="1"/>
        <pt x="412" y="0" on="1"/>
      </contour>
    </TTGlyph>
    <TTGlyph name="hbar" xMin="23" yMin="0" xMax="447" yMax="743">
      <contour>
        <pt x="353" y="518" on="0"/>
        <pt x="423" y="480" on="0"/>
        <pt x="447" y="398" on="0"/>
        <pt x="447" y="320" on="1"/>
        <pt x="447" y="0" on="1"/>
        <pt x="412" y="0" on="1"/>
        <pt x="412" y="315" on="1"/>
        <pt x="412" y="392" on="0"/>
        <pt x="391" y="462" on="0"/>
        <pt x="335" y="486" on="0"/>
        <pt x="274" y="486" on="1"/>
        <pt x="202" y="486" on="0"/>
        <pt x="137" y="430" on="0"/>
        <pt x="122" y="343" on="0"/>
        <pt x="122" y="264" on="1"/>
        <pt x="122" y="0" on="1"/>
        <pt x="87" y="0" on="1"/>
        <pt x="87" y="656" on="1"/>
        <pt x="23" y="656" on="1"/>
        <pt x="23" y="688" on="1"/>
        <pt x="87" y="688" on="1"/>
        <pt x="87" y="743" on="1"/>
        <pt x="122" y="743" on="1"/>
        <pt x="122" y="688" on="1"/>
        <pt x="261" y="688" on="1"/>
        <pt x="261" y="656" on="1"/>
        <pt x="122" y="656" on="1"/>
        <pt x="122" y="440" on="1"/>
        <pt x="126" y="440" on="1"/>
        <pt x="154" y="518" on="0"/>
        <pt x="282" y="518" on="1"/>
      </contour>
    </TTGlyph>
    <TTGlyph name="hcircumflex" xMin="-12" yMin="0" xMax="447" yMax="921">
      <component glyphName=".ttfautohint" x="0" y="0" flags="0x0"/>
      <component glyphName="h" x="0" y="0" flags="0x0"/>
      <component glyphName="uni0302" x="236" y="178" flags="0x4"/>
    </TTGlyph>
    <TTGlyph name="hookabovecomb" xMin="-232" yMin="608" xMax="-21" yMax="784">
      <contour>
        <pt x="-166" y="618" on="1"/>
        <pt x="-166" y="639" on="0"/>
        <pt x="-149" y="657" on="0"/>
        <pt x="-126" y="663" on="1"/>
        <pt x="-105" y="669" on="1"/>
        <pt x="-71" y="678" on="0"/>
        <pt x="-51" y="695" on="0"/>
        <pt x="-51" y="716" on="1"/>
        <pt x="-51" y="735" on="0"/>
        <pt x="-66" y="752" on="0"/>
        <pt x="-101" y="757" on="0"/>
        <pt x="-140" y="757" on="1"/>
        <pt x="-175" y="757" on="0"/>
        <pt x="-232" y="752" on="1"/>
        <pt x="-232" y="778" on="1"/>
        <pt x="-185" y="784" on="0"/>
        <pt x="-133" y="784" on="1"/>
        <pt x="-89" y="784" on="0"/>
        <pt x="-42" y="773" on="0"/>
        <pt x="-21" y="746" on="0"/>
        <pt x="-21" y="720" on="1"/>
        <pt x="-21" y="689" on="0"/>
        <pt x="-38" y="661" on="0"/>
        <pt x="-71" y="652" on="1"/>
        <pt x="-94" y="645" on="1"/>
        <pt x="-117" y="639" on="0"/>
        <pt x="-133" y="631" on="0"/>
        <pt x="-137" y="621" on="0"/>
        <pt x="-137" y="608" on="1"/>
        <pt x="-166" y="608" on="1"/>
      </contour>
    </TTGlyph>
    <TTGlyph name="hookabovecomb.case" xMin="-232" yMin="733" xMax="-21" yMax="910">
      <contour>
        <pt x="-166" y="743" on="1"/>
        <pt x="-166" y="764" on="0"/>
        <pt x="-149" y="782" on="0"/>
        <pt x="-126" y="789" on="1"/>
        <pt x="-105" y="794" on="1"/>
        <pt x="-71" y="803" on="0"/>
        <pt x="-51" y="820" on="0"/>
        <pt x="-51" y="841" on="1"/>
        <pt x="-51" y="860" on="0"/>
        <pt x="-66" y="877" on="0"/>
        <pt x="-101" y="882" on="0"/>
        <pt x="-140" y="882" on="1"/>
        <pt x="-164" y="882" on="0"/>
        <pt x="-232" y="878" on="1"/>
        <pt x="-232" y="904" on="1"/>
        <pt x="-170" y="910" on="0"/>
        <pt x="-133" y="910" on="1"/>
        <pt x="-89" y="910" on="0"/>
        <pt x="-42" y="899" on="0"/>
        <pt x="-21" y="871" on="0"/>
        <pt x="-21" y="845" on="1"/>
        <pt x="-21" y="815" on="0"/>
        <pt x="-38" y="787" on="0"/>
        <pt x="-71" y="777" on="1"/>
        <pt x="-94" y="771" on="1"/>
        <pt x="-116" y="765" on="0"/>
        <pt x="-133" y="757" on="0"/>
        <pt x="-137" y="746" on="0"/>
        <pt x="-137" y="733" on="1"/>
        <pt x="-166" y="733" on="1"/>
      </contour>
    </TTGlyph>
</ttFont>
